<?xml version="1.0" encoding="UTF-8"?>
<!DOCTYPE svg PUBLIC "-//W3C//DTD SVG 1.1//EN" "http://www.w3.org/Graphics/SVG/1.1/DTD/svg11.dtd">
<svg xmlns="http://www.w3.org/2000/svg" version="1.1" width="1600px" height="1143px" style="shape-rendering:geometricPrecision; text-rendering:geometricPrecision; image-rendering:optimizeQuality; fill-rule:evenodd; clip-rule:evenodd" xmlns:xlink="http://www.w3.org/1999/xlink">
<g><path style="opacity:0.958" fill="#000000" d="M 1237.5,-0.5 C 1247.5,-0.5 1257.5,-0.5 1267.5,-0.5C 1161.29,105.703 1056.29,211.369 952.5,316.5C 953,317.5 953.5,318.5 954,319.5C 991.888,357.72 1030.22,395.72 1069,433.5C 1078.94,423.728 1088.77,413.728 1098.5,403.5C 1090,389.167 1081.5,374.833 1073,360.5C 1071.41,358.35 1070.74,356.017 1071,353.5C 1125.83,298.667 1180.67,243.833 1235.5,189C 1222.32,175.986 1209.32,162.819 1196.5,149.5C 1233.46,113.041 1270.29,76.3742 1307,39.5C 1307.67,38.5 1307.67,37.5 1307,36.5C 1294.63,24.2985 1282.46,11.9651 1270.5,-0.5C 1280.17,-0.5 1289.83,-0.5 1299.5,-0.5C 1307.8,8.29833 1316.3,16.965 1325,25.5C 1326.58,28.9908 1328.08,32.4908 1329.5,36C 1332.64,36.6011 1335.64,37.6011 1338.5,39C 1345.7,46.5314 1353.2,53.6981 1361,60.5C 1364.51,64.8786 1366.35,69.8786 1366.5,75.5C 1371.69,75.4617 1376.35,76.9617 1380.5,80C 1389.4,88.2324 1397.57,97.0657 1405,106.5C 1405.82,109.117 1406.32,111.784 1406.5,114.5C 1411.88,114.858 1416.55,116.858 1420.5,120.5C 1427.76,127.72 1434.93,135.053 1442,142.5C 1443.47,145.731 1444.63,149.065 1445.5,152.5C 1449.22,153.847 1452.88,155.347 1456.5,157C 1464.33,164.833 1472.17,172.667 1480,180.5C 1482.18,183.862 1483.68,187.529 1484.5,191.5C 1489.17,192.582 1493.51,194.415 1497.5,197C 1504.67,204.167 1511.83,211.333 1519,218.5C 1521.59,222.44 1523.09,226.773 1523.5,231.5C 1528.33,231.623 1532.66,233.123 1536.5,236C 1545.4,244.232 1553.57,253.066 1561,262.5C 1561.82,265.117 1562.32,267.784 1562.5,270.5C 1567.33,270.623 1571.66,272.123 1575.5,275C 1583.37,283.036 1591.37,290.869 1599.5,298.5C 1599.5,308.5 1599.5,318.5 1599.5,328.5C 1586.91,316.243 1574.24,303.909 1561.5,291.5C 1523.85,328.653 1486.35,365.986 1449,403.5C 1436.53,390.029 1423.7,376.862 1410.5,364C 1409.83,363.333 1409.17,363.333 1408.5,364C 1353.4,419.087 1298.56,474.254 1244,529.5C 1227.95,519.309 1211.61,509.643 1195,500.5C 1184.39,509.945 1174.22,519.945 1164.5,530.5C 1204.21,569.707 1243.71,609.04 1283,648.5C 1387.96,543.038 1493.46,437.371 1599.5,331.5C 1599.5,341.5 1599.5,351.5 1599.5,361.5C 1499.53,460.965 1399.7,560.632 1300,660.5C 1299.33,661.167 1299.33,661.833 1300,662.5C 1306.41,668.238 1312.07,674.571 1317,681.5C 1319,687.5 1319,693.5 1317,699.5C 1305.33,715.167 1293.67,730.833 1282,746.5C 1279.13,749.704 1275.96,752.537 1272.5,755C 1217.83,791 1163.17,827 1108.5,863C 1100.02,865.738 1092.18,864.571 1085,859.5C 1087.23,869.431 1084.73,877.931 1077.5,885C 1060.17,896.333 1042.83,907.667 1025.5,919C 1017.35,921.689 1009.85,920.522 1003,915.5C 1005.1,925.908 1001.93,934.408 993.5,941C 977.833,951.333 962.167,961.667 946.5,972C 937.487,975.882 928.987,975.049 921,969.5C 922.502,977.498 920.835,984.832 916,991.5C 898.71,1004.12 880.876,1015.95 862.5,1027C 854.018,1029.74 846.185,1028.57 839,1023.5C 841.55,1035.9 837.384,1045.4 826.5,1052C 811.833,1061.67 797.167,1071.33 782.5,1081C 773.777,1084.76 765.443,1084.09 757.5,1079C 739.653,1060.99 721.653,1043.15 703.5,1025.5C 662.596,1066.58 616.263,1100.08 564.5,1126C 551.257,1132.02 537.924,1137.52 524.5,1142.5C 492.167,1142.5 459.833,1142.5 427.5,1142.5C 495.292,1134.63 557.292,1111.46 613.5,1073C 646.153,1050.01 675.986,1023.84 703,994.5C 725.5,1017 748,1039.5 770.5,1062C 772.807,1061.36 775.141,1060.36 777.5,1059C 791.553,1049.98 805.22,1040.48 818.5,1030.5C 793.446,1005.11 768.446,979.78 743.5,954.5C 752.513,944.987 761.68,935.654 771,926.5C 797.614,952.903 824.114,979.403 850.5,1006C 851.5,1006.5 852.5,1007 853.5,1007.5C 869.558,997.479 885.225,986.979 900.5,976C 870.725,945.89 840.725,916.224 810.5,887C 819.987,877.346 829.654,867.846 839.5,858.5C 871.5,890.167 903.5,921.833 935.5,953.5C 951.511,943.496 967.178,932.996 982.5,922C 948.766,888.266 914.599,854.099 880,819.5C 879.333,818.833 879.333,818.167 880,817.5C 889.041,808.292 898.208,799.292 907.5,790.5C 944.153,826.653 980.653,862.986 1017,899.5C 1032.59,889.291 1048.09,878.957 1063.5,868.5C 1064.52,867.998 1064.69,867.332 1064,866.5C 1025.33,827.833 986.667,789.167 948,750.5C 947.333,749.833 947.333,749.167 948,748.5C 957.333,739.167 966.667,729.833 976,720.5C 1017.09,761.762 1058.26,802.762 1099.5,843.5C 1154.05,807.107 1208.72,770.94 1263.5,735C 1273.64,721.229 1284.14,707.729 1295,694.5C 1296.29,692.945 1296.96,691.279 1297,689.5C 1248.23,640.73 1199.56,592.064 1151,543.5C 1113.74,580.757 1076.41,618.091 1039,655.5C 1006.83,622.999 974.332,590.832 941.5,559C 979.068,521.599 1016.4,484.099 1053.5,446.5C 1005.14,397.806 956.806,349.14 908.5,300.5C 892.902,311.929 877.735,323.929 863,336.5C 827.23,391.191 791.063,445.691 754.5,500C 795.333,540.833 836.167,581.667 877,622.5C 877.667,623.167 877.667,623.833 877,624.5C 867.773,633.39 858.44,642.39 849,651.5C 809.568,611.731 770.235,572.731 731,534.5C 720.696,550.303 710.196,565.97 699.5,581.5C 735.513,618.013 771.68,654.347 808,690.5C 808.667,691.167 808.667,691.833 808,692.5C 798.913,701.85 789.913,711.183 781,720.5C 746.437,685.433 711.603,651.1 676.5,617.5C 666.107,632.718 655.94,648.052 646,663.5C 645.333,664.5 645.333,665.5 646,666.5C 676.894,696.639 707.561,726.972 738,757.5C 739.271,758.705 739.937,760.038 740,761.5C 730.667,770.833 721.333,780.167 712,789.5C 682.5,760 653,730.5 623.5,701C 622.833,700.333 622.167,700.333 621.5,701C 611.291,716.586 600.957,732.086 590.5,747.5C 617.626,774.793 644.96,801.96 672.5,829C 663.261,838.116 654.261,847.449 645.5,857C 644.5,857.667 643.5,857.667 642.5,857C 617.833,832.333 593.167,807.667 568.5,783C 567.833,782.333 567.167,782.333 566.5,783C 555.795,798.242 545.461,813.742 535.5,829.5C 557.833,852.5 580.5,875.167 603.5,897.5C 567.813,938.645 524.813,970.145 474.5,992C 378.383,1024.71 292.05,1008.04 215.5,942C 153.982,884.594 118.482,813.761 109,729.5C 103.16,664.204 113.826,601.871 141,542.5C 158.573,505.692 180.906,472.025 208,441.5C 208.833,406.495 208.667,371.495 207.5,336.5C 137.115,395.351 81.6153,465.685 41,547.5C 18.7768,595.164 4.94342,645.164 -0.5,697.5C -0.5,662.833 -0.5,628.167 -0.5,593.5C 22.8167,526.85 56.9833,466.516 102,412.5C 130.133,379.367 160.633,348.533 193.5,320C 206.647,312.392 217.813,314.559 227,326.5C 227.333,237.5 227.667,148.5 228,59.5C 231.141,43.3405 238.974,29.8405 251.5,19C 260.045,12.2288 269.712,7.89545 280.5,6C 470.5,5.33333 660.5,5.33333 850.5,6C 873.806,11.2945 890.639,24.7945 901,46.5C 902,50.8333 903,55.1667 904,59.5C 904.667,130.833 904.667,202.167 904,273.5C 903.697,275.888 902.863,278.055 901.5,280C 907.628,278.947 913.628,279.613 919.5,282C 926.151,287.597 932.318,293.763 938,300.5C 1037.54,200.128 1137.37,99.7943 1237.5,-0.5 Z M 502.5,103.5 C 544.5,103.5 586.5,103.5 628.5,103.5C 630.63,117.833 632.796,132.166 635,146.5C 638.096,153.266 643.263,157.432 650.5,159C 662.495,159.5 674.495,159.667 686.5,159.5C 687.14,173.221 688.307,186.888 690,200.5C 692.833,206 697,210.167 702.5,213C 737.024,214.143 771.524,214.976 806,215.5C 806.833,233.176 806.666,250.843 805.5,268.5C 798.878,271.951 794.712,277.284 793,284.5C 792.333,303.5 792.333,322.5 793,341.5C 795.167,350.333 800.667,355.833 809.5,358C 814.201,358.393 818.868,358.393 823.5,358C 795.209,400.081 767.043,442.247 739,484.5C 738.667,436.167 738.333,387.833 738,339.5C 735.833,330.667 730.333,325.167 721.5,323C 709.5,322.333 697.5,322.333 685.5,323C 682.252,323.628 679.252,324.794 676.5,326.5C 673.748,324.794 670.748,323.628 667.5,323C 655.167,322.333 642.833,322.333 630.5,323C 627.252,323.628 624.252,324.794 621.5,326.5C 618.748,324.794 615.748,323.628 612.5,323C 599.833,322.333 587.167,322.333 574.5,323C 571.361,323.488 568.528,324.655 566,326.5C 563.472,324.655 560.639,323.488 557.5,323C 544.833,322.333 532.167,322.333 519.5,323C 516.252,323.628 513.252,324.794 510.5,326.5C 507.748,324.794 504.748,323.628 501.5,323C 489.167,322.333 476.833,322.333 464.5,323C 461.252,323.628 458.252,324.794 455.5,326.5C 452.748,324.794 449.748,323.628 446.5,323C 432.777,322.074 419.111,322.407 405.5,324C 398.734,327.096 394.568,332.263 393,339.5C 392.5,379.832 392.333,420.165 392.5,460.5C 370.258,460.827 348.091,460.494 326,459.5C 325.167,434.827 325.334,410.16 326.5,385.5C 333.122,382.049 337.288,376.716 339,369.5C 339.667,341.167 339.667,312.833 339,284.5C 337.288,277.284 333.122,271.951 326.5,268.5C 325.334,250.843 325.167,233.176 326,215.5C 360.476,214.976 394.976,214.143 429.5,213C 437.624,208.594 442.124,201.761 443,192.5C 443.558,181.471 444.391,170.471 445.5,159.5C 457.171,159.667 468.838,159.5 480.5,159C 488.079,157.092 493.579,152.592 497,145.5C 499.162,131.541 500.996,117.541 502.5,103.5 Z M 690.5,556.5 C 687.555,561.286 684.388,565.952 681,570.5C 676.875,580.103 678.042,588.936 684.5,597C 674.569,594.773 666.069,597.273 659,604.5C 648,621.5 637,638.5 626,655.5C 623.221,664.309 624.388,672.475 629.5,680C 619.346,677.831 610.846,680.664 604,688.5C 593,705.167 582,721.833 571,738.5C 568.262,746.982 569.429,754.815 574.5,762C 563.751,759.732 554.917,762.898 548,771.5C 537.085,787.663 526.418,803.996 516,820.5C 513.384,828.691 514.384,836.358 519,843.5C 537.167,861.667 555.333,879.833 573.5,898C 540.839,932.667 502.172,958.334 457.5,975C 394.041,995.776 333.041,990.109 274.5,958C 211.771,919.586 168.604,865.419 145,795.5C 115.507,698.266 126.507,605.933 178,518.5C 192.622,494.925 208.956,472.591 227,451.5C 227.333,469.167 227.667,486.833 228,504.5C 230.53,521.057 238.363,534.557 251.5,545C 259.605,551.22 268.605,555.553 278.5,558C 413.833,558.667 549.167,558.667 684.5,558C 686.518,557.495 688.518,556.995 690.5,556.5 Z M 722.5,514.5 C 725.741,509.024 729.241,503.691 733,498.5C 733.234,504.286 735.067,509.453 738.5,514C 733.188,513.234 727.855,513.401 722.5,514.5 Z M 975.5,554.5 C 997.452,577.119 1019.79,599.452 1042.5,621.5C 1041.08,623.139 1039.42,623.973 1037.5,624C 1016,602.5 994.5,581 973,559.5C 973.058,557.565 973.891,555.898 975.5,554.5 Z"/></g>
<g><path style="opacity:1" fill="#b3adac" d="M 1267.5,-0.5 C 1268.5,-0.5 1269.5,-0.5 1270.5,-0.5C 1282.46,11.9651 1294.63,24.2985 1307,36.5C 1307.67,37.5 1307.67,38.5 1307,39.5C 1270.29,76.3742 1233.46,113.041 1196.5,149.5C 1209.32,162.819 1222.32,175.986 1235.5,189C 1180.67,243.833 1125.83,298.667 1071,353.5C 1070.74,356.017 1071.41,358.35 1073,360.5C 1081.5,374.833 1090,389.167 1098.5,403.5C 1088.77,413.728 1078.94,423.728 1069,433.5C 1030.22,395.72 991.888,357.72 954,319.5C 953.5,318.5 953,317.5 952.5,316.5C 1056.29,211.369 1161.29,105.703 1267.5,-0.5 Z"/></g>
<g><path style="opacity:1" fill="#b3aeac" d="M 284.5,26.5 C 471.834,26.3333 659.167,26.5 846.5,27C 866.021,31.8541 878.187,44.0208 883,63.5C 883.833,132.169 883.667,200.836 882.5,269.5C 867.015,282.074 851.348,294.408 835.5,306.5C 828.253,316.66 821.253,326.994 814.5,337.5C 813.334,321.177 813.167,304.844 814,288.5C 818.55,286.541 822.883,284.208 827,281.5C 827.667,256.5 827.667,231.5 827,206.5C 822.806,202.306 818.64,198.14 814.5,194C 779.833,193.667 745.167,193.333 710.5,193C 708.837,174.91 707.504,156.743 706.5,138.5C 689.167,138.5 671.833,138.5 654.5,138.5C 652.281,119.852 650.281,101.185 648.5,82.5C 593.5,82.5 538.5,82.5 483.5,82.5C 481.956,101.137 479.623,119.637 476.5,138C 459.26,138.174 442.093,138.674 425,139.5C 424.164,157.53 422.997,175.53 421.5,193.5C 386.832,193.333 352.165,193.5 317.5,194C 313.027,197.806 308.86,201.973 305,206.5C 304.333,231.5 304.333,256.5 305,281.5C 309.117,284.208 313.45,286.541 318,288.5C 318.667,314.167 318.667,339.833 318,365.5C 313.757,367.372 309.59,369.372 305.5,371.5C 304.333,403.828 304.167,436.162 305,468.5C 309.167,472.667 313.333,476.833 317.5,481C 349.498,481.5 381.498,481.667 413.5,481.5C 413.5,435.5 413.5,389.5 413.5,343.5C 423.167,343.5 432.833,343.5 442.5,343.5C 442.5,389.5 442.5,435.5 442.5,481.5C 451.167,481.5 459.833,481.5 468.5,481.5C 468.5,435.5 468.5,389.5 468.5,343.5C 478.167,343.5 487.833,343.5 497.5,343.5C 497.5,389.5 497.5,435.5 497.5,481.5C 506.506,481.666 515.506,481.5 524.5,481C 523.503,435.239 523.17,389.405 523.5,343.5C 533.5,343.5 543.5,343.5 553.5,343.5C 553.83,389.405 553.497,435.239 552.5,481C 561.16,481.5 569.827,481.666 578.5,481.5C 578.5,435.5 578.5,389.5 578.5,343.5C 588.5,343.5 598.5,343.5 608.5,343.5C 608.83,389.405 608.497,435.239 607.5,481C 616.494,481.5 625.494,481.666 634.5,481.5C 634.5,435.5 634.5,389.5 634.5,343.5C 644.167,343.5 653.833,343.5 663.5,343.5C 663.5,389.5 663.5,435.5 663.5,481.5C 672.167,481.5 680.833,481.5 689.5,481.5C 689.5,435.5 689.5,389.5 689.5,343.5C 698.833,343.5 708.167,343.5 717.5,343.5C 717.667,390.501 717.5,437.501 717,484.5C 704.833,502 692.667,519.5 680.5,537C 547.833,537.667 415.167,537.667 282.5,537C 264.011,531.512 252.844,519.346 249,500.5C 248.333,354.833 248.333,209.167 249,63.5C 253.664,44.0078 265.497,31.6745 284.5,26.5 Z"/></g>
<g><path style="opacity:1" fill="#b2adac" d="M 1325.5,56.5 C 1332.18,62.0577 1338.68,68.0577 1345,74.5C 1345.67,75.5 1345.67,76.5 1345,77.5C 1312.7,109.801 1280.37,142.134 1248,174.5C 1241.69,168.188 1235.36,161.855 1229,155.5C 1228.33,154.833 1228.33,154.167 1229,153.5C 1261.9,120.765 1294.07,88.4319 1325.5,56.5 Z"/></g>
<g><path style="opacity:1" fill="#b3aeac" d="M 1364.5,96.5 C 1366.76,97.1389 1368.76,98.3055 1370.5,100C 1375.01,105.209 1379.84,110.043 1385,114.5C 1353.58,147.32 1321.42,180.153 1288.5,213C 1287.36,213.749 1286.36,213.583 1285.5,212.5C 1280.17,206.5 1274.5,200.833 1268.5,195.5C 1267.17,194.5 1267.17,193.5 1268.5,192.5C 1300.85,160.812 1332.85,128.812 1364.5,96.5 Z"/></g>
<g><path style="opacity:1" fill="#b3adac" d="M 1403.5,135.5 C 1404.55,135.351 1405.55,135.517 1406.5,136C 1413.04,142.239 1418.87,148.739 1424,155.5C 1391.08,188.256 1358.58,220.923 1326.5,253.5C 1319.64,246.49 1313.14,239.49 1307,232.5C 1338.98,200.57 1370.98,168.904 1403,137.5C 1403.46,136.906 1403.63,136.239 1403.5,135.5 Z"/></g>
<g><path style="opacity:1" fill="#b2acab" d="M 1442.5,174.5 C 1444.76,175.139 1446.76,176.306 1448.5,178C 1453.18,183.202 1458.18,188.202 1463.5,193C 1430.51,225.657 1398.17,258.324 1366.5,291C 1365.36,291.749 1364.36,291.583 1363.5,290.5C 1357.85,284.348 1352.01,278.348 1346,272.5C 1345.33,271.833 1345.33,271.167 1346,270.5C 1378.43,239.237 1410.6,207.237 1442.5,174.5 Z"/></g>
<g><path style="opacity:1" fill="#979291" d="M 1253.5,207.5 C 1299.97,253.132 1345.8,299.132 1391,345.5C 1340.83,395.667 1290.67,445.833 1240.5,496C 1239.09,496.315 1237.76,495.982 1236.5,495C 1221.29,486.027 1206.13,476.86 1191,467.5C 1145.63,513.207 1099.96,558.54 1054,603.5C 1034.98,584.314 1015.81,565.314 996.5,546.5C 995.417,545.635 995.251,544.635 996,543.5C 1041.27,498.481 1086.44,453.315 1131.5,408C 1122.33,393.167 1113.17,378.333 1104,363.5C 1103.21,361.835 1102.88,360.169 1103,358.5C 1153.22,307.777 1203.39,257.443 1253.5,207.5 Z"/></g>
<g><path style="opacity:1" fill="#b2adac" d="M 1481.5,213.5 C 1482.55,213.351 1483.55,213.517 1484.5,214C 1490.5,220 1496.5,226 1502.5,232C 1469.16,265.166 1436.5,297.999 1404.5,330.5C 1398.49,324.318 1392.32,318.318 1386,312.5C 1385.33,311.167 1385.33,309.833 1386,308.5C 1417.6,276.747 1449.43,245.08 1481.5,213.5 Z"/></g>
<g><path style="opacity:1" fill="#b3aeac" d="M 1520.5,252.5 C 1521.55,252.351 1522.55,252.517 1523.5,253C 1529.33,258.833 1535.17,264.667 1541,270.5C 1541.67,271.167 1541.67,271.833 1541,272.5C 1508.73,305.36 1476.23,338.027 1443.5,370.5C 1437.54,364.041 1431.38,357.708 1425,351.5C 1424.68,350.092 1425.02,348.759 1426,347.5C 1458.1,316.379 1489.6,284.712 1520.5,252.5 Z"/></g>
<g><path style="opacity:1" fill="#b3adac" d="M 1599.5,328.5 C 1599.5,329.5 1599.5,330.5 1599.5,331.5C 1493.46,437.371 1387.96,543.038 1283,648.5C 1243.71,609.04 1204.21,569.707 1164.5,530.5C 1174.22,519.945 1184.39,509.945 1195,500.5C 1211.61,509.643 1227.95,519.309 1244,529.5C 1298.56,474.254 1353.4,419.087 1408.5,364C 1409.17,363.333 1409.83,363.333 1410.5,364C 1423.7,376.862 1436.53,390.029 1449,403.5C 1486.35,365.986 1523.85,328.653 1561.5,291.5C 1574.24,303.909 1586.91,316.243 1599.5,328.5 Z"/></g>
<g><path style="opacity:1" fill="#fe5200" d="M 427.5,1142.5 C 405.833,1142.5 384.167,1142.5 362.5,1142.5C 240.086,1126.18 143.253,1067.85 72,967.5C 31.0103,907.478 6.8436,841.145 -0.5,768.5C -0.5,744.833 -0.5,721.167 -0.5,697.5C 4.94342,645.164 18.7768,595.164 41,547.5C 81.6153,465.685 137.115,395.351 207.5,336.5C 208.667,371.495 208.833,406.495 208,441.5C 180.906,472.025 158.573,505.692 141,542.5C 113.826,601.871 103.16,664.204 109,729.5C 118.482,813.761 153.982,884.594 215.5,942C 292.05,1008.04 378.383,1024.71 474.5,992C 524.813,970.145 567.813,938.645 603.5,897.5C 580.5,875.167 557.833,852.5 535.5,829.5C 545.461,813.742 555.795,798.242 566.5,783C 567.167,782.333 567.833,782.333 568.5,783C 593.167,807.667 617.833,832.333 642.5,857C 643.5,857.667 644.5,857.667 645.5,857C 654.261,847.449 663.261,838.116 672.5,829C 644.96,801.96 617.626,774.793 590.5,747.5C 600.957,732.086 611.291,716.586 621.5,701C 622.167,700.333 622.833,700.333 623.5,701C 653,730.5 682.5,760 712,789.5C 721.333,780.167 730.667,770.833 740,761.5C 739.937,760.038 739.271,758.705 738,757.5C 707.561,726.972 676.894,696.639 646,666.5C 645.333,665.5 645.333,664.5 646,663.5C 655.94,648.052 666.107,632.718 676.5,617.5C 711.603,651.1 746.437,685.433 781,720.5C 789.913,711.183 798.913,701.85 808,692.5C 808.667,691.833 808.667,691.167 808,690.5C 771.68,654.347 735.513,618.013 699.5,581.5C 710.196,565.97 720.696,550.303 731,534.5C 770.235,572.731 809.568,611.731 849,651.5C 858.44,642.39 867.773,633.39 877,624.5C 877.667,623.833 877.667,623.167 877,622.5C 836.167,581.667 795.333,540.833 754.5,500C 791.063,445.691 827.23,391.191 863,336.5C 877.735,323.929 892.902,311.929 908.5,300.5C 956.806,349.14 1005.14,397.806 1053.5,446.5C 1016.4,484.099 979.068,521.599 941.5,559C 974.332,590.832 1006.83,622.999 1039,655.5C 1076.41,618.091 1113.74,580.757 1151,543.5C 1199.56,592.064 1248.23,640.73 1297,689.5C 1296.96,691.279 1296.29,692.945 1295,694.5C 1284.14,707.729 1273.64,721.229 1263.5,735C 1208.72,770.94 1154.05,807.107 1099.5,843.5C 1058.26,802.762 1017.09,761.762 976,720.5C 966.667,729.833 957.333,739.167 948,748.5C 947.333,749.167 947.333,749.833 948,750.5C 986.667,789.167 1025.33,827.833 1064,866.5C 1064.69,867.332 1064.52,867.998 1063.5,868.5C 1048.09,878.957 1032.59,889.291 1017,899.5C 980.653,862.986 944.153,826.653 907.5,790.5C 898.208,799.292 889.041,808.292 880,817.5C 879.333,818.167 879.333,818.833 880,819.5C 914.599,854.099 948.766,888.266 982.5,922C 967.178,932.996 951.511,943.496 935.5,953.5C 903.5,921.833 871.5,890.167 839.5,858.5C 829.654,867.846 819.987,877.346 810.5,887C 840.725,916.224 870.725,945.89 900.5,976C 885.225,986.979 869.558,997.479 853.5,1007.5C 852.5,1007 851.5,1006.5 850.5,1006C 824.114,979.403 797.614,952.903 771,926.5C 761.68,935.654 752.513,944.987 743.5,954.5C 768.446,979.78 793.446,1005.11 818.5,1030.5C 805.22,1040.48 791.553,1049.98 777.5,1059C 775.141,1060.36 772.807,1061.36 770.5,1062C 748,1039.5 725.5,1017 703,994.5C 675.986,1023.84 646.153,1050.01 613.5,1073C 557.292,1111.46 495.292,1134.63 427.5,1142.5 Z M 690.5,556.5 C 688.518,556.995 686.518,557.495 684.5,558C 549.167,558.667 413.833,558.667 278.5,558C 268.605,555.553 259.605,551.22 251.5,545C 238.363,534.557 230.53,521.057 228,504.5C 227.667,486.833 227.333,469.167 227,451.5C 208.956,472.591 192.622,494.925 178,518.5C 126.507,605.933 115.507,698.266 145,795.5C 168.604,865.419 211.771,919.586 274.5,958C 333.041,990.109 394.041,995.776 457.5,975C 502.172,958.334 540.839,932.667 573.5,898C 555.333,879.833 537.167,861.667 519,843.5C 514.384,836.358 513.384,828.691 516,820.5C 526.418,803.996 537.085,787.663 548,771.5C 554.917,762.898 563.751,759.732 574.5,762C 569.429,754.815 568.262,746.982 571,738.5C 582,721.833 593,705.167 604,688.5C 610.846,680.664 619.346,677.831 629.5,680C 624.388,672.475 623.221,664.309 626,655.5C 637,638.5 648,621.5 659,604.5C 666.069,597.273 674.569,594.773 684.5,597C 678.042,588.936 676.875,580.103 681,570.5C 684.388,565.952 687.555,561.286 690.5,556.5 Z M 722.5,514.5 C 727.855,513.401 733.188,513.234 738.5,514C 735.067,509.453 733.234,504.286 733,498.5C 729.241,503.691 725.741,509.024 722.5,514.5 Z M 975.5,554.5 C 973.891,555.898 973.058,557.565 973,559.5C 994.5,581 1016,602.5 1037.5,624C 1039.42,623.973 1041.08,623.139 1042.5,621.5C 1019.79,599.452 997.452,577.119 975.5,554.5 Z"/></g>
<g><path style="opacity:0.943" fill="#000000" d="M -0.5,768.5 C 6.8436,841.145 31.0103,907.478 72,967.5C 143.253,1067.85 240.086,1126.18 362.5,1142.5C 329.833,1142.5 297.167,1142.5 264.5,1142.5C 134.946,1091.95 46.6126,1001.28 -0.5,870.5C -0.5,836.5 -0.5,802.5 -0.5,768.5 Z"/></g>
</svg>
