<?xml version="1.0" encoding="UTF-8"?>
<!DOCTYPE svg PUBLIC "-//W3C//DTD SVG 1.1//EN" "http://www.w3.org/Graphics/SVG/1.1/DTD/svg11.dtd">
<svg xmlns="http://www.w3.org/2000/svg" version="1.1" width="527px" height="257px" style="shape-rendering:geometricPrecision; text-rendering:geometricPrecision; image-rendering:optimizeQuality; fill-rule:evenodd; clip-rule:evenodd" xmlns:xlink="http://www.w3.org/1999/xlink">
<g><path style="opacity:0.055" fill="#d1d1d1" d="M 447.5,16.5 C 426.848,8.9818 405.515,5.9818 383.5,7.5C 400.567,5.00203 417.567,6.1687 434.5,11C 439.154,12.334 443.487,14.1673 447.5,16.5 Z"/></g>
<g><path style="opacity:0.173" fill="#e8e8e8" d="M 376.5,8.5 C 374.095,9.7682 371.428,10.4349 368.5,10.5C 370.838,8.96046 373.505,8.29379 376.5,8.5 Z"/></g>
<g><path style="opacity:0.145" fill="#d6d6d6" d="M 368.5,10.5 C 366.485,11.9238 364.152,12.5905 361.5,12.5C 363.515,11.0762 365.848,10.4095 368.5,10.5 Z"/></g>
<g><path style="opacity:0.043" fill="#dfdfdf" d="M 361.5,12.5 C 359.11,14.0198 356.443,15.0198 353.5,15.5C 355.684,13.4152 358.351,12.4152 361.5,12.5 Z"/></g>
<g><path style="opacity:0.204" fill="#d1d1d1" d="M 353.5,15.5 C 352.22,16.9313 350.553,17.5979 348.5,17.5C 349.78,16.0687 351.447,15.4021 353.5,15.5 Z"/></g>
<g><path style="opacity:0.369" fill="#e2e2e2" d="M 348.5,17.5 C 347.486,18.6737 346.153,19.3404 344.5,19.5C 345.287,17.8958 346.62,17.2291 348.5,17.5 Z"/></g>
<g><path style="opacity:0.212" fill="#dbdbdb" d="M 449.5,17.5 C 453.42,18.1266 456.753,19.7933 459.5,22.5C 455.849,21.3411 452.515,19.6744 449.5,17.5 Z"/></g>
<g><path style="opacity:0.259" fill="#d3d3d3" d="M 340.5,21.5 C 339.341,23.2503 337.674,24.2503 335.5,24.5C 336.659,22.7497 338.326,21.7497 340.5,21.5 Z"/></g>
<g><path style="opacity:0.055" fill="#e3e3e3" d="M 461.5,23.5 C 463.027,23.427 464.027,24.0937 464.5,25.5C 462.973,25.573 461.973,24.9063 461.5,23.5 Z"/></g>
<g><path style="opacity:0.22" fill="#d6d6d6" d="M 335.5,24.5 C 334.341,26.2503 332.674,27.2503 330.5,27.5C 331.659,25.7497 333.326,24.7497 335.5,24.5 Z"/></g>
<g><path style="opacity:0.086" fill="#d8d8d8" d="M 464.5,25.5 C 466.027,25.427 467.027,26.0937 467.5,27.5C 465.973,27.573 464.973,26.9063 464.5,25.5 Z"/></g>
<g><path style="opacity:0.063" fill="#d6d6d6" d="M 467.5,27.5 C 469.027,27.427 470.027,28.0937 470.5,29.5C 468.973,29.573 467.973,28.9063 467.5,27.5 Z"/></g>
<g><path style="opacity:0.463" fill="#c9c9c9" d="M 330.5,27.5 C 329.738,29.2624 328.404,30.2624 326.5,30.5C 327.262,28.7376 328.596,27.7376 330.5,27.5 Z"/></g>
<g><path style="opacity:0.024" fill="#e4e4e4" d="M 470.5,29.5 C 472.027,29.427 473.027,30.0937 473.5,31.5C 471.973,31.573 470.973,30.9063 470.5,29.5 Z"/></g>
<g><path style="opacity:0.51" fill="#c1c1c1" d="M 326.5,30.5 C 325.738,32.2624 324.404,33.2624 322.5,33.5C 323.262,31.7376 324.596,30.7376 326.5,30.5 Z"/></g>
<g><path style="opacity:0.027" fill="#e0e0e0" d="M 474.5,32.5 C 476.404,32.7376 477.738,33.7376 478.5,35.5C 476.596,35.2624 475.262,34.2624 474.5,32.5 Z"/></g>
<g><path style="opacity:0.012" fill="#e5e5e5" d="M 480.5,37.5 C 484.167,39.1667 486.833,41.8333 488.5,45.5C 485.5,43.1667 482.833,40.5 480.5,37.5 Z"/></g>
<g><path style="opacity:0.796" fill="#9e9e9e" d="M 322.5,33.5 C 319.769,37.2343 316.436,40.2343 312.5,42.5C 315.231,38.7657 318.564,35.7657 322.5,33.5 Z"/></g>
<g><path style="opacity:0.22" fill="#f1f1f1" d="M 312.5,42.5 C 312.167,43.5 311.5,44.1667 310.5,44.5C 310.5,43.1667 311.167,42.5 312.5,42.5 Z"/></g>
<g><path style="opacity:0.031" fill="#ebebeb" d="M 488.5,45.5 C 489.833,45.5 490.5,46.1667 490.5,47.5C 489.5,47.1667 488.833,46.5 488.5,45.5 Z"/></g>
<g><path style="opacity:0.416" fill="#c1c1c1" d="M 310.5,44.5 C 308.906,47.7642 306.573,50.4309 303.5,52.5C 305.094,49.2358 307.427,46.5691 310.5,44.5 Z"/></g>
<g><path style="opacity:0.345" fill="#c1c1c1" d="M 490.5,47.5 C 492.914,48.9108 494.581,50.9108 495.5,53.5C 493.086,52.0892 491.419,50.0892 490.5,47.5 Z"/></g>
<g><path style="opacity:0.554" fill="#bababa" d="M -0.5,53.5 C 3.5,53.5 7.5,53.5 11.5,53.5C 26.8333,53.5 42.1667,53.5 57.5,53.5C 38.3269,54.288 18.9935,54.9547 -0.5,55.5C -0.5,54.8333 -0.5,54.1667 -0.5,53.5 Z"/></g>
<g><path style="opacity:1" fill="#232323" d="M 235.5,61.5 C 234.508,61.6716 233.842,61.3382 233.5,60.5C 234.814,58.1047 234.814,55.6047 233.5,53C 225.833,52.8333 218.167,52.6667 210.5,52.5C 163.513,54.3885 116.513,55.8885 69.5,57C 123.175,58.0045 176.842,59.1712 230.5,60.5C 212.833,61.1667 195.167,61.8333 177.5,62.5C 162.009,63.4963 146.342,63.8296 130.5,63.5C 98.3427,62.1301 66.0093,61.4634 33.5,61.5C 22.1977,60.59 10.8644,60.2566 -0.5,60.5C -0.5,58.8333 -0.5,57.1667 -0.5,55.5C 18.9935,54.9547 38.3269,54.288 57.5,53.5C 116.119,51.5934 174.785,50.7601 233.5,51C 236.573,54.1073 237.239,57.6073 235.5,61.5 Z"/></g>
<g><path style="opacity:1" fill="#f3f3f3" d="M 233.5,60.5 C 232.5,60.5 231.5,60.5 230.5,60.5C 176.842,59.1712 123.175,58.0045 69.5,57C 116.513,55.8885 163.513,54.3885 210.5,52.5C 218.167,52.6667 225.833,52.8333 233.5,53C 234.814,55.6047 234.814,58.1047 233.5,60.5 Z"/></g>
<g><path style="opacity:0.451" fill="#c8c8c8" d="M 303.5,52.5 C 303.262,54.4044 302.262,55.7377 300.5,56.5C 300.738,54.5956 301.738,53.2623 303.5,52.5 Z"/></g>
<g><path style="opacity:0.722" fill="#b0b0b0" d="M 495.5,53.5 C 497.262,54.2623 498.262,55.5956 498.5,57.5C 496.738,56.7377 495.738,55.4044 495.5,53.5 Z"/></g>
<g><path style="opacity:0.345" fill="#d4d4d4" d="M 300.5,56.5 C 300.262,58.4044 299.262,59.7377 297.5,60.5C 297.738,58.5956 298.738,57.2623 300.5,56.5 Z"/></g>
<g><path style="opacity:0.475" fill="#c8c8c8" d="M 498.5,57.5 C 500.262,58.2623 501.262,59.5956 501.5,61.5C 499.738,60.7377 498.738,59.4044 498.5,57.5 Z"/></g>
<g><path style="opacity:0.148" fill="#f4f4f4" d="M 33.5,61.5 C 66.0093,61.4634 98.3427,62.1301 130.5,63.5C 97.9907,63.5366 65.6573,62.8699 33.5,61.5 Z"/></g>
<g><path style="opacity:0.81" fill="#515151" d="M 230.5,60.5 C 231.5,60.5 232.5,60.5 233.5,60.5C 233.842,61.3382 234.508,61.6716 235.5,61.5C 216.341,62.497 197.007,62.8303 177.5,62.5C 195.167,61.8333 212.833,61.1667 230.5,60.5 Z"/></g>
<g><path style="opacity:0.369" fill="#e2e2e2" d="M 130.5,63.5 C 146.342,63.8296 162.009,63.4963 177.5,62.5C 197.007,62.8303 216.341,62.497 235.5,61.5C 237.239,57.6073 236.573,54.1073 233.5,51C 174.785,50.7601 116.119,51.5934 57.5,53.5C 42.1667,53.5 26.8333,53.5 11.5,53.5C 85.6536,51.0293 159.987,49.8627 234.5,50C 238.277,52.9109 239.444,56.7442 238,61.5C 235.322,63.2443 232.322,64.2443 229,64.5C 196.016,64.1397 163.183,63.8064 130.5,63.5 Z"/></g>
<g><path style="opacity:0.212" fill="#e9e9e9" d="M 297.5,60.5 C 297.573,62.0269 296.906,63.0269 295.5,63.5C 295.427,61.9731 296.094,60.9731 297.5,60.5 Z"/></g>
<g><path style="opacity:0.212" fill="#e8e8e8" d="M 501.5,61.5 C 502.906,61.9731 503.573,62.9731 503.5,64.5C 502.094,64.0269 501.427,63.0269 501.5,61.5 Z"/></g>
<g><path style="opacity:0.165" fill="#ebebeb" d="M 295.5,63.5 C 295.25,65.674 294.25,67.3406 292.5,68.5C 292.75,66.326 293.75,64.6594 295.5,63.5 Z"/></g>
<g><path style="opacity:1" fill="#131313" d="M 383.5,7.5 C 405.515,5.9818 426.848,8.9818 447.5,16.5C 448.492,16.3284 449.158,16.6618 449.5,17.5C 452.515,19.6744 455.849,21.3411 459.5,22.5C 460.492,22.3284 461.158,22.6618 461.5,23.5C 461.973,24.9063 462.973,25.573 464.5,25.5C 464.973,26.9063 465.973,27.573 467.5,27.5C 467.973,28.9063 468.973,29.573 470.5,29.5C 470.973,30.9063 471.973,31.573 473.5,31.5C 474.167,31.5 474.5,31.8333 474.5,32.5C 475.262,34.2624 476.596,35.2624 478.5,35.5C 479.5,35.8333 480.167,36.5 480.5,37.5C 482.833,40.5 485.5,43.1667 488.5,45.5C 488.833,46.5 489.5,47.1667 490.5,47.5C 491.419,50.0892 493.086,52.0892 495.5,53.5C 495.738,55.4044 496.738,56.7377 498.5,57.5C 498.738,59.4044 499.738,60.7377 501.5,61.5C 501.427,63.0269 502.094,64.0269 503.5,64.5C 504.338,64.8417 504.672,65.5084 504.5,66.5C 506.659,72.1511 509.326,77.4844 512.5,82.5C 512.733,85.5418 513.733,88.2084 515.5,90.5C 515.41,93.1522 516.076,95.4855 517.5,97.5C 517.898,102.412 518.898,107.079 520.5,111.5C 520.5,111.833 520.5,112.167 520.5,112.5C 520.5,123.167 520.5,133.833 520.5,144.5C 519.205,148.267 518.539,152.267 518.5,156.5C 517.076,158.515 516.41,160.848 516.5,163.5C 516.737,164.791 516.404,165.791 515.5,166.5C 514.262,168.214 513.595,170.214 513.5,172.5C 511.935,174.509 510.935,176.843 510.5,179.5C 508.326,182.515 506.659,185.849 505.5,189.5C 503.75,190.659 502.75,192.326 502.5,194.5C 501.094,194.973 500.427,195.973 500.5,197.5C 499.094,197.973 498.427,198.973 498.5,200.5C 496.738,201.262 495.738,202.596 495.5,204.5C 495.5,205.167 495.167,205.5 494.5,205.5C 493.167,206.5 491.833,207.5 490.5,208.5C 490.565,208.062 490.399,207.728 490,207.5C 488.242,208.469 487.742,209.636 488.5,211C 484.394,212.381 482.061,215.215 481.5,219.5C 479.251,220.08 477.585,221.413 476.5,223.5C 476.167,224.5 475.5,225.167 474.5,225.5C 472.973,225.427 471.973,226.094 471.5,227.5C 468.634,227.633 466.634,228.966 465.5,231.5C 463.973,231.427 462.973,232.094 462.5,233.5C 462.158,234.338 461.492,234.672 460.5,234.5C 456.415,234.372 453.415,236.039 451.5,239.5C 449.447,239.402 447.78,240.069 446.5,241.5C 446.158,242.338 445.492,242.672 444.5,242.5C 438.843,243.422 433.51,245.089 428.5,247.5C 424.542,247.251 420.876,247.918 417.5,249.5C 403.434,251.106 389.434,250.606 375.5,248C 366.722,245.771 358.055,243.271 349.5,240.5C 346.663,238.033 343.329,236.367 339.5,235.5C 338.508,235.672 337.842,235.338 337.5,234.5C 337.027,233.094 336.027,232.427 334.5,232.5C 334.027,231.094 333.027,230.427 331.5,230.5C 331.027,229.094 330.027,228.427 328.5,228.5C 327.738,226.738 326.404,225.738 324.5,225.5C 323.415,223.413 321.749,222.08 319.5,221.5C 318.5,221.167 317.833,220.5 317.5,219.5C 315.761,216.757 313.427,214.757 310.5,213.5C 310.262,211.596 309.262,210.262 307.5,209.5C 306.167,208.833 305.167,207.833 304.5,206.5C 304.573,204.973 303.906,203.973 302.5,203.5C 301.833,203.5 301.5,203.167 301.5,202.5C 301.262,200.596 300.262,199.262 298.5,198.5C 298.573,196.973 297.906,195.973 296.5,195.5C 296.25,193.326 295.25,191.659 293.5,190.5C 292.662,190.158 292.328,189.492 292.5,188.5C 292.573,186.973 291.906,185.973 290.5,185.5C 290.448,182.654 289.448,180.32 287.5,178.5C 287.448,175.654 286.448,173.32 284.5,171.5C 283.662,171.158 283.328,170.492 283.5,169.5C 282.58,162.543 280.913,155.876 278.5,149.5C 278.546,142.816 278.213,136.149 277.5,129.5C 278.269,120.502 278.936,111.502 279.5,102.5C 279.232,100.901 279.566,99.5676 280.5,98.5C 281.117,98.3893 281.617,98.056 282,97.5C 283.485,92.8924 284.652,88.2258 285.5,83.5C 288.496,80.5026 290.163,76.836 290.5,72.5C 290.66,70.847 291.326,69.5137 292.5,68.5C 294.25,67.3406 295.25,65.674 295.5,63.5C 296.906,63.0269 297.573,62.0269 297.5,60.5C 299.262,59.7377 300.262,58.4044 300.5,56.5C 302.262,55.7377 303.262,54.4044 303.5,52.5C 306.573,50.4309 308.906,47.7642 310.5,44.5C 311.5,44.1667 312.167,43.5 312.5,42.5C 316.436,40.2343 319.769,37.2343 322.5,33.5C 324.404,33.2624 325.738,32.2624 326.5,30.5C 328.404,30.2624 329.738,29.2624 330.5,27.5C 332.674,27.2503 334.341,26.2503 335.5,24.5C 337.674,24.2503 339.341,23.2503 340.5,21.5C 341.514,20.3263 342.847,19.6596 344.5,19.5C 346.153,19.3404 347.486,18.6737 348.5,17.5C 350.553,17.5979 352.22,16.9313 353.5,15.5C 356.443,15.0198 359.11,14.0198 361.5,12.5C 364.152,12.5905 366.485,11.9238 368.5,10.5C 371.428,10.4349 374.095,9.7682 376.5,8.5C 378.607,7.53178 380.941,7.19845 383.5,7.5 Z"/></g>
<g><path style="opacity:1" fill="#d6d4d5" d="M 415.5,242.5 C 406.515,243.166 397.515,243.499 388.5,243.5C 338.616,236.81 305.116,209.81 288,162.5C 287.637,159.456 287.137,156.456 286.5,153.5C 286.435,150.572 285.768,147.905 284.5,145.5C 284.5,143.833 284.5,142.167 284.5,140.5C 284.434,131.148 284.768,121.815 285.5,112.5C 296.661,58.5052 329.327,26.6719 383.5,17C 430.128,12.8576 466.961,29.6909 494,67.5C 518.283,108.276 518.616,149.276 495,190.5C 475.929,218.967 449.429,236.3 415.5,242.5 Z"/></g>
<g><path style="opacity:1" fill="#fdfdfd" d="M 379.5,65.5 C 380.433,68.3702 382.1,70.7036 384.5,72.5C 385.854,76.0317 387.854,79.1984 390.5,82C 370.185,87.4806 357.518,100.314 352.5,120.5C 347.566,118.699 342.899,116.366 338.5,113.5C 338.027,112.094 337.027,111.427 335.5,111.5C 324.537,103.679 313.537,95.8453 302.5,88C 306.263,80.6445 309.597,73.1445 312.5,65.5C 319.551,59.9569 326.218,53.7902 332.5,47C 339.144,41.6934 346.311,37.1934 354,33.5C 355.605,34.1007 356.938,35.1007 358,36.5C 365.03,46.3497 372.197,56.0163 379.5,65.5 Z"/></g>
<g><path style="opacity:1" fill="#1c1c1c" d="M 379.5,65.5 C 372.197,56.0163 365.03,46.3497 358,36.5C 356.938,35.1007 355.605,34.1007 354,33.5C 346.311,37.1934 339.144,41.6934 332.5,47C 326.218,53.7902 319.551,59.9569 312.5,65.5C 322.956,49.6021 336.956,37.9354 354.5,30.5C 355.442,30.6082 356.275,30.9415 357,31.5C 364.769,42.7188 372.269,54.0522 379.5,65.5 Z"/></g>
<g><path style="opacity:1" fill="#585858" d="M 379.5,65.5 C 381.9,67.2964 383.567,69.6298 384.5,72.5C 382.1,70.7036 380.433,68.3702 379.5,65.5 Z"/></g>
<g><path style="opacity:0.286" fill="#d7d7d7" d="M 504.5,66.5 C 508.207,71.2474 510.874,76.5807 512.5,82.5C 509.326,77.4844 506.659,72.1511 504.5,66.5 Z"/></g>
<g><path style="opacity:0.871" fill="#898989" d="M 290.5,72.5 C 290.163,76.836 288.496,80.5026 285.5,83.5C 286.376,79.4179 288.043,75.7512 290.5,72.5 Z"/></g>
<g><path style="opacity:0.785" fill="#b2b2b2" d="M 103.5,79.5 C 87.1667,80.1667 70.8333,80.8333 54.5,81.5C 50.6286,81.185 46.9619,81.5184 43.5,82.5C 37.8698,81.7081 32.2031,81.3748 26.5,81.5C 17.5,81.5 8.5,81.5 -0.5,81.5C -0.5,81.1667 -0.5,80.8333 -0.5,80.5C 34.1589,79.6396 68.8256,79.3063 103.5,79.5 Z"/></g>
<g><path style="opacity:0.994" fill="#111111" d="M -0.5,81.5 C 8.5,81.5 17.5,81.5 26.5,81.5C 17.8955,83.4711 8.89546,84.1377 -0.5,83.5C -0.5,82.8333 -0.5,82.1667 -0.5,81.5 Z"/></g>
<g><path style="opacity:1" fill="#fdfdfd" d="M 96.5,81.5 C 114.512,81.1671 132.512,81.5005 150.5,82.5C 136.516,83.4992 122.516,83.8326 108.5,83.5C 104.5,82.8333 100.5,82.1667 96.5,81.5 Z"/></g>
<g><path style="opacity:1" fill="#474747" d="M 26.5,81.5 C 32.2031,81.3748 37.8698,81.7081 43.5,82.5C 64.8287,83.0725 86.1621,83.4059 107.5,83.5C 107.5,83.8333 107.5,84.1667 107.5,84.5C 71.5,84.5 35.5,84.5 -0.5,84.5C -0.5,84.1667 -0.5,83.8333 -0.5,83.5C 8.89546,84.1377 17.8955,83.4711 26.5,81.5 Z"/></g>
<g><path style="opacity:0.997" fill="#b4b4b4" d="M 43.5,82.5 C 46.9619,81.5184 50.6286,81.185 54.5,81.5C 68.5,81.5 82.5,81.5 96.5,81.5C 100.5,82.1667 104.5,82.8333 108.5,83.5C 108.167,83.5 107.833,83.5 107.5,83.5C 86.1621,83.4059 64.8287,83.0725 43.5,82.5 Z"/></g>
<g><path style="opacity:0.734" fill="#686868" d="M 103.5,79.5 C 119.503,79.3334 135.503,79.5001 151.5,80C 152.056,80.3826 152.389,80.8826 152.5,81.5C 152.586,82.4959 152.252,83.3292 151.5,84C 136.837,84.4999 122.17,84.6666 107.5,84.5C 107.5,84.1667 107.5,83.8333 107.5,83.5C 107.833,83.5 108.167,83.5 108.5,83.5C 122.516,83.8326 136.516,83.4992 150.5,82.5C 132.512,81.5005 114.512,81.1671 96.5,81.5C 82.5,81.5 68.5,81.5 54.5,81.5C 70.8333,80.8333 87.1667,80.1667 103.5,79.5 Z"/></g>
<g><path style="opacity:0.211" fill="#eaeaea" d="M 152.5,81.5 C 153.791,82.5417 153.791,83.7083 152.5,85C 101.501,85.5 50.5011,85.6667 -0.5,85.5C -0.5,85.1667 -0.5,84.8333 -0.5,84.5C 35.5,84.5 71.5,84.5 107.5,84.5C 122.17,84.6666 136.837,84.4999 151.5,84C 152.252,83.3292 152.586,82.4959 152.5,81.5 Z"/></g>
<g><path style="opacity:0.157" fill="#dedede" d="M 512.5,82.5 C 514.267,84.7916 515.267,87.4582 515.5,90.5C 513.733,88.2084 512.733,85.5418 512.5,82.5 Z"/></g>
<g><path style="opacity:0.776" fill="#9c9c9c" d="M 285.5,83.5 C 284.652,88.2258 283.485,92.8924 282,97.5C 281.617,98.056 281.117,98.3893 280.5,98.5C 281.196,93.0787 282.863,88.0787 285.5,83.5 Z"/></g>
<g><path style="opacity:1" fill="#1f1f1f" d="M 312.5,65.5 C 309.597,73.1445 306.263,80.6445 302.5,88C 313.537,95.8453 324.537,103.679 335.5,111.5C 323.304,104.814 311.471,97.4812 300,89.5C 302.31,80.547 306.477,72.547 312.5,65.5 Z"/></g>
<g><path style="opacity:0.133" fill="#e4e4e4" d="M 515.5,90.5 C 516.924,92.5145 517.59,94.8478 517.5,97.5C 516.076,95.4855 515.41,93.1522 515.5,90.5 Z"/></g>
<g><path style="opacity:0.475" fill="#c8c8c8" d="M 151.5,95.5 C 157.69,95.1771 163.69,95.5104 169.5,96.5C 112.831,96.9923 56.1644,97.659 -0.5,98.5C -0.5,98.1667 -0.5,97.8333 -0.5,97.5C 50.1304,95.8174 100.797,95.1508 151.5,95.5 Z"/></g>
<g><path style="opacity:0.082" fill="#f3f3f3" d="M 151.5,95.5 C 157.653,94.3467 163.986,94.18 170.5,95C 174.377,98.5912 175.377,102.758 173.5,107.5C 173.802,104.941 173.468,102.607 172.5,100.5C 171.5,99.1667 170.5,97.8333 169.5,96.5C 163.69,95.5104 157.69,95.1771 151.5,95.5 Z"/></g>
<g><path style="opacity:0.141" fill="#d7d7d7" d="M 517.5,97.5 C 519.419,101.857 520.419,106.523 520.5,111.5C 518.898,107.079 517.898,102.412 517.5,97.5 Z"/></g>
<g><path style="opacity:1" fill="#171717" d="M 169.5,96.5 C 170.5,97.8333 171.5,99.1667 172.5,100.5C 172.756,102.792 172.423,104.959 171.5,107C 151.996,107.168 132.662,107.668 113.5,108.5C 97.8333,108.5 82.1667,108.5 66.5,108.5C 44.333,107.608 21.9996,106.942 -0.5,106.5C -0.5,103.833 -0.5,101.167 -0.5,98.5C 56.1644,97.659 112.831,96.9923 169.5,96.5 Z"/></g>
<g><path style="opacity:1" fill="#979797" d="M 23.5,101.5 C 29.1667,102.167 34.8333,102.833 40.5,103.5C 28.8143,103.832 17.1477,103.499 5.5,102.5C 11.4632,101.504 17.4632,101.171 23.5,101.5 Z"/></g>
<g><path style="opacity:0.917" fill="#ececec" d="M 40.5,103.5 C 34.8333,102.833 29.1667,102.167 23.5,101.5C 48.8511,100.99 74.1844,100.157 99.5,99C 122.833,98.3333 146.167,98.3333 169.5,99C 170.423,101.041 170.756,103.208 170.5,105.5C 127.159,105.273 83.8254,104.607 40.5,103.5 Z"/></g>
<g><path style="opacity:0.53" fill="#c4c4c4" d="M -0.5,107.5 C -0.5,107.167 -0.5,106.833 -0.5,106.5C 21.9996,106.942 44.333,107.608 66.5,108.5C 52.5,108.5 38.5,108.5 24.5,108.5C 16.1422,108.621 7.80884,108.288 -0.5,107.5 Z"/></g>
<g><path style="opacity:0.572" fill="#aeaeae" d="M 172.5,100.5 C 173.468,102.607 173.802,104.941 173.5,107.5C 173.158,108.338 172.492,108.672 171.5,108.5C 152.167,108.5 132.833,108.5 113.5,108.5C 132.662,107.668 151.996,107.168 171.5,107C 172.423,104.959 172.756,102.792 172.5,100.5 Z"/></g>
<g><path style="opacity:0.062" fill="#f2f2f2" d="M 24.5,108.5 C 38.5,108.5 52.5,108.5 66.5,108.5C 82.1667,108.5 97.8333,108.5 113.5,108.5C 132.833,108.5 152.167,108.5 171.5,108.5C 149.994,109.234 128.328,109.901 106.5,110.5C 79.0565,110.407 51.7232,109.74 24.5,108.5 Z"/></g>
<g><path style="opacity:1" fill="#e7e6e6" d="M 413.5,159.5 C 407.699,161.526 401.699,162.526 395.5,162.5C 377.959,160.113 367.959,150.113 365.5,132.5C 365.518,127.077 366.185,121.744 367.5,116.5C 368.674,115.486 369.34,114.153 369.5,112.5C 381.396,97.2749 396.396,93.4415 414.5,101C 428.638,110.122 433.804,122.955 430,139.5C 426.81,148.18 421.31,154.847 413.5,159.5 Z"/></g>
<g><path style="opacity:1" fill="#525252" d="M 335.5,111.5 C 337.027,111.427 338.027,112.094 338.5,113.5C 336.973,113.573 335.973,112.906 335.5,111.5 Z"/></g>
<g><path style="opacity:1" fill="#201f20" d="M 413.5,159.5 C 421.31,154.847 426.81,148.18 430,139.5C 433.804,122.955 428.638,110.122 414.5,101C 396.396,93.4415 381.396,97.2749 369.5,112.5C 377.31,98.43 389.31,92.5966 405.5,95C 426.541,100.905 435.708,114.739 433,136.5C 430.202,147.453 423.702,155.12 413.5,159.5 Z"/></g>
<g><path style="opacity:1" fill="#393839" d="M 369.5,112.5 C 369.34,114.153 368.674,115.486 367.5,116.5C 367.229,114.62 367.896,113.287 369.5,112.5 Z"/></g>
<g><path style="opacity:1" fill="#141313" d="M 419.5,150.5 C 418.999,148.871 418.999,147.371 419.5,146C 423.01,143.831 425.177,140.664 426,136.5C 428.12,119.244 420.953,107.744 404.5,102C 399.12,101.404 393.787,101.738 388.5,103C 387.874,103.75 387.374,104.584 387,105.5C 386.282,104.549 385.449,104.383 384.5,105C 382.5,106.333 380.5,107.667 378.5,109C 377.378,111.124 375.878,112.957 374,114.5C 373.601,114.272 373.435,113.938 373.5,113.5C 384.915,97.7813 399.249,94.6147 416.5,104C 432.592,118.707 433.592,134.207 419.5,150.5 Z"/></g>
<g><path style="opacity:0.215" fill="#d7d7d7" d="M 279.5,102.5 C 278.936,111.502 278.269,120.502 277.5,129.5C 278.213,136.149 278.546,142.816 278.5,149.5C 275.641,133.771 275.975,118.104 279.5,102.5 Z"/></g>
<g><path style="opacity:1" fill="#828282" d="M 367.5,116.5 C 366.185,121.744 365.518,127.077 365.5,132.5C 364.345,130.26 364.179,126.593 365,121.5C 365.374,119.509 366.207,117.842 367.5,116.5 Z"/></g>
<g><path style="opacity:1" fill="#282224" d="M 419.5,150.5 C 413.681,156.389 406.515,159.056 398,158.5C 383.072,157.696 373.739,150.03 370,135.5C 369.333,130.5 369.333,125.5 370,120.5C 370.67,117.826 371.837,115.493 373.5,113.5C 373.435,113.938 373.601,114.272 374,114.5C 375.878,112.957 377.378,111.124 378.5,109C 380.5,107.667 382.5,106.333 384.5,105C 385.449,104.383 386.282,104.549 387,105.5C 387.374,104.584 387.874,103.75 388.5,103C 393.787,101.738 399.12,101.404 404.5,102C 420.953,107.744 428.12,119.244 426,136.5C 425.177,140.664 423.01,143.831 419.5,146C 418.999,147.371 418.999,148.871 419.5,150.5 Z"/></g>
<g><path style="opacity:1" fill="#0c090a" d="M 409.5,146.5 C 421.459,135.379 421.459,124.212 409.5,113C 402.737,109.007 395.737,108.507 388.5,111.5C 387.262,111.19 387.262,110.69 388.5,110C 401.388,104.358 411.555,107.525 419,119.5C 422.808,130.406 420.308,139.573 411.5,147C 410.563,147.692 409.897,147.525 409.5,146.5 Z"/></g>
<g><path style="opacity:1" fill="#f9f8f9" d="M 409.5,146.5 C 395.442,153.381 385.276,149.714 379,135.5C 376.928,125.326 380.095,117.326 388.5,111.5C 395.737,108.507 402.737,109.007 409.5,113C 421.459,124.212 421.459,135.379 409.5,146.5 Z"/></g>
<g><path style="opacity:1" fill="#7a797a" d="M 285.5,112.5 C 284.768,121.815 284.434,131.148 284.5,140.5C 283.835,137.016 283.501,133.349 283.5,129.5C 283.349,123.591 284.016,117.925 285.5,112.5 Z"/></g>
<g><path style="opacity:0.262" fill="#ededed" d="M 135.5,127.5 C 134.833,127.5 134.5,127.833 134.5,128.5C 109.5,128.5 84.5,128.5 59.5,128.5C 84.3725,127.824 109.372,127.158 134.5,126.5C 135.107,126.624 135.44,126.957 135.5,127.5 Z"/></g>
<g><path style="opacity:0.767" fill="#c0c0c0" d="M -0.5,128.5 C 17.8333,128.5 36.1667,128.5 54.5,128.5C 54.5,128.833 54.5,129.167 54.5,129.5C 37.1494,129.384 19.8161,129.884 2.5,131C 21.8305,131.5 41.1638,131.667 60.5,131.5C 74.1488,132.338 87.8155,132.671 101.5,132.5C 101.5,132.833 101.5,133.167 101.5,133.5C 67.4969,133.421 33.4969,133.087 -0.5,132.5C -0.5,131.167 -0.5,129.833 -0.5,128.5 Z"/></g>
<g><path style="opacity:0.991" fill="#090909" d="M 54.5,129.5 C 56.8984,129.259 58.8984,129.926 60.5,131.5C 41.1638,131.667 21.8305,131.5 2.5,131C 19.8161,129.884 37.1494,129.384 54.5,129.5 Z"/></g>
<g><path style="opacity:1" fill="#fdfdfd" d="M 122.5,129.5 C 137.167,129.5 151.833,129.5 166.5,129.5C 167.675,129.281 168.675,129.614 169.5,130.5C 156.851,131.499 144.184,131.832 131.5,131.5C 131.167,131.5 130.833,131.5 130.5,131.5C 127.833,130.833 125.167,130.167 122.5,129.5 Z"/></g>
<g><path style="opacity:1" fill="#3c3c3c" d="M 54.5,129.5 C 54.5,129.167 54.5,128.833 54.5,128.5C 56.1667,128.5 57.8333,128.5 59.5,128.5C 84.5,128.5 109.5,128.5 134.5,128.5C 145.346,128.172 156.013,128.506 166.5,129.5C 151.833,129.5 137.167,129.5 122.5,129.5C 107.163,129.333 91.8297,129.5 76.5,130C 94.4826,131.138 112.483,131.638 130.5,131.5C 130.833,131.5 131.167,131.5 131.5,131.5C 131.5,131.833 131.5,132.167 131.5,132.5C 121.5,132.5 111.5,132.5 101.5,132.5C 87.8155,132.671 74.1488,132.338 60.5,131.5C 58.8984,129.926 56.8984,129.259 54.5,129.5 Z"/></g>
<g><path style="opacity:1" fill="#bebebe" d="M 122.5,129.5 C 125.167,130.167 127.833,130.833 130.5,131.5C 112.483,131.638 94.4826,131.138 76.5,130C 91.8297,129.5 107.163,129.333 122.5,129.5 Z"/></g>
<g><path style="opacity:0.733" fill="#9a9a9a" d="M 170.5,128.5 C 171.684,129.688 171.684,130.855 170.5,132C 157.504,132.5 144.504,132.667 131.5,132.5C 131.5,132.167 131.5,131.833 131.5,131.5C 144.184,131.832 156.851,131.499 169.5,130.5C 168.675,129.614 167.675,129.281 166.5,129.5C 156.013,128.506 145.346,128.172 134.5,128.5C 134.5,127.833 134.833,127.5 135.5,127.5C 146.454,126.378 157.454,126.212 168.5,127C 169.416,127.278 170.082,127.778 170.5,128.5 Z"/></g>
<g><path style="opacity:0.571" fill="#a7a7a7" d="M 101.5,133.5 C 101.5,133.167 101.5,132.833 101.5,132.5C 111.5,132.5 121.5,132.5 131.5,132.5C 131.5,132.833 131.5,133.167 131.5,133.5C 121.344,133.68 111.344,133.68 101.5,133.5 Z"/></g>
<g><path style="opacity:0.219" fill="#efefef" d="M 170.5,128.5 C 172.71,129.455 173.043,130.955 171.5,133C 158.171,133.5 144.837,133.667 131.5,133.5C 131.5,133.167 131.5,132.833 131.5,132.5C 144.504,132.667 157.504,132.5 170.5,132C 171.684,130.855 171.684,129.688 170.5,128.5 Z"/></g>
<g><path style="opacity:0.989" fill="#fdfdfd" d="M 459.5,145.5 C 462.65,148.579 466.317,150.913 470.5,152.5C 470.973,153.906 471.973,154.573 473.5,154.5C 480.804,159.824 488.137,165.157 495.5,170.5C 484.293,194.975 466.793,213.308 443,225.5C 437.98,220.306 433.48,214.64 429.5,208.5C 425.519,202.525 421.186,196.858 416.5,191.5C 413.435,186.385 410.102,181.385 406.5,176.5C 426.47,170.364 439.636,157.364 446,137.5C 450.473,140.316 454.973,142.982 459.5,145.5 Z"/></g>
<g><path style="opacity:0.133" fill="#d1d1d1" d="M 520.5,112.5 C 523.116,123.17 523.116,133.836 520.5,144.5C 520.5,133.833 520.5,123.167 520.5,112.5 Z"/></g>
<g><path style="opacity:0.965" fill="#676767" d="M 459.5,145.5 C 463.683,147.087 467.35,149.421 470.5,152.5C 466.317,150.913 462.65,148.579 459.5,145.5 Z"/></g>
<g><path style="opacity:0.231" fill="#dadada" d="M 520.5,144.5 C 520.656,148.764 519.989,152.764 518.5,156.5C 518.539,152.267 519.205,148.267 520.5,144.5 Z"/></g>
<g><path style="opacity:0.599" fill="#c4c4c4" d="M 244.5,150.5 C 228.578,149.516 212.578,149.183 196.5,149.5C 182.167,149.5 167.833,149.5 153.5,149.5C 183.013,148.584 212.679,148.084 242.5,148C 243.756,148.417 244.423,149.25 244.5,150.5 Z"/></g>
<g><path style="opacity:0.628" fill="#979797" d="M 153.5,149.5 C 167.833,149.5 182.167,149.5 196.5,149.5C 196.5,149.833 196.5,150.167 196.5,150.5C 193.098,150.342 189.764,150.676 186.5,151.5C 161.668,150.773 136.668,150.773 111.5,151.5C 111.5,151.167 111.5,150.833 111.5,150.5C 125.323,149.504 139.323,149.171 153.5,149.5 Z"/></g>
<g><path style="opacity:1" fill="#636162" d="M 284.5,145.5 C 285.768,147.905 286.435,150.572 286.5,153.5C 284.96,151.162 284.294,148.495 284.5,145.5 Z"/></g>
<g><path style="opacity:0.286" fill="#f3f3f3" d="M 111.5,150.5 C 111.5,150.833 111.5,151.167 111.5,151.5C 98.6557,151.171 85.989,151.505 73.5,152.5C 54.8261,152.509 36.1595,152.843 17.5,153.5C 14.1501,153.335 10.8168,153.502 7.5,154C 10.0356,154.186 12.369,154.686 14.5,155.5C 11.5525,155.777 8.71914,155.444 6,154.5C 5.83333,154.167 5.66667,153.833 5.5,153.5C 7.4233,152.692 9.4233,152.192 11.5,152C 44.8327,151.389 78.1661,150.889 111.5,150.5 Z"/></g>
<g><path style="opacity:1" fill="#212121" d="M 186.5,151.5 C 164.158,152.059 141.825,152.893 119.5,154C 132.673,154.169 145.673,154.669 158.5,155.5C 130.105,155.128 101.772,154.128 73.5,152.5C 85.989,151.505 98.6557,151.171 111.5,151.5C 136.668,150.773 161.668,150.773 186.5,151.5 Z"/></g>
<g><path style="opacity:0.997" fill="#ededed" d="M 196.5,150.5 C 211.837,150.333 227.17,150.5 242.5,151C 244.078,153.339 243.745,155.172 241.5,156.5C 213.834,156.12 186.167,155.787 158.5,155.5C 145.673,154.669 132.673,154.169 119.5,154C 141.825,152.893 164.158,152.059 186.5,151.5C 189.764,150.676 193.098,150.342 196.5,150.5 Z"/></g>
<g><path style="opacity:0.999" fill="#0f0f0f" d="M 73.5,152.5 C 101.772,154.128 130.105,155.128 158.5,155.5C 186.167,155.787 213.834,156.12 241.5,156.5C 241.5,156.833 241.5,157.167 241.5,157.5C 227.656,157.171 213.99,157.504 200.5,158.5C 177.167,158.167 153.833,157.833 130.5,157.5C 116.87,156.554 103.203,156.22 89.5,156.5C 65.4976,155.57 41.4976,154.57 17.5,153.5C 36.1595,152.843 54.8261,152.509 73.5,152.5 Z"/></g>
<g><path style="opacity:1" fill="#414141" d="M 470.5,152.5 C 472.027,152.427 473.027,153.094 473.5,154.5C 471.973,154.573 470.973,153.906 470.5,152.5 Z"/></g>
<g><path style="opacity:0.902" fill="#272727" d="M 196.5,150.5 C 196.5,150.167 196.5,149.833 196.5,149.5C 212.578,149.183 228.578,149.516 244.5,150.5C 245.323,152.455 245.49,154.455 245,156.5C 243.989,157.337 242.822,157.67 241.5,157.5C 241.5,157.167 241.5,156.833 241.5,156.5C 243.745,155.172 244.078,153.339 242.5,151C 227.17,150.5 211.837,150.333 196.5,150.5 Z"/></g>
<g><path style="opacity:0.751" fill="#939393" d="M 17.5,153.5 C 41.4976,154.57 65.4976,155.57 89.5,156.5C 64.3278,156.831 39.3278,156.498 14.5,155.5C 12.369,154.686 10.0356,154.186 7.5,154C 10.8168,153.502 14.1501,153.335 17.5,153.5 Z"/></g>
<g><path style="opacity:0.026" fill="#dfdfdf" d="M 89.5,156.5 C 103.203,156.22 116.87,156.554 130.5,157.5C 130.5,157.833 130.5,158.167 130.5,158.5C 119.828,158.667 109.161,158.5 98.5,158C 95.3054,157.819 92.3054,157.319 89.5,156.5 Z"/></g>
<g><path style="opacity:0.449" fill="#c3c3c3" d="M 244.5,150.5 C 245.117,150.611 245.617,150.944 246,151.5C 246.667,153.5 246.667,155.5 246,157.5C 243.733,158.289 241.4,158.956 239,159.5C 226.204,158.528 213.371,158.195 200.5,158.5C 213.99,157.504 227.656,157.171 241.5,157.5C 242.822,157.67 243.989,157.337 245,156.5C 245.49,154.455 245.323,152.455 244.5,150.5 Z"/></g>
<g><path style="opacity:0.26" fill="#dbdbdb" d="M 130.5,158.5 C 130.5,158.167 130.5,157.833 130.5,157.5C 153.833,157.833 177.167,158.167 200.5,158.5C 177.335,159.213 154.002,159.213 130.5,158.5 Z"/></g>
<g><path style="opacity:0.063" fill="#e5e5e5" d="M 518.5,156.5 C 518.59,159.152 517.924,161.485 516.5,163.5C 516.41,160.848 517.076,158.515 518.5,156.5 Z"/></g>
<g><path style="opacity:0.282" fill="#d5d5d5" d="M 278.5,149.5 C 280.913,155.876 282.58,162.543 283.5,169.5C 280.917,163.17 279.251,156.503 278.5,149.5 Z"/></g>
<g><path style="opacity:1" fill="#817f80" d="M 413.5,159.5 C 411.266,161.446 408.599,162.613 405.5,163C 400.022,163.889 396.689,163.722 395.5,162.5C 401.699,162.526 407.699,161.526 413.5,159.5 Z"/></g>
<g><path style="opacity:0.004" fill="#e4e4e4" d="M 515.5,166.5 C 515.741,168.898 515.074,170.898 513.5,172.5C 513.595,170.214 514.262,168.214 515.5,166.5 Z"/></g>
<g><path style="opacity:0.29" fill="#c0c0c0" d="M 284.5,171.5 C 286.448,173.32 287.448,175.654 287.5,178.5C 285.707,176.574 284.707,174.241 284.5,171.5 Z"/></g>
<g><path style="opacity:0.118" fill="#e4e4e4" d="M 513.5,172.5 C 513.448,175.346 512.448,177.68 510.5,179.5C 510.935,176.843 511.935,174.509 513.5,172.5 Z"/></g>
<g><path style="opacity:0.221" fill="#e0e0e0" d="M 142.5,194.5 C 142.5,194.167 142.5,193.833 142.5,193.5C 172.496,192.87 202.496,192.37 232.5,192C 234.077,188.518 233.077,185.852 229.5,184C 205.485,183.239 181.485,183.405 157.5,184.5C 131.833,184.5 106.167,184.5 80.5,184.5C 130.329,183.037 180.329,182.537 230.5,183C 235.268,186.528 235.601,190.195 231.5,194C 201.835,194.5 172.169,194.667 142.5,194.5 Z"/></g>
<g><path style="opacity:0.176" fill="#e6e6e6" d="M 510.5,179.5 C 509.873,183.42 508.207,186.753 505.5,189.5C 506.659,185.849 508.326,182.515 510.5,179.5 Z"/></g>
<g><path style="opacity:0.322" fill="#bfbfbf" d="M 287.5,178.5 C 289.448,180.32 290.448,182.654 290.5,185.5C 288.707,183.574 287.707,181.241 287.5,178.5 Z"/></g>
<g><path style="opacity:0.897" fill="#3d3d3d" d="M 80.5,185.5 C 80.5,185.167 80.5,184.833 80.5,184.5C 106.167,184.5 131.833,184.5 157.5,184.5C 177.993,185.497 198.66,185.831 219.5,185.5C 194.005,186.498 168.339,186.831 142.5,186.5C 122.007,185.503 101.34,185.169 80.5,185.5 Z"/></g>
<g><path style="opacity:0.233" fill="#efefef" d="M 80.5,184.5 C 80.5,184.833 80.5,185.167 80.5,185.5C 53.4936,185.431 26.4936,185.764 -0.5,186.5C -0.5,186.167 -0.5,185.833 -0.5,185.5C 26.4933,184.749 53.4933,184.415 80.5,184.5 Z"/></g>
<g><path style="opacity:0.998" fill="#121212" d="M 142.5,193.5 C 112.504,192.905 82.5036,192.571 52.5,192.5C 34.861,191.555 17.1944,191.222 -0.5,191.5C -0.5,189.833 -0.5,188.167 -0.5,186.5C 26.4936,185.764 53.4936,185.431 80.5,185.5C 101.34,185.169 122.007,185.503 142.5,186.5C 107.108,185.884 71.7749,186.717 36.5,189C 101.163,190.167 165.83,191 230.5,191.5C 230.785,189.712 230.452,188.045 229.5,186.5C 226.242,185.583 222.909,185.249 219.5,185.5C 198.66,185.831 177.993,185.497 157.5,184.5C 181.485,183.405 205.485,183.239 229.5,184C 233.077,185.852 234.077,188.518 232.5,192C 202.496,192.37 172.496,192.87 142.5,193.5 Z"/></g>
<g><path style="opacity:0.914" fill="#eaeaea" d="M 219.5,185.5 C 222.909,185.249 226.242,185.583 229.5,186.5C 230.452,188.045 230.785,189.712 230.5,191.5C 165.83,191 101.163,190.167 36.5,189C 71.7749,186.717 107.108,185.884 142.5,186.5C 168.339,186.831 194.005,186.498 219.5,185.5 Z"/></g>
<g><path style="opacity:0.263" fill="#dadada" d="M 290.5,185.5 C 291.906,185.973 292.573,186.973 292.5,188.5C 291.094,188.027 290.427,187.027 290.5,185.5 Z"/></g>
<g><path style="opacity:0.22" fill="#dddddd" d="M 505.5,189.5 C 505.25,191.674 504.25,193.341 502.5,194.5C 502.75,192.326 503.75,190.659 505.5,189.5 Z"/></g>
<g><path style="opacity:0.03" fill="#dbdbdb" d="M -0.5,192.5 C -0.5,192.167 -0.5,191.833 -0.5,191.5C 17.1944,191.222 34.861,191.555 52.5,192.5C 52.5,192.833 52.5,193.167 52.5,193.5C 34.8098,193.763 17.1432,193.43 -0.5,192.5 Z"/></g>
<g><path style="opacity:0.406" fill="#b8b8b8" d="M 52.5,193.5 C 52.5,193.167 52.5,192.833 52.5,192.5C 82.5036,192.571 112.504,192.905 142.5,193.5C 142.5,193.833 142.5,194.167 142.5,194.5C 112.503,193.945 82.503,193.611 52.5,193.5 Z"/></g>
<g><path style="opacity:0.024" fill="#eaeaea" d="M 293.5,190.5 C 295.25,191.659 296.25,193.326 296.5,195.5C 294.75,194.341 293.75,192.674 293.5,190.5 Z"/></g>
<g><path style="opacity:0.035" fill="#e8e8e8" d="M 502.5,194.5 C 502.573,196.027 501.906,197.027 500.5,197.5C 500.427,195.973 501.094,194.973 502.5,194.5 Z"/></g>
<g><path style="opacity:0.012" fill="#e9e9e9" d="M 296.5,195.5 C 297.906,195.973 298.573,196.973 298.5,198.5C 297.094,198.027 296.427,197.027 296.5,195.5 Z"/></g>
<g><path style="opacity:0.043" fill="#eaeaea" d="M 500.5,197.5 C 500.573,199.027 499.906,200.027 498.5,200.5C 498.427,198.973 499.094,197.973 500.5,197.5 Z"/></g>
<g><path style="opacity:0.008" fill="#d6d6d6" d="M 298.5,198.5 C 300.262,199.262 301.262,200.596 301.5,202.5C 299.738,201.738 298.738,200.404 298.5,198.5 Z"/></g>
<g><path style="opacity:0.008" fill="#efefef" d="M 498.5,200.5 C 498.262,202.404 497.262,203.738 495.5,204.5C 495.738,202.596 496.738,201.262 498.5,200.5 Z"/></g>
<g><path style="opacity:0.992" fill="#4a4a4a" d="M 416.5,191.5 C 421.186,196.858 425.519,202.525 429.5,208.5C 428.833,208.5 428.5,208.833 428.5,209.5C 424.115,203.777 420.115,197.777 416.5,191.5 Z"/></g>
<g><path style="opacity:0.039" fill="#e2e2e2" d="M 302.5,203.5 C 303.906,203.973 304.573,204.973 304.5,206.5C 303.094,206.027 302.427,205.027 302.5,203.5 Z"/></g>
<g><path style="opacity:0.078" fill="#e3e3e3" d="M 494.5,205.5 C 493.92,207.749 492.587,209.415 490.5,210.5C 490.5,209.833 490.5,209.167 490.5,208.5C 491.833,207.5 493.167,206.5 494.5,205.5 Z"/></g>
<g><path style="opacity:0.008" fill="#e6e6e6" d="M 307.5,209.5 C 309.262,210.262 310.262,211.596 310.5,213.5C 308.738,212.738 307.738,211.404 307.5,209.5 Z"/></g>
<g><path style="opacity:0.991" fill="#525252" d="M 490.5,208.5 C 490.5,209.167 490.5,209.833 490.5,210.5C 487.833,213.833 484.833,216.833 481.5,219.5C 482.061,215.215 484.394,212.381 488.5,211C 487.742,209.636 488.242,208.469 490,207.5C 490.399,207.728 490.565,208.062 490.5,208.5 Z"/></g>
<g><path style="opacity:0.353" fill="#dcdcdc" d="M 310.5,213.5 C 313.427,214.757 315.761,216.757 317.5,219.5C 314.573,218.243 312.239,216.243 310.5,213.5 Z"/></g>
<g><path style="opacity:0.996" fill="#191919" d="M 473.5,154.5 C 481.983,158.909 489.983,164.076 497.5,170C 486.915,196.753 468.582,216.253 442.5,228.5C 437.104,222.709 432.437,216.376 428.5,209.5C 428.5,208.833 428.833,208.5 429.5,208.5C 433.48,214.64 437.98,220.306 443,225.5C 466.793,213.308 484.293,194.975 495.5,170.5C 488.137,165.157 480.804,159.824 473.5,154.5 Z"/></g>
<g><path style="opacity:0.012" fill="#ececec" d="M 481.5,219.5 C 480.415,221.587 478.749,222.92 476.5,223.5C 477.585,221.413 479.251,220.08 481.5,219.5 Z"/></g>
<g><path style="opacity:0.42" fill="#c3c3c3" d="M 319.5,221.5 C 321.749,222.08 323.415,223.413 324.5,225.5C 322.251,224.92 320.585,223.587 319.5,221.5 Z"/></g>
<g><path style="opacity:0.69" fill="#b2b2b2" d="M 324.5,225.5 C 326.404,225.738 327.738,226.738 328.5,228.5C 326.596,228.262 325.262,227.262 324.5,225.5 Z"/></g>
<g><path style="opacity:0.016" fill="#f3f3f3" d="M 474.5,225.5 C 474.027,226.906 473.027,227.573 471.5,227.5C 471.973,226.094 472.973,225.427 474.5,225.5 Z"/></g>
<g><path style="opacity:0.047" fill="#c5c5c5" d="M 471.5,227.5 C 469.853,229.326 467.853,230.66 465.5,231.5C 466.634,228.966 468.634,227.633 471.5,227.5 Z"/></g>
<g><path style="opacity:0.325" fill="#c0c0c0" d="M 328.5,228.5 C 330.027,228.427 331.027,229.094 331.5,230.5C 329.973,230.573 328.973,229.906 328.5,228.5 Z"/></g>
<g><path style="opacity:0.537" fill="#c8c8c8" d="M 331.5,230.5 C 333.027,230.427 334.027,231.094 334.5,232.5C 332.973,232.573 331.973,231.906 331.5,230.5 Z"/></g>
<g><path style="opacity:0.027" fill="#ebebeb" d="M 465.5,231.5 C 465.027,232.906 464.027,233.573 462.5,233.5C 462.973,232.094 463.973,231.427 465.5,231.5 Z"/></g>
<g><path style="opacity:0.235" fill="#dadada" d="M 334.5,232.5 C 336.027,232.427 337.027,233.094 337.5,234.5C 335.973,234.573 334.973,233.906 334.5,232.5 Z"/></g>
<g><path style="opacity:0.843" fill="#929292" d="M 460.5,234.5 C 457.992,236.924 454.992,238.59 451.5,239.5C 453.415,236.039 456.415,234.372 460.5,234.5 Z"/></g>
<g><path style="opacity:0.451" fill="#bcbcbc" d="M 339.5,235.5 C 343.329,236.367 346.663,238.033 349.5,240.5C 345.671,239.633 342.337,237.967 339.5,235.5 Z"/></g>
<g><path style="opacity:0.208" fill="#e2e2e2" d="M 451.5,239.5 C 450.22,240.931 448.553,241.598 446.5,241.5C 447.78,240.069 449.447,239.402 451.5,239.5 Z"/></g>
<g><path style="opacity:1" fill="#5b5b5b" d="M 415.5,242.5 C 410.243,243.975 404.743,244.642 399,244.5C 395.317,244.499 391.817,244.165 388.5,243.5C 397.515,243.499 406.515,243.166 415.5,242.5 Z"/></g>
<g><path style="opacity:0.243" fill="#d1d1d1" d="M 349.5,240.5 C 358.055,243.271 366.722,245.771 375.5,248C 389.434,250.606 403.434,251.106 417.5,249.5C 399.051,252.754 380.718,251.587 362.5,246C 357.78,244.824 353.446,242.99 349.5,240.5 Z"/></g>
<g><path style="opacity:0.231" fill="#cfcfcf" d="M 444.5,242.5 C 439.552,245.076 434.219,246.743 428.5,247.5C 433.51,245.089 438.843,243.422 444.5,242.5 Z"/></g>
<g><path style="opacity:0.235" fill="#d2d2d2" d="M 428.5,247.5 C 425.124,249.082 421.458,249.749 417.5,249.5C 420.876,247.918 424.542,247.251 428.5,247.5 Z"/></g>
</svg>
