<?xml version="1.0" encoding="UTF-8"?>
<!DOCTYPE svg PUBLIC "-//W3C//DTD SVG 1.1//EN" "http://www.w3.org/Graphics/SVG/1.1/DTD/svg11.dtd">
<svg xmlns="http://www.w3.org/2000/svg" version="1.1" width="492px" height="616px" style="shape-rendering:geometricPrecision; text-rendering:geometricPrecision; image-rendering:optimizeQuality; fill-rule:evenodd; clip-rule:evenodd" xmlns:xlink="http://www.w3.org/1999/xlink">
<g><path style="opacity:1" fill="#151615" d="M 402.5,23.5 C 402.5,29.1667 402.5,34.8333 402.5,40.5C 408.5,40.5 414.5,40.5 420.5,40.5C 422.074,40.9371 423.241,41.9371 424,43.5C 424.499,49.4908 424.666,55.4908 424.5,61.5C 430.842,61.3338 437.175,61.5005 443.5,62C 444.893,63.1711 445.727,64.6711 446,66.5C 446.996,244.222 446.663,421.889 445,599.5C 444.5,600 444,600.5 443.5,601C 319.833,601.667 196.167,601.667 72.5,601C 69.9648,600.072 68.9648,598.238 69.5,595.5C 69.5,590.167 69.5,584.833 69.5,579.5C 63.5,579.5 57.5,579.5 51.5,579.5C 49.5,579.5 48.5,578.5 48.5,576.5C 48.5,570.5 48.5,564.5 48.5,558.5C 43.1667,558.5 37.8333,558.5 32.5,558.5C 30.2776,558.822 28.4443,558.155 27,556.5C 26.3333,378.5 26.3333,200.5 27,22.5C 27.9025,21.2986 29.0692,20.4652 30.5,20C 153.5,19.3333 276.5,19.3333 399.5,20C 401.426,20.4224 402.426,21.5891 402.5,23.5 Z"/></g>
<g><path style="opacity:1" fill="#5c5c5c" d="M 402.5,23.5 C 404.446,28.3958 405.113,33.7291 404.5,39.5C 410.026,39.1786 415.36,39.5119 420.5,40.5C 414.5,40.5 408.5,40.5 402.5,40.5C 402.5,34.8333 402.5,29.1667 402.5,23.5 Z"/></g>
<g><path style="opacity:1" fill="#575353" d="M 390.5,32.5 C 389.532,34.6074 389.198,36.9407 389.5,39.5C 276.665,39.1672 163.999,39.5005 51.5,40.5C 50.9181,41.9311 50.0848,43.2644 49,44.5C 48.5,211.833 48.3333,379.166 48.5,546.5C 45.1667,546.5 41.8333,546.5 38.5,546.5C 38.5,374.833 38.5,203.167 38.5,31.5C 156.001,31.1671 273.335,31.5005 390.5,32.5 Z"/></g>
<g><path style="opacity:1" fill="#656766" d="M 390.5,32.5 C 390.5,35.1667 390.5,37.8333 390.5,40.5C 278.5,40.5 166.5,40.5 54.5,40.5C 53.5,40.5 52.5,40.5 51.5,40.5C 163.999,39.5005 276.665,39.1672 389.5,39.5C 389.198,36.9407 389.532,34.6074 390.5,32.5 Z"/></g>
<g><path style="opacity:1" fill="#040605" d="M 54.5,40.5 C 166.5,40.5 278.5,40.5 390.5,40.5C 391.043,40.56 391.376,40.8933 391.5,41.5C 335.333,41.8333 279.167,42.1667 223,42.5C 166.496,42.5 110.329,41.8333 54.5,40.5 Z"/></g>
<g><path style="opacity:1" fill="#7a7879" d="M 60.5,52.5 C 177.833,52.5 295.167,52.5 412.5,52.5C 412.5,55.5 412.5,58.5 412.5,61.5C 299.166,61.3333 185.833,61.5 72.5,62C 72,62.5 71.5,63 71,63.5C 69.5027,231.42 69.0027,399.42 69.5,567.5C 66.5,567.5 63.5,567.5 60.5,567.5C 60.5,395.833 60.5,224.167 60.5,52.5 Z"/></g>
<g><path style="opacity:1" fill="#5b5b5b" d="M 433.5,74.5 C 433.167,74.5 432.833,74.5 432.5,74.5C 315.833,74.5 199.167,74.5 82.5,74.5C 82.5,245.833 82.5,417.167 82.5,588.5C 176.167,588.5 269.833,588.5 363.5,588.5C 269.668,589.499 175.668,589.833 81.5,589.5C 81.5,417.5 81.5,245.5 81.5,73.5C 199.001,73.1671 316.335,73.5005 433.5,74.5 Z"/></g>
<g><path style="opacity:1" fill="#d6d6d6" d="M 432.5,74.5 C 432.5,222.167 432.5,369.833 432.5,517.5C 410.66,517.169 388.994,517.503 367.5,518.5C 365.983,518.511 364.816,519.177 364,520.5C 363.5,543.164 363.333,565.831 363.5,588.5C 269.833,588.5 176.167,588.5 82.5,588.5C 82.5,417.167 82.5,245.833 82.5,74.5C 199.167,74.5 315.833,74.5 432.5,74.5 Z"/></g>
<g><path style="opacity:1" fill="#7b7b7b" d="M 432.5,74.5 C 432.833,74.5 433.167,74.5 433.5,74.5C 433.5,222.5 433.5,370.5 433.5,518.5C 411.5,518.5 389.5,518.5 367.5,518.5C 388.994,517.503 410.66,517.169 432.5,517.5C 432.5,369.833 432.5,222.167 432.5,74.5 Z"/></g>
<g><path style="opacity:1" fill="#151616" d="M 407.5,123.5 C 397.167,123.5 386.833,123.5 376.5,123.5C 376.5,125.5 376.5,127.5 376.5,129.5C 385.833,129.5 395.167,129.5 404.5,129.5C 406.017,129.511 407.184,130.177 408,131.5C 408.667,140.167 408.667,148.833 408,157.5C 407.167,158.333 406.333,159.167 405.5,160C 396.173,160.5 386.839,160.666 377.5,160.5C 377.667,171.172 377.5,181.839 377,192.5C 376.535,193.931 375.701,195.097 374.5,196C 364.833,196.667 355.167,196.667 345.5,196C 344.667,195.167 343.833,194.333 343,193.5C 342.333,160.833 342.333,128.167 343,95.5C 343.833,94.6667 344.667,93.8333 345.5,93C 366.5,92.3333 387.5,92.3333 408.5,93C 409.416,93.3742 410.25,93.8742 411,94.5C 411.667,103.167 411.667,111.833 411,120.5C 410.241,122.063 409.074,123.063 407.5,123.5 Z"/></g>
<g><path style="opacity:1" fill="#981111" d="M 354.5,104.5 C 369.5,104.5 384.5,104.5 399.5,104.5C 399.5,106.833 399.5,109.167 399.5,111.5C 389.161,111.334 378.828,111.5 368.5,112C 366.667,112.5 365.5,113.667 365,115.5C 364.333,122.833 364.333,130.167 365,137.5C 365.374,138.416 365.874,139.25 366.5,140C 376.395,141.449 386.395,141.949 396.5,141.5C 396.756,143.792 396.423,145.959 395.5,148C 386.167,148.333 376.833,148.667 367.5,149C 367,149.5 366.5,150 366,150.5C 364.544,161.731 364.044,173.064 364.5,184.5C 361.167,184.5 357.833,184.5 354.5,184.5C 354.5,157.833 354.5,131.167 354.5,104.5 Z"/></g>
<g><path style="opacity:1" fill="#5d5d5d" d="M 407.5,123.5 C 397.681,124.494 387.681,124.827 377.5,124.5C 377.5,125.833 377.5,127.167 377.5,128.5C 386.682,128.173 395.682,128.507 404.5,129.5C 395.167,129.5 385.833,129.5 376.5,129.5C 376.5,127.5 376.5,125.5 376.5,123.5C 386.833,123.5 397.167,123.5 407.5,123.5 Z"/></g>
<g><path style="opacity:1" fill="#181918" d="M 201.5,177.5 C 239.168,177.333 276.835,177.5 314.5,178C 318.41,182.075 318.41,186.075 314.5,190C 276.5,190.667 238.5,190.667 200.5,190C 196.496,185.507 196.829,181.341 201.5,177.5 Z"/></g>
<g><path style="opacity:1" fill="#252525" d="M 391.5,207.5 C 301.833,208.833 212.167,208.833 122.5,207.5C 212.167,206.167 301.833,206.167 391.5,207.5 Z"/></g>
<g><path style="opacity:1" fill="#141615" d="M 122.5,207.5 C 212.167,208.833 301.833,208.833 391.5,207.5C 393.39,207.297 394.89,207.963 396,209.5C 397.004,212.993 396.504,216.159 394.5,219C 303.167,219.667 211.833,219.667 120.5,219C 118.607,216.083 118.107,212.916 119,209.5C 119.816,208.177 120.983,207.511 122.5,207.5 Z"/></g>
<g><path style="opacity:1" fill="#141414" d="M 391.5,247.5 C 301.833,247.5 212.167,247.5 122.5,247.5C 120.589,247.426 119.422,246.426 119,244.5C 118.153,241.412 118.653,238.579 120.5,236C 211.833,235.333 303.167,235.333 394.5,236C 396.393,238.917 396.893,242.084 396,245.5C 394.89,247.037 393.39,247.703 391.5,247.5 Z"/></g>
<g><path style="opacity:1" fill="#767676" d="M 122.5,247.5 C 212.167,247.5 301.833,247.5 391.5,247.5C 347.005,248.833 302.172,249.5 257,249.5C 211.828,249.5 166.995,248.833 122.5,247.5 Z"/></g>
<g><path style="opacity:1" fill="#181818" d="M 121.5,264.5 C 212.501,264.333 303.501,264.5 394.5,265C 397.383,269.269 397.05,273.269 393.5,277C 302.833,277.667 212.167,277.667 121.5,277C 117.547,272.835 117.547,268.669 121.5,264.5 Z"/></g>
<g><path style="opacity:1" fill="#181918" d="M 177.5,292.5 C 249.501,292.333 321.501,292.5 393.5,293C 397.482,297.076 397.482,301.076 393.5,305C 321.5,305.667 249.5,305.667 177.5,305C 173.645,300.91 173.645,296.744 177.5,292.5 Z"/></g>
<g><path style="opacity:1" fill="#181919" d="M 121.5,321.5 C 212.167,321.333 302.834,321.5 393.5,322C 397.5,326 397.5,330 393.5,334C 302.833,334.667 212.167,334.667 121.5,334C 117.547,329.835 117.547,325.669 121.5,321.5 Z"/></g>
<g><path style="opacity:1" fill="#252525" d="M 391.5,350.5 C 301.833,351.833 212.167,351.833 122.5,350.5C 212.167,349.167 301.833,349.167 391.5,350.5 Z"/></g>
<g><path style="opacity:1" fill="#141414" d="M 122.5,350.5 C 212.167,351.833 301.833,351.833 391.5,350.5C 395.158,350.935 396.825,353.101 396.5,357C 396.58,361.086 394.58,362.919 390.5,362.5C 301.833,362.5 213.167,362.5 124.5,362.5C 119.195,361.923 117.362,358.923 119,353.5C 119.422,351.574 120.589,350.574 122.5,350.5 Z"/></g>
<g><path style="opacity:1" fill="#808080" d="M 124.5,362.5 C 213.167,362.5 301.833,362.5 390.5,362.5C 346.505,363.833 302.172,364.5 257.5,364.5C 212.828,364.5 168.495,363.833 124.5,362.5 Z"/></g>
<g><path style="opacity:1" fill="#131413" d="M 120.5,379.5 C 211.834,379.333 303.167,379.5 394.5,380C 397.167,383.667 397.167,387.333 394.5,391C 303.167,391.667 211.833,391.667 120.5,391C 117.875,387.168 117.875,383.335 120.5,379.5 Z"/></g>
<g><path style="opacity:1" fill="#181918" d="M 121.5,407.5 C 212.501,407.333 303.501,407.5 394.5,408C 397.448,412.341 397.115,416.341 393.5,420C 302.833,420.667 212.167,420.667 121.5,420C 117.645,415.91 117.645,411.744 121.5,407.5 Z"/></g>
<g><path style="opacity:1" fill="#191919" d="M 177.5,436.5 C 249.501,436.333 321.501,436.5 393.5,437C 397.425,440.962 397.425,444.962 393.5,449C 321.5,449.667 249.5,449.667 177.5,449C 173.547,444.835 173.547,440.669 177.5,436.5 Z"/></g>
<g><path style="opacity:1" fill="#191919" d="M 121.5,464.5 C 212.167,464.333 302.834,464.5 393.5,465C 397.425,468.962 397.425,472.962 393.5,477C 302.833,477.667 212.167,477.667 121.5,477C 117.547,472.835 117.547,468.669 121.5,464.5 Z"/></g>
<g><path style="opacity:1" fill="#141514" d="M 122.5,494.5 C 212.167,495.833 301.833,495.833 391.5,494.5C 393.39,494.297 394.89,494.963 396,496.5C 397.004,499.993 396.504,503.159 394.5,506C 303.167,506.667 211.833,506.667 120.5,506C 118.756,503.037 118.256,499.871 119,496.5C 119.816,495.177 120.983,494.511 122.5,494.5 Z"/></g>
<g><path style="opacity:1" fill="#242525" d="M 391.5,494.5 C 301.833,495.833 212.167,495.833 122.5,494.5C 212.167,493.167 301.833,493.167 391.5,494.5 Z"/></g>
<g><path style="opacity:1" fill="#131313" d="M 120.5,522.5 C 199.167,522.333 277.834,522.5 356.5,523C 358.954,523.943 359.954,525.776 359.5,528.5C 359.954,531.224 358.954,533.057 356.5,534C 277.833,534.667 199.167,534.667 120.5,534C 117.864,530.1 117.864,526.266 120.5,522.5 Z"/></g>
<g><path style="opacity:1" fill="#9a9a9a" d="M 422.5,532.5 C 407.555,547.78 392.555,563.113 377.5,578.5C 376.504,563.009 376.17,547.342 376.5,531.5C 392.009,531.17 407.342,531.504 422.5,532.5 Z"/></g>
<g><path style="opacity:1" fill="#5c5c5c" d="M 422.5,532.5 C 407.342,531.504 392.009,531.17 376.5,531.5C 376.17,547.342 376.504,563.009 377.5,578.5C 377.44,579.043 377.107,579.376 376.5,579.5C 375.501,563.18 375.167,546.847 375.5,530.5C 391.837,530.333 408.17,530.5 424.5,531C 423.956,531.717 423.289,532.217 422.5,532.5 Z"/></g>
<g><path style="opacity:1" fill="#6a6a6a" d="M 432.5,540.5 C 433.496,556.658 433.83,572.991 433.5,589.5C 417.486,589.833 401.486,589.499 385.5,588.5C 386,587.5 386.5,586.5 387,585.5C 402.628,570.855 417.794,555.855 432.5,540.5 Z"/></g>
<g><path style="opacity:1" fill="#5a5a5a" d="M 32.5,558.5 C 37.8333,558.5 43.1667,558.5 48.5,558.5C 48.5,564.5 48.5,570.5 48.5,576.5C 47.5111,571.025 47.1778,565.358 47.5,559.5C 42.3054,559.821 37.3054,559.487 32.5,558.5 Z"/></g>
<g><path style="opacity:1" fill="#5d5d5d" d="M 51.5,579.5 C 57.5,579.5 63.5,579.5 69.5,579.5C 69.5,584.833 69.5,590.167 69.5,595.5C 68.5128,590.695 68.1795,585.695 68.5,580.5C 62.642,580.822 56.9753,580.489 51.5,579.5 Z"/></g>
</svg>
