<?xml version="1.0" encoding="UTF-8"?>
<!DOCTYPE svg PUBLIC "-//W3C//DTD SVG 1.1//EN" "http://www.w3.org/Graphics/SVG/1.1/DTD/svg11.dtd">
<svg xmlns="http://www.w3.org/2000/svg" version="1.1" width="550px" height="613px" style="shape-rendering:geometricPrecision; text-rendering:geometricPrecision; image-rendering:optimizeQuality; fill-rule:evenodd; clip-rule:evenodd" xmlns:xlink="http://www.w3.org/1999/xlink">
<g><path style="opacity:1" fill="#090909" d="M 269.5,29.5 C 274.476,29.2384 278.309,31.2384 281,35.5C 305.98,69.7669 309.313,106.1 291,144.5C 287.246,150.342 283.246,156.009 279,161.5C 262.547,178.28 247.213,195.947 233,214.5C 223.517,230.951 219.851,248.618 222,267.5C 223.679,276.576 225.679,285.576 228,294.5C 232.177,302.023 234.51,310.023 235,318.5C 232.683,321.097 229.85,321.93 226.5,321C 216.347,312.758 206.014,304.758 195.5,297C 159.944,266.201 150.444,228.701 167,184.5C 171.167,176.828 175.834,169.495 181,162.5C 201.753,138.911 224.587,117.744 249.5,99C 260.867,90.0964 268.033,78.5964 271,64.5C 271.667,59.8333 271.667,55.1667 271,50.5C 269.304,45.6094 267.471,40.7761 265.5,36C 266.205,33.4582 267.539,31.2916 269.5,29.5 Z"/></g>
<g><path style="opacity:1" fill="#26fc1b" d="M 283.5,73.5 C 283.56,72.9569 283.893,72.6236 284.5,72.5C 286.922,73.9037 287.589,75.7371 286.5,78C 287.206,79.9097 288.206,81.9097 289.5,84C 289.337,93.0892 289.337,102.089 289.5,111C 288.206,113.09 287.206,115.09 286.5,117C 287.079,118.908 287.079,120.575 286.5,122C 284.62,126.064 282.287,130.398 279.5,135C 279.833,135.333 280.167,135.667 280.5,136C 279.5,137.667 278.167,139 276.5,140C 276.833,140.333 277.167,140.667 277.5,141C 271.442,150.022 264.609,157.855 257,164.5C 254,168.167 251,171.833 248,175.5C 246.434,174.939 245.101,175.606 244,177.5C 243.667,178.5 243.333,179.5 243,180.5C 237.396,187.004 231.896,192.838 226.5,198C 226.833,198.333 227.167,198.667 227.5,199C 223.686,202.959 220.353,207.292 217.5,212C 217.957,212.414 218.291,212.914 218.5,213.5C 216.92,216.11 215.253,218.61 213.5,221C 213.835,222.503 213.835,223.836 213.5,225C 212.833,225.333 212.167,225.667 211.5,226C 211.833,227 212.167,228 212.5,229C 211.061,229.991 210.061,231.324 209.5,233C 210.051,234.398 210.384,235.732 210.5,237C 209.315,239.057 208.315,241.057 207.5,243C 208.833,252.333 208.833,261.667 207.5,271C 208.5,273.333 209.5,275.667 210.5,278C 210.384,279.268 210.051,280.602 209.5,282C 210.179,283.929 211.179,285.929 212.5,288C 211.965,289.537 211.632,291.037 211.5,292.5C 208.603,290.859 205.603,288.692 202.5,286C 201.809,284.933 201.309,283.766 201,282.5C 200.667,282.833 200.333,283.167 200,283.5C 195.921,279.421 192.255,275.755 189,272.5C 185.173,266.393 181.34,260.226 177.5,254C 178.458,252.853 178.125,251.853 176.5,251C 176.957,250.586 177.291,250.086 177.5,249.5C 176.175,245.049 174.508,240.549 172.5,236C 173.167,235.667 173.833,235.333 174.5,235C 173.707,233.915 173.04,232.748 172.5,231.5C 172.93,223.972 172.93,216.639 172.5,209.5C 173.953,207.197 174.953,205.03 175.5,203C 175.167,202 174.833,201 174.5,200C 176.446,197.325 178.113,194.492 179.5,191.5C 179.291,190.914 178.957,190.414 178.5,190C 181.268,189.292 182.101,187.792 181,185.5C 182.167,183.667 183.667,182.167 185.5,181C 185.167,180.667 184.833,180.333 184.5,180C 190.114,172.316 195.947,165.149 202,158.5C 209.796,150.69 217.629,143.856 225.5,138C 227.593,134.267 230.926,131.267 235.5,129C 236.304,127.229 237.471,125.729 239,124.5C 239.914,125.654 240.747,125.487 241.5,124C 241.167,123.667 240.833,123.333 240.5,123C 243.969,120.916 247.135,118.416 250,115.5C 250.914,116.654 251.747,116.487 252.5,115C 252.167,114.667 251.833,114.333 251.5,114C 253.939,113.226 255.773,111.726 257,109.5C 257.333,109.833 257.667,110.167 258,110.5C 261.719,107.002 265.552,103.502 269.5,100C 269.167,99.6667 268.833,99.3333 268.5,99C 271.547,96.9247 273.714,94.0914 275,90.5C 275.75,89.8742 276.584,89.3742 277.5,89C 277.167,88.6667 276.833,88.3333 276.5,88C 277.5,87.1667 278.5,86.3333 279.5,85.5C 281.339,80.7654 282.672,76.7654 283.5,73.5 Z"/></g>
<g><path style="opacity:1" fill="#0a0a0a" d="M 294.5,142.5 C 298.192,141.971 301.358,142.971 304,145.5C 311.155,157.295 316.155,169.961 319,183.5C 321.064,199.299 317.064,213.299 307,225.5C 300.764,232.407 293.931,238.573 286.5,244C 274.333,253.168 267.499,265.334 266,280.5C 264.891,289.796 264.224,299.13 264,308.5C 257.63,314.541 252.63,313.541 249,305.5C 239.798,289.027 235.465,271.36 236,252.5C 237.655,245.524 240.655,239.191 245,233.5C 253.606,223.888 263.106,215.388 273.5,208C 283.745,198.008 289.579,185.841 291,171.5C 291.333,163.167 291.667,154.833 292,146.5C 292.662,145.016 293.496,143.683 294.5,142.5 Z"/></g>
<g><path style="opacity:1" fill="#27fc1b" d="M 303.5,179.5 C 305.71,180.455 306.043,181.955 304.5,184C 305.26,185.441 305.926,186.941 306.5,188.5C 305.212,191.034 305.212,193.534 306.5,196C 304.581,197.804 304.248,199.804 305.5,202C 304.318,203.49 303.318,204.823 302.5,206C 302.957,206.414 303.291,206.914 303.5,207.5C 300.167,211.234 297.333,215.234 295,219.5C 291.85,220.571 289.017,222.738 286.5,226C 286.833,226.333 287.167,226.667 287.5,227C 284.022,228.814 281.188,231.314 279,234.5C 278.667,234.167 278.333,233.833 278,233.5C 276.667,235.167 275.333,236.833 274,238.5C 273.667,238.167 273.333,237.833 273,237.5C 269.696,240.465 267.529,243.631 266.5,247C 263.139,251.207 260.139,255.207 257.5,259C 257.957,259.414 258.291,259.914 258.5,260.5C 256.532,266.62 254.365,272.287 252,277.5C 251.904,274.549 251.071,271.882 249.5,269.5C 250.016,264.531 250.016,259.364 249.5,254C 250.484,252.343 251.484,250.677 252.5,249C 251.465,247.493 251.632,245.993 253,244.5C 255.992,240.508 259.326,236.842 263,233.5C 263.333,233.833 263.667,234.167 264,234.5C 264.935,231.898 266.768,230.398 269.5,230C 269.167,229.667 268.833,229.333 268.5,229C 273.058,226.648 276.891,223.481 280,219.5C 280.914,220.654 281.747,220.487 282.5,219C 282.167,218.667 281.833,218.333 281.5,218C 285.685,214.812 289.518,211.312 293,207.5C 294.343,203.49 296.509,199.99 299.5,197C 299.5,195.667 299.5,194.333 299.5,193C 300.613,190.379 301.946,187.879 303.5,185.5C 303.028,183.599 303.028,181.599 303.5,179.5 Z"/></g>
<g><path style="opacity:1" fill="#040404" d="M 66.5,338.5 C 180.5,338.333 294.5,338.5 408.5,339C 409.667,340.167 410.833,341.333 412,342.5C 412.5,351.16 412.666,359.827 412.5,368.5C 434.752,365.647 455.085,370.481 473.5,383C 490.83,399.108 497.33,418.941 493,442.5C 489.902,467.878 477.402,487.044 455.5,500C 429.229,513.584 401.229,520.751 371.5,521.5C 356.418,538.085 340.252,553.418 323,567.5C 317.959,577.542 310.125,584.375 299.5,588C 287.158,592.127 274.491,594.794 261.5,596C 244.167,596.667 226.833,596.667 209.5,596C 199.386,594.555 189.386,592.555 179.5,590C 173.609,588.388 168.275,585.721 163.5,582C 157.932,576.188 152.599,570.188 147.5,564C 124.59,545.758 104.424,524.925 87,501.5C 76.4293,479.008 69.7626,455.341 67,430.5C 63.9306,400.909 62.9306,371.242 64,341.5C 65.045,340.627 65.8783,339.627 66.5,338.5 Z"/></g>
<g><path style="opacity:1" fill="#876866" d="M 75.5,353.5 C 183.332,352.501 291.332,352.167 399.5,352.5C 399.828,363.346 399.494,374.013 398.5,384.5C 398.5,374.167 398.5,363.833 398.5,353.5C 290.833,353.5 183.167,353.5 75.5,353.5 Z"/></g>
<g><path style="opacity:1" fill="#c9b0ab" d="M 75.5,353.5 C 183.167,353.5 290.833,353.5 398.5,353.5C 398.5,363.833 398.5,374.167 398.5,384.5C 397.161,397.2 396.494,409.867 396.5,422.5C 395.566,423.568 395.232,424.901 395.5,426.5C 394.07,426.421 392.736,426.754 391.5,427.5C 361.137,426.833 330.804,426.167 300.5,425.5C 299.079,402.234 287.079,387.401 264.5,381C 245.523,376.923 226.856,377.923 208.5,384C 190.277,392.733 181.277,407.233 181.5,427.5C 147.094,427.826 112.76,427.493 78.5,426.5C 76.1986,402.234 75.1986,377.9 75.5,353.5 Z"/></g>
<g><path style="opacity:1" fill="#0d0b0b" d="M 300.5,425.5 C 299.992,429.891 299.158,434.225 298,438.5C 295.401,442.878 293.401,447.545 292,452.5C 290.286,454.043 288.786,455.71 287.5,457.5C 290.155,464.44 289.822,471.273 286.5,478C 286.833,478.5 287.167,479 287.5,479.5C 291.833,477.333 296.167,475.167 300.5,473C 303.531,470.441 305.698,467.274 307,463.5C 310.492,458.404 314.825,457.404 320,460.5C 321.174,464.046 321.84,467.713 322,471.5C 324.432,474.688 327.099,477.688 330,480.5C 330.294,483.912 328.961,486.579 326,488.5C 321.507,489.801 317.007,489.801 312.5,488.5C 299.231,493.313 286.231,498.813 273.5,505C 274.92,506.53 275.92,508.363 276.5,510.5C 283.95,513.391 291.283,516.558 298.5,520C 303.087,520.799 307.587,520.632 312,519.5C 318.011,521.196 320.011,524.863 318,530.5C 312.38,534.686 309.714,540.353 310,547.5C 308.874,548.944 307.374,549.61 305.5,549.5C 302.752,548.961 300.085,548.128 297.5,547C 295.702,543.903 294.035,540.737 292.5,537.5C 284.589,533.628 276.755,529.628 269,525.5C 265.359,530.578 260.525,534.078 254.5,536C 244.282,537.537 234.282,537.203 224.5,535C 220.049,532.217 215.883,529.05 212,525.5C 204.418,529.707 196.918,534.04 189.5,538.5C 187.898,544.434 184.231,548.434 178.5,550.5C 176.726,550.113 175.059,549.447 173.5,548.5C 172.639,544.417 171.473,540.417 170,536.5C 167.294,534.129 164.961,531.463 163,528.5C 162.145,525.044 163.311,522.544 166.5,521C 173.246,520.879 179.913,520.212 186.5,519C 192.833,516.167 199.167,513.333 205.5,510.5C 207.279,506.904 206.279,504.404 202.5,503C 192.33,498.72 182.33,494.053 172.5,489C 169.362,488.92 166.196,489.087 163,489.5C 157.35,490.302 153.517,488.136 151.5,483C 153.238,479.259 155.738,476.092 159,473.5C 164.023,454.358 170.857,453.858 179.5,472C 185.553,475.863 191.886,478.863 198.5,481C 193.592,473.951 192.259,466.284 194.5,458C 187.566,448.963 183.233,438.796 181.5,427.5C 181.277,407.233 190.277,392.733 208.5,384C 226.856,377.923 245.523,376.923 264.5,381C 287.079,387.401 299.079,402.234 300.5,425.5 Z"/></g>
<g><path style="opacity:1" fill="#c5ada7" d="M 412.5,382.5 C 431.783,379.933 449.45,383.766 465.5,394C 476.779,404.979 482.113,418.479 481.5,434.5C 481.179,455.643 472.512,472.476 455.5,485C 433,499.372 409.166,506.205 384,505.5C 387.15,501.383 390.65,497.549 394.5,494C 413.887,493.287 431.554,487.62 447.5,477C 464.894,462.492 471.394,443.992 467,421.5C 462.634,406.139 452.467,397.639 436.5,396C 428.507,395.5 420.507,395.334 412.5,395.5C 412.5,391.167 412.5,386.833 412.5,382.5 Z"/></g>
<g><path style="opacity:1" fill="#35ef1e" d="M 227.5,383.5 C 244.066,381.868 260.066,384.035 275.5,390C 291.876,400.76 298.376,415.927 295,435.5C 293.726,440.714 291.393,445.381 288,449.5C 286.36,443.343 287.026,437.343 290,431.5C 290.667,427.167 290.667,422.833 290,418.5C 289.167,417.5 288.333,416.5 287.5,415.5C 284.297,417.775 283.964,420.608 286.5,424C 285.711,428.282 284.544,432.448 283,436.5C 282.289,446.072 282.789,455.572 284.5,465C 285.395,470.654 283.728,475.321 279.5,479C 272.118,480.452 265.952,483.952 261,489.5C 259.921,492.063 259.421,494.729 259.5,497.5C 248.204,499.807 236.87,499.973 225.5,498C 223.486,493.485 220.819,489.318 217.5,485.5C 212.318,482.743 206.985,480.243 201.5,478C 198.791,474.512 197.457,470.512 197.5,466C 198.4,459.278 199.4,452.278 200.5,445C 199.576,438.235 198.243,431.568 196.5,425C 196.305,422.648 196.972,420.648 198.5,419C 197.333,417.833 196.167,416.667 195,415.5C 192.879,417.518 191.712,420.018 191.5,423C 191.897,428.363 193.064,433.53 195,438.5C 195.667,442.5 195.667,446.5 195,450.5C 191.628,446.423 189.295,441.756 188,436.5C 183.161,418.357 188.327,403.523 203.5,392C 211.191,387.923 219.191,385.089 227.5,383.5 Z"/></g>
<g><path style="opacity:1" fill="#fbfbfb" d="M 413.5,407.5 C 424.85,406.646 435.85,408.146 446.5,412C 450.381,414.928 452.881,418.761 454,423.5C 457.166,450.024 446,467.524 420.5,476C 413.607,477.879 406.607,479.046 399.5,479.5C 405.29,457.542 409.29,435.209 411.5,412.5C 411.724,410.545 412.391,408.879 413.5,407.5 Z"/></g>
<g><path style="opacity:1" fill="#735f58" d="M 396.5,422.5 C 394.737,445.622 389.57,467.955 381,489.5C 372.601,498.656 364.935,508.323 358,518.5C 345.735,531.77 332.568,543.937 318.5,555C 313.456,560.376 308.789,566.042 304.5,572C 296.315,576.507 287.648,579.841 278.5,582C 249.75,585.599 221.084,585.265 192.5,581C 185.179,579.173 178.179,576.506 171.5,573C 153.412,554.58 134.912,536.414 116,518.5C 96.9807,499.799 85.314,477.132 81,450.5C 80.064,443.113 78.8973,435.779 77.5,428.5C 77.8627,427.817 78.1961,427.15 78.5,426.5C 112.76,427.493 147.094,427.826 181.5,427.5C 183.233,438.796 187.566,448.963 194.5,458C 192.259,466.284 193.592,473.951 198.5,481C 191.886,478.863 185.553,475.863 179.5,472C 170.857,453.858 164.023,454.358 159,473.5C 155.738,476.092 153.238,479.259 151.5,483C 153.517,488.136 157.35,490.302 163,489.5C 166.196,489.087 169.362,488.92 172.5,489C 182.33,494.053 192.33,498.72 202.5,503C 206.279,504.404 207.279,506.904 205.5,510.5C 199.167,513.333 192.833,516.167 186.5,519C 179.913,520.212 173.246,520.879 166.5,521C 163.311,522.544 162.145,525.044 163,528.5C 164.961,531.463 167.294,534.129 170,536.5C 171.473,540.417 172.639,544.417 173.5,548.5C 175.059,549.447 176.726,550.113 178.5,550.5C 184.231,548.434 187.898,544.434 189.5,538.5C 196.918,534.04 204.418,529.707 212,525.5C 215.883,529.05 220.049,532.217 224.5,535C 234.282,537.203 244.282,537.537 254.5,536C 260.525,534.078 265.359,530.578 269,525.5C 276.755,529.628 284.589,533.628 292.5,537.5C 294.035,540.737 295.702,543.903 297.5,547C 300.085,548.128 302.752,548.961 305.5,549.5C 307.374,549.61 308.874,548.944 310,547.5C 309.714,540.353 312.38,534.686 318,530.5C 320.011,524.863 318.011,521.196 312,519.5C 307.587,520.632 303.087,520.799 298.5,520C 291.283,516.558 283.95,513.391 276.5,510.5C 275.92,508.363 274.92,506.53 273.5,505C 286.231,498.813 299.231,493.313 312.5,488.5C 317.007,489.801 321.507,489.801 326,488.5C 328.961,486.579 330.294,483.912 330,480.5C 327.099,477.688 324.432,474.688 322,471.5C 321.84,467.713 321.174,464.046 320,460.5C 314.825,457.404 310.492,458.404 307,463.5C 305.698,467.274 303.531,470.441 300.5,473C 296.167,475.167 291.833,477.333 287.5,479.5C 287.167,479 286.833,478.5 286.5,478C 289.822,471.273 290.155,464.44 287.5,457.5C 288.786,455.71 290.286,454.043 292,452.5C 293.401,447.545 295.401,442.878 298,438.5C 299.158,434.225 299.992,429.891 300.5,425.5C 330.804,426.167 361.137,426.833 391.5,427.5C 392.736,426.754 394.07,426.421 395.5,426.5C 395.232,424.901 395.566,423.568 396.5,422.5 Z"/></g>
<g><path style="opacity:1" fill="#050505" d="M 219.5,442.5 C 228.397,440.3 233.064,443.466 233.5,452C 231.641,456.887 229.141,461.387 226,465.5C 220.702,471.738 215.036,472.072 209,466.5C 205.269,461.39 203.602,455.723 204,449.5C 205.5,448 207,446.5 208.5,445C 212.392,444.581 216.058,443.748 219.5,442.5 Z"/></g>
<g><path style="opacity:1" fill="#040403" d="M 252.5,442.5 C 259.595,442.485 266.595,443.319 273.5,445C 278.069,447.541 279.569,451.375 278,456.5C 276.72,464.11 272.387,468.776 265,470.5C 260.879,469.392 257.545,467.059 255,463.5C 252.415,459.496 250.249,455.329 248.5,451C 249.167,447.833 250.501,445 252.5,442.5 Z"/></g>
<g><path style="opacity:1" fill="#25fd1a" d="M 314.5,462.5 C 315.497,462.47 316.164,462.97 316.5,464C 317.05,467.915 317.883,471.748 319,475.5C 320.991,477.457 322.991,479.457 325,481.5C 325.749,482.635 325.583,483.635 324.5,484.5C 319.206,485.175 313.872,485.342 308.5,485C 297.29,490.612 285.956,495.612 274.5,500C 275.235,496.131 276.568,492.464 278.5,489C 287.167,484.667 295.833,480.333 304.5,476C 307.293,472.919 309.46,469.419 311,465.5C 312.145,464.364 313.312,463.364 314.5,462.5 Z"/></g>
<g><path style="opacity:1" fill="#26fd1a" d="M 165.5,463.5 C 168.263,463.744 170.429,465.077 172,467.5C 173.211,470.759 175.044,473.592 177.5,476C 186.935,480.466 196.102,485.299 205,490.5C 205.889,493.687 206.722,496.853 207.5,500C 196.005,495.54 184.671,490.54 173.5,485C 168.128,485.342 162.794,485.175 157.5,484.5C 156.355,483.224 156.355,481.891 157.5,480.5C 160.356,478.478 162.689,475.978 164.5,473C 164.167,472.667 163.833,472.333 163.5,472C 164.213,469.174 164.88,466.34 165.5,463.5 Z"/></g>
<g><path style="opacity:1" fill="#121010" d="M 237.5,465.5 C 238.5,465.5 239.5,465.5 240.5,465.5C 240.788,472.563 240.288,479.563 239,486.5C 236.521,489.683 233.854,490.016 231,487.5C 229.426,479.001 231.593,471.667 237.5,465.5 Z"/></g>
<g><path style="opacity:1" fill="#050505" d="M 242.5,464.5 C 251.86,471.634 253.694,479.967 248,489.5C 245.463,489.3 243.796,487.967 243,485.5C 242.5,478.508 242.334,471.508 242.5,464.5 Z"/></g>
<g><path style="opacity:1" fill="#4bcc23" d="M 272.5,486.5 C 273.043,486.56 273.376,486.893 273.5,487.5C 272.568,489.795 271.735,492.129 271,494.5C 274.657,521.838 262.824,534.671 235.5,533C 222.755,532.244 214.922,525.744 212,513.5C 211.228,509.11 211.394,504.777 212.5,500.5C 211.172,496.201 210.338,491.868 210,487.5C 213.09,494.86 215.09,502.527 216,510.5C 223.115,517.151 231.615,520.151 241.5,519.5C 251.009,519.944 259.176,516.944 266,510.5C 266.726,502.066 268.893,494.066 272.5,486.5 Z"/></g>
<g><path style="opacity:1" fill="#d3c8c7" d="M 266.5,489.5 C 267.239,489.369 267.906,489.536 268.5,490C 266.029,496.704 264.195,503.537 263,510.5C 262.047,503.108 263.214,496.108 266.5,489.5 Z"/></g>
<g><path style="opacity:1" fill="#d8cccc" d="M 213.5,488.5 C 215.504,489.673 217.004,491.34 218,493.5C 219.439,498.762 219.772,504.096 219,509.5C 217.226,502.454 215.393,495.454 213.5,488.5 Z"/></g>
<g><path style="opacity:1" fill="#d0c5c4" d="M 221.5,498.5 C 224.363,500.098 225.03,502.431 223.5,505.5C 222.914,505.291 222.414,504.957 222,504.5C 221.505,502.527 221.338,500.527 221.5,498.5 Z"/></g>
<g><path style="opacity:1" fill="#d9cdcd" d="M 259.5,498.5 C 260.147,499.274 260.48,500.274 260.5,501.5C 259.947,505.969 258.947,506.303 257.5,502.5C 257.803,500.886 258.47,499.552 259.5,498.5 Z"/></g>
<g><path style="opacity:1" fill="#fbfafa" d="M 226.5,500.5 C 227.5,500.5 228.5,500.5 229.5,500.5C 229.808,502.924 229.474,505.257 228.5,507.5C 227.914,507.291 227.414,506.957 227,506.5C 226.505,504.527 226.338,502.527 226.5,500.5 Z"/></g>
<g><path style="opacity:1" fill="#d5c9c9" d="M 251.5,500.5 C 252.833,500.5 254.167,500.5 255.5,500.5C 255.662,502.527 255.495,504.527 255,506.5C 253.989,507.337 252.822,507.67 251.5,507.5C 251.5,505.167 251.5,502.833 251.5,500.5 Z"/></g>
<g><path style="opacity:1" fill="#dacece" d="M 236.5,501.5 C 237.833,501.5 239.167,501.5 240.5,501.5C 240.5,503.833 240.5,506.167 240.5,508.5C 239.167,508.5 237.833,508.5 236.5,508.5C 236.5,506.167 236.5,503.833 236.5,501.5 Z"/></g>
<g><path style="opacity:1" fill="#dccece" d="M 242.5,501.5 C 243.5,501.5 244.5,501.5 245.5,501.5C 245.5,503.833 245.5,506.167 245.5,508.5C 244.5,508.5 243.5,508.5 242.5,508.5C 242.5,506.167 242.5,503.833 242.5,501.5 Z"/></g>
<g><path style="opacity:1" fill="#beb3b3" d="M 247.5,500.5 C 248.5,500.5 249.5,500.5 250.5,500.5C 250.5,503.167 250.5,505.833 250.5,508.5C 249.5,508.5 248.5,508.5 247.5,508.5C 247.5,505.833 247.5,503.167 247.5,500.5 Z"/></g>
<g><path style="opacity:1" fill="#aa9c9c" d="M 231.5,500.5 C 232.5,500.5 233.5,500.5 234.5,500.5C 234.5,503.167 234.5,505.833 234.5,508.5C 233.5,508.5 232.5,508.5 231.5,508.5C 231.5,505.833 231.5,503.167 231.5,500.5 Z"/></g>
<g><path style="opacity:1" fill="#d0c5c5" d="M 221.5,506.5 C 224.363,508.098 225.03,510.431 223.5,513.5C 222.914,513.291 222.414,512.957 222,512.5C 221.505,510.527 221.338,508.527 221.5,506.5 Z"/></g>
<g><path style="opacity:1" fill="#dbd0cf" d="M 259.5,506.5 C 260.147,507.274 260.48,508.274 260.5,509.5C 259.947,513.969 258.947,514.303 257.5,510.5C 257.803,508.886 258.47,507.552 259.5,506.5 Z"/></g>
<g><path style="opacity:1" fill="#dfd3d3" d="M 226.5,508.5 C 229.021,510.03 230.021,512.364 229.5,515.5C 228.5,515.5 227.5,515.5 226.5,515.5C 226.5,513.167 226.5,510.833 226.5,508.5 Z"/></g>
<g><path style="opacity:1" fill="#ccc0c0" d="M 254.5,508.5 C 255.797,510.693 255.797,513.027 254.5,515.5C 253.833,515.833 253.167,516.167 252.5,516.5C 251.526,514.257 251.192,511.924 251.5,509.5C 252.791,509.737 253.791,509.404 254.5,508.5 Z"/></g>
<g><path style="opacity:1" fill="#e0d4d4" d="M 231.5,510.5 C 232.5,510.5 233.5,510.5 234.5,510.5C 234.5,512.5 234.5,514.5 234.5,516.5C 233.5,516.5 232.5,516.5 231.5,516.5C 231.5,514.5 231.5,512.5 231.5,510.5 Z"/></g>
<g><path style="opacity:1" fill="#d7cccc" d="M 236.5,510.5 C 237.833,510.5 239.167,510.5 240.5,510.5C 240.5,512.833 240.5,515.167 240.5,517.5C 239.167,517.5 237.833,517.5 236.5,517.5C 236.5,515.167 236.5,512.833 236.5,510.5 Z"/></g>
<g><path style="opacity:1" fill="#ddd1d1" d="M 242.5,510.5 C 243.5,510.5 244.5,510.5 245.5,510.5C 245.5,512.833 245.5,515.167 245.5,517.5C 244.5,517.5 243.5,517.5 242.5,517.5C 242.5,515.167 242.5,512.833 242.5,510.5 Z"/></g>
<g><path style="opacity:1" fill="#26fc1a" d="M 206.5,513.5 C 207.606,516.383 208.939,519.217 210.5,522C 203.384,526.374 196.051,530.374 188.5,534C 185.604,537.228 183.104,540.728 181,544.5C 179.216,547.003 177.549,547.003 176,544.5C 175.667,541.5 175.333,538.5 175,535.5C 172.694,533.194 170.36,530.86 168,528.5C 167.51,527.207 167.343,525.873 167.5,524.5C 171.707,524.337 175.874,524.671 180,525.5C 189.636,522.97 198.469,518.97 206.5,513.5 Z"/></g>
<g><path style="opacity:1" fill="#a29999" d="M 247.5,509.5 C 248.5,509.5 249.5,509.5 250.5,509.5C 250.5,511.833 250.5,514.167 250.5,516.5C 249.5,516.5 248.5,516.5 247.5,516.5C 247.5,514.167 247.5,511.833 247.5,509.5 Z"/></g>
<g><path style="opacity:1" fill="#26fd1a" d="M 274.5,513.5 C 282.642,517.61 290.976,521.443 299.5,525C 302.657,525.24 305.824,525.073 309,524.5C 311.47,524.34 313.636,525.007 315.5,526.5C 313.183,529.317 310.683,531.984 308,534.5C 307.244,538.688 306.078,542.688 304.5,546.5C 300.603,544.73 298.103,541.73 297,537.5C 289.631,531.4 281.464,526.733 272.5,523.5C 273.758,520.306 274.424,516.973 274.5,513.5 Z"/></g>
</svg>
