<?xml version="1.0" encoding="UTF-8"?>
<!DOCTYPE svg PUBLIC "-//W3C//DTD SVG 1.1//EN" "http://www.w3.org/Graphics/SVG/1.1/DTD/svg11.dtd">
<svg xmlns="http://www.w3.org/2000/svg" version="1.1" width="512px" height="512px" style="shape-rendering:geometricPrecision; text-rendering:geometricPrecision; image-rendering:optimizeQuality; fill-rule:evenodd; clip-rule:evenodd" xmlns:xlink="http://www.w3.org/1999/xlink">
<g><path style="opacity:1" fill="#000000" d="M 47.5,7.5 C 186.167,7.5 324.833,7.5 463.5,7.5C 463.5,87.5 463.5,167.5 463.5,247.5C 324.833,247.5 186.167,247.5 47.5,247.5C 47.5,167.5 47.5,87.5 47.5,7.5 Z"/></g>
<g><path style="opacity:1" fill="#305926" d="M 63.5,23.5 C 191.5,23.5 319.5,23.5 447.5,23.5C 447.5,82.1667 447.5,140.833 447.5,199.5C 436.833,199.5 426.167,199.5 415.5,199.5C 415.5,188.833 415.5,178.167 415.5,167.5C 388.833,167.5 362.167,167.5 335.5,167.5C 335.5,178.167 335.5,188.833 335.5,199.5C 244.833,199.5 154.167,199.5 63.5,199.5C 63.5,140.833 63.5,82.1667 63.5,23.5 Z"/></g>
<g><path style="opacity:1" fill="#f7f8f7" d="M 202.5,65.5 C 212.133,65.8991 221.467,67.7324 230.5,71C 243.366,84.3035 246.866,99.8035 241,117.5C 231.819,143.342 213.652,154.176 186.5,150C 165.117,143.436 156.284,128.936 160,106.5C 163.057,91.0794 171.224,79.2461 184.5,71C 190.524,68.8221 196.524,66.9888 202.5,65.5 Z"/></g>
<g><path style="opacity:1" fill="#f8f9f8" d="M 319.5,66.5 C 325.958,67.4909 332.458,68.1575 339,68.5C 342.767,68.2932 346.434,67.6265 350,66.5C 354.513,68.0037 359.18,68.6703 364,68.5C 370.177,68.0165 376.343,67.8499 382.5,68C 384.852,68.5759 385.852,70.0759 385.5,72.5C 385.331,74.8395 384.664,77.0061 383.5,79C 373.786,79.3207 364.12,78.8207 354.5,77.5C 353.849,92.6639 353.182,107.831 352.5,123C 352.387,129.425 353.054,135.758 354.5,142C 353.605,147.061 350.605,149.895 345.5,150.5C 341.742,148.83 337.742,147.997 333.5,148C 335.609,146.859 337.442,145.359 339,143.5C 341.448,121.902 342.114,100.235 341,78.5C 337.156,76.7621 333.823,77.4288 331,80.5C 330,79.8333 329,79.1667 328,78.5C 316.787,80.4528 313.954,76.4528 319.5,66.5 Z"/></g>
<g><path style="opacity:1" fill="#f8f9f8" d="M 79.5,66.5 C 83.1473,66.6216 85.9806,68.2882 88,71.5C 91.7538,77.2581 96.2538,82.4248 101.5,87C 100.549,87.7175 100.383,88.5509 101,89.5C 112.333,102.167 123.667,114.833 135,127.5C 135.587,108.473 135.587,89.4728 135,70.5C 138.71,66.4301 143.21,65.4301 148.5,67.5C 148.833,68.1667 149.167,68.8333 149.5,69.5C 147.8,74.6947 146.633,80.028 146,85.5C 144.12,103.872 144.287,122.205 146.5,140.5C 146.922,147.241 143.922,150.407 137.5,150C 119.024,130.517 101.858,110.017 86,88.5C 84.9295,95.9486 84.4295,103.449 84.5,111C 84.768,122.995 85.268,134.828 86,146.5C 84.4059,148.297 82.4059,149.297 80,149.5C 77.6925,149.12 75.3591,148.786 73,148.5C 72.0153,146.634 71.5153,144.634 71.5,142.5C 72.5273,136.863 73.3606,131.197 74,125.5C 74.7126,106.835 75.3793,88.1683 76,69.5C 77.1451,68.3636 78.3117,67.3636 79.5,66.5 Z"/></g>
<g><path style="opacity:1" fill="#f7f8f7" d="M 394.5,66.5 C 407.047,68.8035 419.714,69.1368 432.5,67.5C 438.507,67.0094 440.674,69.6761 439,75.5C 438.727,77.3289 437.893,78.8289 436.5,80C 424.915,78.7763 413.248,77.943 401.5,77.5C 400.441,85.1891 400.441,92.8558 401.5,100.5C 404.302,100.982 407.135,101.316 410,101.5C 416.477,100.559 422.977,99.8923 429.5,99.5C 429.665,102.85 429.498,106.183 429,109.5C 428.167,110.333 427.333,111.167 426.5,112C 417.807,112.054 409.141,111.554 400.5,110.5C 399.908,115.966 399.575,121.466 399.5,127C 399.357,132.005 399.857,136.839 401,141.5C 412.459,140.185 423.959,138.852 435.5,137.5C 436.442,137.608 437.275,137.941 438,138.5C 438.667,141.833 438.667,145.167 438,148.5C 437.5,149.667 436.667,150.5 435.5,151C 426.144,151.05 416.81,150.55 407.5,149.5C 401.853,149.295 396.353,149.961 391,151.5C 389.289,151.561 387.956,150.894 387,149.5C 388.69,124.079 388.857,98.5794 387.5,73C 387.585,71.8926 387.919,70.8926 388.5,70C 390.473,69.5045 392.473,69.3379 394.5,69.5C 394.5,68.5 394.5,67.5 394.5,66.5 Z"/></g>
<g><path style="opacity:1" fill="#f8f9f8" d="M 261.5,67.5 C 272.415,66.3229 282.748,68.1563 292.5,73C 302.238,81.2558 304.071,91.0891 298,102.5C 293.646,107.589 288.48,111.589 282.5,114.5C 293.635,122.626 305.302,129.96 317.5,136.5C 319.6,144.546 316.6,148.712 308.5,149C 306.205,145.703 303.538,142.703 300.5,140C 290.033,133.698 279.7,127.198 269.5,120.5C 268.749,129.156 268.583,137.822 269,146.5C 266.46,149.076 263.293,150.41 259.5,150.5C 256.231,149.44 254.565,147.107 254.5,143.5C 255.865,140.313 256.699,136.98 257,133.5C 257.777,113.987 257.611,94.487 256.5,75C 256.051,70.9686 257.718,68.4686 261.5,67.5 Z"/></g>
<g><path style="opacity:1" fill="#315927" d="M 201.5,76.5 C 220.309,75.6394 230.309,84.6394 231.5,103.5C 227.619,136.863 210.286,146.697 179.5,133C 177.754,129.58 175.587,126.413 173,123.5C 168.088,104.888 173.421,90.2213 189,79.5C 189.725,80.0585 190.558,80.3918 191.5,80.5C 194.954,79.2883 198.288,77.9549 201.5,76.5 Z"/></g>
<g><path style="opacity:1" fill="#335b29" d="M 269.5,76.5 C 286.156,75.9857 291.99,83.6523 287,99.5C 282.161,104.505 276.328,107.838 269.5,109.5C 268.191,98.4387 268.191,87.4387 269.5,76.5 Z"/></g>
<g><path style="opacity:1" fill="#fedc31" d="M 351.5,183.5 C 367.5,183.5 383.5,183.5 399.5,183.5C 399.5,188.833 399.5,194.167 399.5,199.5C 383.5,199.5 367.5,199.5 351.5,199.5C 351.5,194.167 351.5,188.833 351.5,183.5 Z"/></g>
<g><path style="opacity:1" fill="#835a2f" d="M 63.5,215.5 C 191.5,215.5 319.5,215.5 447.5,215.5C 447.5,220.833 447.5,226.167 447.5,231.5C 319.5,231.5 191.5,231.5 63.5,231.5C 63.5,226.167 63.5,220.833 63.5,215.5 Z"/></g>
<g><path style="opacity:0.997" fill="#000000" d="M -0.5,343.5 C -0.5,327.5 -0.5,311.5 -0.5,295.5C 15.5,295.5 31.5,295.5 47.5,295.5C 47.2049,284.925 51.8716,277.425 61.5,273C 80.7709,271.851 100.104,271.351 119.5,271.5C 137.833,271.667 156.167,271.833 174.5,272C 185.802,275.796 191.468,283.629 191.5,295.5C 207.5,295.5 223.5,295.5 239.5,295.5C 239.5,311.5 239.5,327.5 239.5,343.5C 234.167,343.5 228.833,343.5 223.5,343.5C 223.5,386.167 223.5,428.833 223.5,471.5C 218.167,471.5 212.833,471.5 207.5,471.5C 207.5,428.833 207.5,386.167 207.5,343.5C 201.794,343.171 196.128,343.505 190.5,344.5C 184.05,357.224 173.716,362.224 159.5,359.5C 159.5,372.833 159.5,386.167 159.5,399.5C 170.167,399.5 180.833,399.5 191.5,399.5C 191.5,415.5 191.5,431.5 191.5,447.5C 186.167,447.5 180.833,447.5 175.5,447.5C 175.5,466.167 175.5,484.833 175.5,503.5C 170.167,503.5 164.833,503.5 159.5,503.5C 159.5,484.833 159.5,466.167 159.5,447.5C 132.833,447.5 106.167,447.5 79.5,447.5C 79.5,466.167 79.5,484.833 79.5,503.5C 74.1667,503.5 68.8333,503.5 63.5,503.5C 63.5,484.833 63.5,466.167 63.5,447.5C 58.1667,447.5 52.8333,447.5 47.5,447.5C 47.5,431.5 47.5,415.5 47.5,399.5C 58.1667,399.5 68.8333,399.5 79.5,399.5C 79.5,386.167 79.5,372.833 79.5,359.5C 65.2837,362.224 54.9504,357.224 48.5,344.5C 42.8722,343.505 37.2055,343.171 31.5,343.5C 31.5,386.167 31.5,428.833 31.5,471.5C 26.1667,471.5 20.8333,471.5 15.5,471.5C 15.5,428.833 15.5,386.167 15.5,343.5C 10.1667,343.5 4.83333,343.5 -0.5,343.5 Z M 95.5,359.5 C 111.5,359.5 127.5,359.5 143.5,359.5C 143.5,372.833 143.5,386.167 143.5,399.5C 127.5,399.5 111.5,399.5 95.5,399.5C 95.5,386.167 95.5,372.833 95.5,359.5 Z"/></g>
<g><path style="opacity:0.997" fill="#000000" d="M 511.5,295.5 C 511.5,311.5 511.5,327.5 511.5,343.5C 506.167,343.5 500.833,343.5 495.5,343.5C 495.5,386.167 495.5,428.833 495.5,471.5C 490.167,471.5 484.833,471.5 479.5,471.5C 479.5,428.833 479.5,386.167 479.5,343.5C 473.794,343.171 468.128,343.505 462.5,344.5C 456.05,357.224 445.716,362.224 431.5,359.5C 431.5,372.833 431.5,386.167 431.5,399.5C 442.167,399.5 452.833,399.5 463.5,399.5C 463.5,415.5 463.5,431.5 463.5,447.5C 458.167,447.5 452.833,447.5 447.5,447.5C 447.5,466.167 447.5,484.833 447.5,503.5C 442.167,503.5 436.833,503.5 431.5,503.5C 431.5,484.833 431.5,466.167 431.5,447.5C 404.833,447.5 378.167,447.5 351.5,447.5C 351.5,466.167 351.5,484.833 351.5,503.5C 346.167,503.5 340.833,503.5 335.5,503.5C 335.5,484.833 335.5,466.167 335.5,447.5C 330.167,447.5 324.833,447.5 319.5,447.5C 319.5,431.5 319.5,415.5 319.5,399.5C 330.167,399.5 340.833,399.5 351.5,399.5C 351.5,386.167 351.5,372.833 351.5,359.5C 337.284,362.224 326.95,357.224 320.5,344.5C 314.872,343.505 309.206,343.171 303.5,343.5C 303.5,386.167 303.5,428.833 303.5,471.5C 298.167,471.5 292.833,471.5 287.5,471.5C 287.5,428.833 287.5,386.167 287.5,343.5C 282.167,343.5 276.833,343.5 271.5,343.5C 271.5,327.5 271.5,311.5 271.5,295.5C 287.5,295.5 303.5,295.5 319.5,295.5C 319.205,284.925 323.872,277.425 333.5,273C 352.771,271.851 372.104,271.351 391.5,271.5C 409.833,271.667 428.167,271.833 446.5,272C 457.802,275.796 463.468,283.629 463.5,295.5C 479.5,295.5 495.5,295.5 511.5,295.5 Z M 367.5,359.5 C 383.5,359.5 399.5,359.5 415.5,359.5C 415.5,372.833 415.5,386.167 415.5,399.5C 399.5,399.5 383.5,399.5 367.5,399.5C 367.5,386.167 367.5,372.833 367.5,359.5 Z"/></g>
<g><path style="opacity:1" fill="#da3939" d="M 68.5,287.5 C 102.502,287.333 136.502,287.5 170.5,288C 172.667,288.833 174.167,290.333 175,292.5C 175.667,307.833 175.667,323.167 175,338.5C 174.167,340.667 172.667,342.167 170.5,343C 136.5,343.667 102.5,343.667 68.5,343C 66.3333,342.167 64.8333,340.667 64,338.5C 63.3333,323.167 63.3333,307.833 64,292.5C 65.025,290.313 66.525,288.646 68.5,287.5 Z"/></g>
<g><path style="opacity:1" fill="#da3939" d="M 340.5,287.5 C 374.502,287.333 408.502,287.5 442.5,288C 444.667,288.833 446.167,290.333 447,292.5C 447.667,307.833 447.667,323.167 447,338.5C 446.167,340.667 444.667,342.167 442.5,343C 408.5,343.667 374.5,343.667 340.5,343C 338.333,342.167 336.833,340.667 336,338.5C 335.333,323.167 335.333,307.833 336,292.5C 337.025,290.313 338.525,288.646 340.5,287.5 Z"/></g>
<g><path style="opacity:1" fill="#bbc1c3" d="M 15.5,311.5 C 26.1667,311.5 36.8333,311.5 47.5,311.5C 47.5,316.833 47.5,322.167 47.5,327.5C 36.8333,327.5 26.1667,327.5 15.5,327.5C 15.5,322.167 15.5,316.833 15.5,311.5 Z"/></g>
<g><path style="opacity:1" fill="#bbc1c3" d="M 191.5,311.5 C 202.167,311.5 212.833,311.5 223.5,311.5C 223.5,316.833 223.5,322.167 223.5,327.5C 212.833,327.5 202.167,327.5 191.5,327.5C 191.5,322.167 191.5,316.833 191.5,311.5 Z"/></g>
<g><path style="opacity:1" fill="#bbc1c3" d="M 287.5,311.5 C 298.167,311.5 308.833,311.5 319.5,311.5C 319.5,316.833 319.5,322.167 319.5,327.5C 308.833,327.5 298.167,327.5 287.5,327.5C 287.5,322.167 287.5,316.833 287.5,311.5 Z"/></g>
<g><path style="opacity:1" fill="#bbc1c3" d="M 463.5,311.5 C 474.167,311.5 484.833,311.5 495.5,311.5C 495.5,316.833 495.5,322.167 495.5,327.5C 484.833,327.5 474.167,327.5 463.5,327.5C 463.5,322.167 463.5,316.833 463.5,311.5 Z"/></g>
<g><path style="opacity:1" fill="#da3a39" d="M 63.5,415.5 C 100.833,415.5 138.167,415.5 175.5,415.5C 175.5,420.833 175.5,426.167 175.5,431.5C 138.167,431.5 100.833,431.5 63.5,431.5C 63.5,426.167 63.5,420.833 63.5,415.5 Z"/></g>
<g><path style="opacity:1" fill="#da3a39" d="M 335.5,415.5 C 372.833,415.5 410.167,415.5 447.5,415.5C 447.5,420.833 447.5,426.167 447.5,431.5C 410.167,431.5 372.833,431.5 335.5,431.5C 335.5,426.167 335.5,420.833 335.5,415.5 Z"/></g>
</svg>
