<?xml version="1.0" encoding="UTF-8"?>
<!DOCTYPE svg PUBLIC "-//W3C//DTD SVG 1.1//EN" "http://www.w3.org/Graphics/SVG/1.1/DTD/svg11.dtd">
<svg xmlns="http://www.w3.org/2000/svg" version="1.1" width="512px" height="512px" style="shape-rendering:geometricPrecision; text-rendering:geometricPrecision; image-rendering:optimizeQuality; fill-rule:evenodd; clip-rule:evenodd" xmlns:xlink="http://www.w3.org/1999/xlink">
<g><path style="opacity:1" fill="#000000" d="M 47.5,7.5 C 186.167,7.5 324.833,7.5 463.5,7.5C 463.5,87.5 463.5,167.5 463.5,247.5C 324.833,247.5 186.167,247.5 47.5,247.5C 47.5,167.5 47.5,87.5 47.5,7.5 Z"/></g>
<g><path style="opacity:1" fill="#305926" d="M 63.5,23.5 C 191.5,23.5 319.5,23.5 447.5,23.5C 447.5,82.1667 447.5,140.833 447.5,199.5C 436.833,199.5 426.167,199.5 415.5,199.5C 415.5,188.833 415.5,178.167 415.5,167.5C 388.833,167.5 362.167,167.5 335.5,167.5C 335.5,178.167 335.5,188.833 335.5,199.5C 244.833,199.5 154.167,199.5 63.5,199.5C 63.5,140.833 63.5,82.1667 63.5,23.5 Z"/></g>
<g><path style="opacity:1" fill="#f7f8f7" d="M 294.5,62.5 C 305.169,61.0791 315.169,62.9125 324.5,68C 333.74,77.9392 333.74,87.9392 324.5,98C 321.032,99.9698 317.699,102.136 314.5,104.5C 324.306,111.813 334.472,118.479 345,124.5C 346.455,131.148 343.955,134.648 337.5,135C 334.5,132 331.5,129 328.5,126C 319.745,120.874 311.245,115.374 303,109.5C 302.667,117.5 302.333,125.5 302,133.5C 301.632,134.91 300.799,135.91 299.5,136.5C 297.007,136.4 294.507,136.067 292,135.5C 290.207,131.548 290.207,127.548 292,123.5C 292.794,105.149 292.628,86.8154 291.5,68.5C 291.628,66.0452 292.628,64.0452 294.5,62.5 Z"/></g>
<g><path style="opacity:1" fill="#f6f7f6" d="M 192.5,62.5 C 196.598,62.918 200.598,63.7514 204.5,65C 206.26,74.9086 202.76,77.4086 194,72.5C 182.519,73.648 179.352,79.148 184.5,89C 187.789,91.4776 191.456,93.1442 195.5,94C 208.401,102.86 210.901,114.026 203,127.5C 194.307,136.263 183.807,140.096 171.5,139C 169.379,135.826 169.046,132.493 170.5,129C 178.178,130.499 185.511,129.499 192.5,126C 198,120.833 198.833,115 195,108.5C 188.39,104.068 181.89,99.4009 175.5,94.5C 168.725,83.4209 170.725,74.2543 181.5,67C 185.497,65.938 189.164,64.438 192.5,62.5 Z"/></g>
<g><path style="opacity:1" fill="#f6f6f5" d="M 221.5,63.5 C 224.475,63.3069 226.975,64.3069 229,66.5C 227.935,84.3206 229.268,101.987 233,119.5C 236.048,125.306 240.881,127.472 247.5,126C 250.102,125.117 252.269,123.617 254,121.5C 265.212,104.531 271.212,85.8647 272,65.5C 273.299,64.0203 274.966,63.3536 277,63.5C 279.239,64.0911 281.406,64.7578 283.5,65.5C 280.614,84.7504 274.781,103.084 266,120.5C 261.17,127.667 254.836,133.001 247,136.5C 243.662,136.162 240.329,136.162 237,136.5C 229.142,134.977 224.142,130.311 222,122.5C 220.108,105.457 217.941,88.457 215.5,71.5C 215.635,67.3724 217.635,64.7058 221.5,63.5 Z"/></g>
<g><path style="opacity:1" fill="#325a28" d="M 302.5,70.5 C 316.451,69.6125 321.951,75.9459 319,89.5C 315.022,95.2436 309.522,98.5769 302.5,99.5C 302.5,89.8333 302.5,80.1667 302.5,70.5 Z"/></g>
<g><path style="opacity:1" fill="#fedc31" d="M 351.5,183.5 C 367.5,183.5 383.5,183.5 399.5,183.5C 399.5,188.833 399.5,194.167 399.5,199.5C 383.5,199.5 367.5,199.5 351.5,199.5C 351.5,194.167 351.5,188.833 351.5,183.5 Z"/></g>
<g><path style="opacity:1" fill="#835a2f" d="M 63.5,215.5 C 191.5,215.5 319.5,215.5 447.5,215.5C 447.5,220.833 447.5,226.167 447.5,231.5C 319.5,231.5 191.5,231.5 63.5,231.5C 63.5,226.167 63.5,220.833 63.5,215.5 Z"/></g>
<g><path style="opacity:0.997" fill="#000000" d="M -0.5,343.5 C -0.5,327.5 -0.5,311.5 -0.5,295.5C 15.5,295.5 31.5,295.5 47.5,295.5C 47.2049,284.925 51.8716,277.425 61.5,273C 80.7709,271.851 100.104,271.351 119.5,271.5C 137.833,271.667 156.167,271.833 174.5,272C 185.802,275.796 191.468,283.629 191.5,295.5C 207.5,295.5 223.5,295.5 239.5,295.5C 239.5,311.5 239.5,327.5 239.5,343.5C 234.167,343.5 228.833,343.5 223.5,343.5C 223.5,386.167 223.5,428.833 223.5,471.5C 218.167,471.5 212.833,471.5 207.5,471.5C 207.5,428.833 207.5,386.167 207.5,343.5C 201.794,343.171 196.128,343.505 190.5,344.5C 184.05,357.224 173.716,362.224 159.5,359.5C 159.5,372.833 159.5,386.167 159.5,399.5C 170.167,399.5 180.833,399.5 191.5,399.5C 191.5,415.5 191.5,431.5 191.5,447.5C 186.167,447.5 180.833,447.5 175.5,447.5C 175.5,466.167 175.5,484.833 175.5,503.5C 170.167,503.5 164.833,503.5 159.5,503.5C 159.5,484.833 159.5,466.167 159.5,447.5C 132.833,447.5 106.167,447.5 79.5,447.5C 79.5,466.167 79.5,484.833 79.5,503.5C 74.1667,503.5 68.8333,503.5 63.5,503.5C 63.5,484.833 63.5,466.167 63.5,447.5C 58.1667,447.5 52.8333,447.5 47.5,447.5C 47.5,431.5 47.5,415.5 47.5,399.5C 58.1667,399.5 68.8333,399.5 79.5,399.5C 79.5,386.167 79.5,372.833 79.5,359.5C 65.2837,362.224 54.9504,357.224 48.5,344.5C 42.8722,343.505 37.2055,343.171 31.5,343.5C 31.5,386.167 31.5,428.833 31.5,471.5C 26.1667,471.5 20.8333,471.5 15.5,471.5C 15.5,428.833 15.5,386.167 15.5,343.5C 10.1667,343.5 4.83333,343.5 -0.5,343.5 Z M 95.5,359.5 C 111.5,359.5 127.5,359.5 143.5,359.5C 143.5,372.833 143.5,386.167 143.5,399.5C 127.5,399.5 111.5,399.5 95.5,399.5C 95.5,386.167 95.5,372.833 95.5,359.5 Z"/></g>
<g><path style="opacity:0.997" fill="#000000" d="M 511.5,295.5 C 511.5,311.5 511.5,327.5 511.5,343.5C 506.167,343.5 500.833,343.5 495.5,343.5C 495.5,386.167 495.5,428.833 495.5,471.5C 490.167,471.5 484.833,471.5 479.5,471.5C 479.5,428.833 479.5,386.167 479.5,343.5C 473.794,343.171 468.128,343.505 462.5,344.5C 456.05,357.224 445.716,362.224 431.5,359.5C 431.5,372.833 431.5,386.167 431.5,399.5C 442.167,399.5 452.833,399.5 463.5,399.5C 463.5,415.5 463.5,431.5 463.5,447.5C 458.167,447.5 452.833,447.5 447.5,447.5C 447.5,466.167 447.5,484.833 447.5,503.5C 442.167,503.5 436.833,503.5 431.5,503.5C 431.5,484.833 431.5,466.167 431.5,447.5C 404.833,447.5 378.167,447.5 351.5,447.5C 351.5,466.167 351.5,484.833 351.5,503.5C 346.167,503.5 340.833,503.5 335.5,503.5C 335.5,484.833 335.5,466.167 335.5,447.5C 330.167,447.5 324.833,447.5 319.5,447.5C 319.5,431.5 319.5,415.5 319.5,399.5C 330.167,399.5 340.833,399.5 351.5,399.5C 351.5,386.167 351.5,372.833 351.5,359.5C 337.284,362.224 326.95,357.224 320.5,344.5C 314.872,343.505 309.206,343.171 303.5,343.5C 303.5,386.167 303.5,428.833 303.5,471.5C 298.167,471.5 292.833,471.5 287.5,471.5C 287.5,428.833 287.5,386.167 287.5,343.5C 282.167,343.5 276.833,343.5 271.5,343.5C 271.5,327.5 271.5,311.5 271.5,295.5C 287.5,295.5 303.5,295.5 319.5,295.5C 319.205,284.925 323.872,277.425 333.5,273C 352.771,271.851 372.104,271.351 391.5,271.5C 409.833,271.667 428.167,271.833 446.5,272C 457.802,275.796 463.468,283.629 463.5,295.5C 479.5,295.5 495.5,295.5 511.5,295.5 Z M 367.5,359.5 C 383.5,359.5 399.5,359.5 415.5,359.5C 415.5,372.833 415.5,386.167 415.5,399.5C 399.5,399.5 383.5,399.5 367.5,399.5C 367.5,386.167 367.5,372.833 367.5,359.5 Z"/></g>
<g><path style="opacity:1" fill="#da3939" d="M 68.5,287.5 C 102.502,287.333 136.502,287.5 170.5,288C 172.667,288.833 174.167,290.333 175,292.5C 175.667,307.833 175.667,323.167 175,338.5C 174.167,340.667 172.667,342.167 170.5,343C 136.5,343.667 102.5,343.667 68.5,343C 66.3333,342.167 64.8333,340.667 64,338.5C 63.3333,323.167 63.3333,307.833 64,292.5C 65.025,290.313 66.525,288.646 68.5,287.5 Z"/></g>
<g><path style="opacity:1" fill="#da3939" d="M 340.5,287.5 C 374.502,287.333 408.502,287.5 442.5,288C 444.667,288.833 446.167,290.333 447,292.5C 447.667,307.833 447.667,323.167 447,338.5C 446.167,340.667 444.667,342.167 442.5,343C 408.5,343.667 374.5,343.667 340.5,343C 338.333,342.167 336.833,340.667 336,338.5C 335.333,323.167 335.333,307.833 336,292.5C 337.025,290.313 338.525,288.646 340.5,287.5 Z"/></g>
<g><path style="opacity:1" fill="#bbc1c3" d="M 15.5,311.5 C 26.1667,311.5 36.8333,311.5 47.5,311.5C 47.5,316.833 47.5,322.167 47.5,327.5C 36.8333,327.5 26.1667,327.5 15.5,327.5C 15.5,322.167 15.5,316.833 15.5,311.5 Z"/></g>
<g><path style="opacity:1" fill="#bbc1c3" d="M 191.5,311.5 C 202.167,311.5 212.833,311.5 223.5,311.5C 223.5,316.833 223.5,322.167 223.5,327.5C 212.833,327.5 202.167,327.5 191.5,327.5C 191.5,322.167 191.5,316.833 191.5,311.5 Z"/></g>
<g><path style="opacity:1" fill="#bbc1c3" d="M 287.5,311.5 C 298.167,311.5 308.833,311.5 319.5,311.5C 319.5,316.833 319.5,322.167 319.5,327.5C 308.833,327.5 298.167,327.5 287.5,327.5C 287.5,322.167 287.5,316.833 287.5,311.5 Z"/></g>
<g><path style="opacity:1" fill="#bbc1c3" d="M 463.5,311.5 C 474.167,311.5 484.833,311.5 495.5,311.5C 495.5,316.833 495.5,322.167 495.5,327.5C 484.833,327.5 474.167,327.5 463.5,327.5C 463.5,322.167 463.5,316.833 463.5,311.5 Z"/></g>
<g><path style="opacity:1" fill="#da3a39" d="M 63.5,415.5 C 100.833,415.5 138.167,415.5 175.5,415.5C 175.5,420.833 175.5,426.167 175.5,431.5C 138.167,431.5 100.833,431.5 63.5,431.5C 63.5,426.167 63.5,420.833 63.5,415.5 Z"/></g>
<g><path style="opacity:1" fill="#da3a39" d="M 335.5,415.5 C 372.833,415.5 410.167,415.5 447.5,415.5C 447.5,420.833 447.5,426.167 447.5,431.5C 410.167,431.5 372.833,431.5 335.5,431.5C 335.5,426.167 335.5,420.833 335.5,415.5 Z"/></g>
</svg>
