<?xml version="1.0" encoding="UTF-8"?>
<!DOCTYPE svg PUBLIC "-//W3C//DTD SVG 1.1//EN" "http://www.w3.org/Graphics/SVG/1.1/DTD/svg11.dtd">
<svg xmlns="http://www.w3.org/2000/svg" version="1.1" width="512px" height="512px" style="shape-rendering:geometricPrecision; text-rendering:geometricPrecision; image-rendering:optimizeQuality; fill-rule:evenodd; clip-rule:evenodd" xmlns:xlink="http://www.w3.org/1999/xlink">
<g><path style="opacity:0.975" fill="#000101" d="M 113.5,-0.5 C 122.833,-0.5 132.167,-0.5 141.5,-0.5C 187.641,8.78719 219.475,35.4539 237,79.5C 256.438,134.445 248.771,185.112 214,231.5C 206.058,240.448 197.225,248.281 187.5,255C 208.833,255.333 230.167,255.667 251.5,256C 252.667,257.167 253.833,258.333 255,259.5C 258.949,292.741 248.116,319.908 222.5,341C 207.257,351.805 190.257,357.972 171.5,359.5C 177.73,408.4 182.896,457.4 187,506.5C 186.003,508.323 184.836,509.99 183.5,511.5C 146.167,511.5 108.833,511.5 71.5,511.5C 68.3738,508.738 67.0405,505.238 67.5,501C 72.5066,453.774 77.8399,406.607 83.5,359.5C 37.7111,354.661 9.71113,329.994 -0.5,285.5C -0.5,276.833 -0.5,268.167 -0.5,259.5C 0.961599,258.542 2.29493,257.376 3.5,256C 24.8333,255.667 46.1667,255.333 67.5,255C 31.1797,228.545 11.3463,192.712 8,147.5C 4.80933,99.3806 20.6427,58.8806 55.5,26C 72.5245,11.9857 91.8579,3.15238 113.5,-0.5 Z"/></g>
<g><path style="opacity:0.995" fill="#000000" d="M 300.5,-0.5 C 367.167,-0.5 433.833,-0.5 500.5,-0.5C 505.167,2.16667 508.833,5.83333 511.5,10.5C 511.5,82.8333 511.5,155.167 511.5,227.5C 509.021,232.143 505.355,235.643 500.5,238C 433.833,238.667 367.167,238.667 300.5,238C 295.667,235.833 292.167,232.333 290,227.5C 289.333,155.167 289.333,82.8333 290,10.5C 292.357,5.64549 295.857,1.97883 300.5,-0.5 Z"/></g>
<g><path style="opacity:1" fill="#01a7f2" d="M 148.5,19.5 C 184.311,41.0322 204.978,72.6988 210.5,114.5C 138.73,109.306 82.2304,135.973 41,194.5C 40.3292,195.252 39.4959,195.586 38.5,195.5C 23.3971,160.9 21.5637,125.567 33,89.5C 47.4593,50.3674 74.9593,26.2007 115.5,17C 123.167,16.3333 130.833,16.3333 138.5,17C 142.038,17.5348 145.372,18.3681 148.5,19.5 Z"/></g>
<g><path style="opacity:1" fill="#00828e" d="M 391.5,16.5 C 391.5,67.5 391.5,118.5 391.5,169.5C 363.167,169.5 334.833,169.5 306.5,169.5C 306.5,118.5 306.5,67.5 306.5,16.5C 334.833,16.5 363.167,16.5 391.5,16.5 Z"/></g>
<g><path style="opacity:1" fill="#004a50" d="M 391.5,16.5 C 392.499,67.664 392.832,118.997 392.5,170.5C 363.662,170.831 334.995,170.498 306.5,169.5C 334.833,169.5 363.167,169.5 391.5,169.5C 391.5,118.5 391.5,67.5 391.5,16.5 Z"/></g>
<g><path style="opacity:1" fill="#007f8a" d="M 409.5,16.5 C 409.5,67.5 409.5,118.5 409.5,169.5C 432.167,169.5 454.833,169.5 477.5,169.5C 477.5,118.5 477.5,67.5 477.5,16.5C 483.167,16.5 488.833,16.5 494.5,16.5C 494.5,67.8333 494.5,119.167 494.5,170.5C 465.833,170.5 437.167,170.5 408.5,170.5C 408.168,118.997 408.501,67.664 409.5,16.5 Z"/></g>
<g><path style="opacity:1" fill="#00bbd3" d="M 409.5,16.5 C 432.167,16.5 454.833,16.5 477.5,16.5C 477.5,67.5 477.5,118.5 477.5,169.5C 454.833,169.5 432.167,169.5 409.5,169.5C 409.5,118.5 409.5,67.5 409.5,16.5 Z"/></g>
<g><path style="opacity:1" fill="#0276bb" d="M 148.5,19.5 C 175.456,26.948 196.29,42.6146 211,66.5C 229.761,98.7411 234.761,133.074 226,169.5C 218.156,200.994 200.656,225.494 173.5,243C 153.805,253.972 132.805,257.806 110.5,254.5C 110.031,238.737 110.531,223.071 112,207.5C 112.903,206.299 114.069,205.465 115.5,205C 120.5,204.333 125.5,204.333 130.5,205C 132.286,205.785 133.786,206.951 135,208.5C 135.904,212.111 137.071,215.611 138.5,219C 143.851,222.663 148.351,221.83 152,216.5C 153.599,201.548 147.099,192.048 132.5,188C 125.833,187.333 119.167,187.333 112.5,188C 103,190.833 96.8333,197 94,206.5C 93.8328,220.512 93.3328,234.512 92.5,248.5C 68.5337,236.867 50.5337,219.2 38.5,195.5C 39.4959,195.586 40.3292,195.252 41,194.5C 82.2304,135.973 138.73,109.306 210.5,114.5C 204.978,72.6988 184.311,41.0322 148.5,19.5 Z"/></g>
<g><path style="opacity:1" fill="#000204" d="M 98.5,42.5 C 108.562,41.7184 112.062,46.0517 109,55.5C 96.8333,67.6667 84.6667,79.8333 72.5,92C 67.2707,94.7101 63.104,93.5435 60,88.5C 59.2099,85.366 59.5432,82.366 61,79.5C 73.3951,66.9375 85.8951,54.6041 98.5,42.5 Z"/></g>
<g><path style="opacity:1" fill="#010304" d="M 149.5,42.5 C 159.562,41.7184 163.062,46.0517 160,55.5C 127.833,87.6667 95.6667,119.833 63.5,152C 56.0877,154.134 51.7543,151.467 50.5,144C 50.8584,141.968 51.6917,140.134 53,138.5C 85.0616,106.271 117.228,74.2714 149.5,42.5 Z"/></g>
<g><path style="opacity:1" fill="#010405" d="M 363.5,84.5 C 368.959,84.1033 374.292,84.6033 379.5,86C 384.94,91.442 384.607,96.442 378.5,101C 373.167,101.667 367.833,101.667 362.5,101C 358.212,97.2288 357.379,92.7288 360,87.5C 361.518,86.8366 362.685,85.8366 363.5,84.5 Z"/></g>
<g><path style="opacity:1" fill="#030809" d="M 423.5,84.5 C 429.434,83.8887 435.1,84.722 440.5,87C 444.776,92.3019 444.109,96.9686 438.5,101C 432.388,101.909 426.388,101.576 420.5,100C 415.928,93.6943 416.928,88.5276 423.5,84.5 Z"/></g>
<g><path style="opacity:1" fill="#3e50b4" d="M 477.5,187.5 C 477.5,198.833 477.5,210.167 477.5,221.5C 420.5,221.5 363.5,221.5 306.5,221.5C 306.5,210.167 306.5,198.833 306.5,187.5C 363.5,187.5 420.5,187.5 477.5,187.5 Z"/></g>
<g><path style="opacity:1" fill="#273492" d="M 477.5,187.5 C 483.167,187.5 488.833,187.5 494.5,187.5C 494.5,198.833 494.5,210.167 494.5,221.5C 488.833,221.5 483.167,221.5 477.5,221.5C 477.5,210.167 477.5,198.833 477.5,187.5 Z"/></g>
<g><path style="opacity:0.971" fill="#010000" d="M 511.5,302.5 C 511.5,305.5 511.5,308.5 511.5,311.5C 509.99,312.836 508.323,314.003 506.5,315C 502.514,315.499 498.514,315.666 494.5,315.5C 494.879,320.297 494.379,324.964 493,329.5C 487.643,333.787 482.643,333.453 478,328.5C 476.71,324.27 476.21,319.936 476.5,315.5C 471.167,315.5 465.833,315.5 460.5,315.5C 460.667,348.502 460.5,381.502 460,414.5C 458.193,420.307 454.36,424.141 448.5,426C 441.174,426.5 433.841,426.666 426.5,426.5C 429.213,439.253 424.546,447.753 412.5,452C 387.5,452.667 362.5,452.667 337.5,452C 331.183,450.353 326.683,446.52 324,440.5C 323.5,398.835 323.333,357.168 323.5,315.5C 318.167,315.5 312.833,315.5 307.5,315.5C 308.655,321.971 306.989,327.471 302.5,332C 298.171,333.151 294.338,332.318 291,329.5C 289.621,324.964 289.121,320.297 289.5,315.5C 284.703,315.879 280.036,315.379 275.5,314C 271.949,309.585 271.616,304.918 274.5,300C 279.223,297.765 284.223,296.931 289.5,297.5C 289.334,293.486 289.501,289.486 290,285.5C 294.902,279.258 300.236,278.925 306,284.5C 307.29,288.73 307.79,293.064 307.5,297.5C 312.833,297.5 318.167,297.5 323.5,297.5C 320.977,282.158 326.643,271.325 340.5,265C 357.616,263.861 374.783,263.361 392,263.5C 407.833,263.667 423.667,263.833 439.5,264C 456.177,268.816 463.177,279.982 460.5,297.5C 465.833,297.5 471.167,297.5 476.5,297.5C 475.959,292.551 476.792,287.884 479,283.5C 484.706,279.109 489.706,279.776 494,285.5C 494.499,289.486 494.666,293.486 494.5,297.5C 498.182,297.335 501.848,297.501 505.5,298C 508.146,298.804 510.146,300.304 511.5,302.5 Z"/></g>
<g><path style="opacity:1" fill="#f3f3f3" d="M 221.5,272.5 C 220.919,290.746 215.085,307.079 204,321.5C 197.858,328.152 191.358,334.152 184.5,339.5C 147.189,340.642 109.856,340.808 72.5,340C 52.4041,335.227 36.7375,324.227 25.5,307C 37.8333,306.667 50.1667,306.333 62.5,306C 67.7891,302.49 68.7891,297.99 65.5,292.5C 64.3349,291.416 63.0016,290.583 61.5,290C 47.1705,289.5 32.8372,289.333 18.5,289.5C 17.4598,283.884 16.7931,278.217 16.5,272.5C 84.8333,272.5 153.167,272.5 221.5,272.5 Z"/></g>
<g><path style="opacity:1" fill="#ccd5d9" d="M 221.5,272.5 C 227.167,272.5 232.833,272.5 238.5,272.5C 235.95,307.375 217.95,329.708 184.5,339.5C 191.358,334.152 197.858,328.152 204,321.5C 215.085,307.079 220.919,290.746 221.5,272.5 Z"/></g>
<g><path style="opacity:1" fill="#fdda00" d="M 393.5,281.5 C 392.509,332.458 392.176,383.458 392.5,434.5C 375.167,434.5 357.833,434.5 340.5,434.5C 340.333,385.499 340.5,336.499 341,287.5C 341.685,284.943 343.185,283.109 345.5,282C 361.497,281.5 377.497,281.333 393.5,281.5 Z"/></g>
<g><path style="opacity:1" fill="#f8bc07" d="M 393.5,281.5 C 399.176,281.334 404.843,281.501 410.5,282C 409.503,332.762 409.169,383.595 409.5,434.5C 403.833,434.5 398.167,434.5 392.5,434.5C 392.176,383.458 392.509,332.458 393.5,281.5 Z"/></g>
<g><path style="opacity:1" fill="#fc9601" d="M 442.5,286.5 C 442.5,290.167 442.5,293.833 442.5,297.5C 437.167,297.5 431.833,297.5 426.5,297.5C 426.5,294.5 426.5,291.5 426.5,288.5C 427.941,281.949 431.941,279.783 438.5,282C 440.644,282.792 441.977,284.292 442.5,286.5 Z"/></g>
<g><path style="opacity:1" fill="#080808" d="M 90.5,289.5 C 95.9302,289.161 101.264,289.661 106.5,291C 111.969,296.798 111.302,301.798 104.5,306C 99.5,306.667 94.5,306.667 89.5,306C 82.6707,300.003 83.004,294.503 90.5,289.5 Z"/></g>
<g><path style="opacity:1" fill="#955901" d="M 442.5,286.5 C 443.483,290.298 443.817,294.298 443.5,298.5C 437.5,298.5 431.5,298.5 425.5,298.5C 425.187,294.958 425.521,291.625 426.5,288.5C 426.5,291.5 426.5,294.5 426.5,297.5C 431.833,297.5 437.167,297.5 442.5,297.5C 442.5,293.833 442.5,290.167 442.5,286.5 Z"/></g>
<g><path style="opacity:1" fill="#955901" d="M 426.5,315.5 C 426.5,346.5 426.5,377.5 426.5,408.5C 431.833,408.5 437.167,408.5 442.5,408.5C 442.5,377.5 442.5,346.5 442.5,315.5C 443.498,346.662 443.832,377.996 443.5,409.5C 437.5,409.5 431.5,409.5 425.5,409.5C 425.168,377.996 425.502,346.662 426.5,315.5 Z"/></g>
<g><path style="opacity:1" fill="#fe9800" d="M 426.5,315.5 C 431.833,315.5 437.167,315.5 442.5,315.5C 442.5,346.5 442.5,377.5 442.5,408.5C 437.167,408.5 431.833,408.5 426.5,408.5C 426.5,377.5 426.5,346.5 426.5,315.5 Z"/></g>
<g><path style="opacity:1" fill="#9d9d9d" d="M 138.5,358.5 C 142.95,403.898 147.95,449.232 153.5,494.5C 130.833,494.5 108.167,494.5 85.5,494.5C 90.7917,449.208 95.7917,403.875 100.5,358.5C 113.167,358.5 125.833,358.5 138.5,358.5 Z"/></g>
<g><path style="opacity:1" fill="#6e6e6e" d="M 138.5,358.5 C 143.833,358.5 149.167,358.5 154.5,358.5C 159.353,403.848 164.353,449.181 169.5,494.5C 164.167,494.5 158.833,494.5 153.5,494.5C 147.95,449.232 142.95,403.898 138.5,358.5 Z"/></g>
</svg>
