<?xml version="1.0" encoding="UTF-8"?>
<!DOCTYPE svg PUBLIC "-//W3C//DTD SVG 1.1//EN" "http://www.w3.org/Graphics/SVG/1.1/DTD/svg11.dtd">
<svg xmlns="http://www.w3.org/2000/svg" version="1.1" width="512px" height="512px" style="shape-rendering:geometricPrecision; text-rendering:geometricPrecision; image-rendering:optimizeQuality; fill-rule:evenodd; clip-rule:evenodd" xmlns:xlink="http://www.w3.org/1999/xlink">
<g><path style="opacity:0.997" fill="#000000" d="M 4.5,-0.5 C 21.1667,-0.5 37.8333,-0.5 54.5,-0.5C 56.1343,0.971672 57.6343,2.63834 59,4.5C 59.4966,6.80982 59.6633,9.14316 59.5,11.5C 71.1714,11.3335 82.8381,11.5001 94.5,12C 98.1518,14.1447 99.8184,17.3113 99.5,21.5C 106.167,21.5 112.833,21.5 119.5,21.5C 119.182,17.3113 120.848,14.1447 124.5,12C 144.5,11.3333 164.5,11.3333 184.5,12C 186.333,13.1667 187.833,14.6667 189,16.5C 189.499,21.4889 189.666,26.4889 189.5,31.5C 196.167,31.5 202.833,31.5 209.5,31.5C 209.334,22.4938 209.5,13.4938 210,4.5C 211.366,2.63834 212.866,0.971672 214.5,-0.5C 241.167,-0.5 267.833,-0.5 294.5,-0.5C 296.134,0.971672 297.634,2.63834 299,4.5C 299.497,6.80982 299.663,9.14316 299.5,11.5C 306.167,11.5 312.833,11.5 319.5,11.5C 319.337,9.14316 319.503,6.80982 320,4.5C 321.366,2.63834 322.866,0.971672 324.5,-0.5C 341.167,-0.5 357.833,-0.5 374.5,-0.5C 376.134,0.971672 377.634,2.63834 379,4.5C 379.497,6.80982 379.663,9.14316 379.5,11.5C 403.5,11.5 427.5,11.5 451.5,11.5C 451.337,9.14316 451.503,6.80982 452,4.5C 453.366,2.63834 454.866,0.971672 456.5,-0.5C 473.167,-0.5 489.833,-0.5 506.5,-0.5C 508.167,1.16667 509.833,2.83333 511.5,4.5C 511.5,171.833 511.5,339.167 511.5,506.5C 509.833,508.167 508.167,509.833 506.5,511.5C 483.167,511.5 459.833,511.5 436.5,511.5C 431.754,507.658 430.254,502.658 432,496.5C 433.167,494.667 434.667,493.167 436.5,492C 441.489,491.501 446.489,491.334 451.5,491.5C 451.5,484.833 451.5,478.167 451.5,471.5C 320.833,471.5 190.167,471.5 59.5,471.5C 59.5,478.167 59.5,484.833 59.5,491.5C 77.8364,491.333 96.1697,491.5 114.5,492C 119.275,495.655 120.775,500.488 119,506.5C 117.634,508.362 116.134,510.028 114.5,511.5C 77.8333,511.5 41.1667,511.5 4.5,511.5C 2.83333,509.833 1.16667,508.167 -0.5,506.5C -0.5,339.167 -0.5,171.833 -0.5,4.5C 1.16667,2.83333 2.83333,1.16667 4.5,-0.5 Z M 59.5,151.5 C 112.833,151.5 166.167,151.5 219.5,151.5C 219.5,161.5 219.5,171.5 219.5,181.5C 206.167,181.5 192.833,181.5 179.5,181.5C 179.818,177.311 178.152,174.145 174.5,172C 157.833,171.333 141.167,171.333 124.5,172C 120.848,174.145 119.182,177.311 119.5,181.5C 112.833,181.5 106.167,181.5 99.5,181.5C 99.8184,177.311 98.1518,174.145 94.5,172C 82.8381,171.5 71.1714,171.333 59.5,171.5C 59.5,164.833 59.5,158.167 59.5,151.5 Z M 319.5,151.5 C 363.5,151.5 407.5,151.5 451.5,151.5C 451.5,198.167 451.5,244.833 451.5,291.5C 438.167,291.5 424.833,291.5 411.5,291.5C 411.667,256.498 411.5,221.498 411,186.5C 409.833,184.667 408.333,183.167 406.5,182C 390.837,181.5 375.17,181.333 359.5,181.5C 359.818,177.311 358.152,174.145 354.5,172C 342.838,171.5 331.171,171.333 319.5,171.5C 319.5,164.833 319.5,158.167 319.5,151.5 Z M 59.5,311.5 C 190.167,311.5 320.833,311.5 451.5,311.5C 451.5,323.833 451.5,336.167 451.5,348.5C 439.829,348.333 428.162,348.5 416.5,349C 414.667,350.167 413.167,351.667 412,353.5C 411.501,359.491 411.334,365.491 411.5,371.5C 404.833,371.5 398.167,371.5 391.5,371.5C 391.666,363.16 391.5,354.827 391,346.5C 389.833,344.667 388.333,343.167 386.5,342C 368.5,341.333 350.5,341.333 332.5,342C 330.667,343.167 329.167,344.667 328,346.5C 327.5,381.498 327.333,416.498 327.5,451.5C 316.162,451.667 304.828,451.5 293.5,451C 297.333,447.167 301.167,443.333 305,439.5C 306.504,435.961 306.837,432.295 306,428.5C 286.167,407.333 265.667,386.833 244.5,367C 241.5,366.333 238.5,366.333 235.5,367C 230.032,371.467 224.865,376.3 220,381.5C 219.667,372.167 219.333,362.833 219,353.5C 217.833,351.667 216.333,350.167 214.5,349C 197.833,348.333 181.167,348.333 164.5,349C 162.667,350.167 161.167,351.667 160,353.5C 159.5,386.165 159.333,418.832 159.5,451.5C 152.833,451.5 146.167,451.5 139.5,451.5C 139.667,418.832 139.5,386.165 139,353.5C 137.833,351.667 136.333,350.167 134.5,349C 122.838,348.5 111.171,348.333 99.5,348.5C 99.6655,344.486 99.4988,340.486 99,336.5C 97.8333,334.667 96.3333,333.167 94.5,332C 82.8381,331.5 71.1714,331.333 59.5,331.5C 59.5,324.833 59.5,318.167 59.5,311.5 Z M 219.5,428.5 C 227.298,435.798 234.965,443.298 242.5,451C 234.841,451.5 227.174,451.666 219.5,451.5C 219.5,443.833 219.5,436.167 219.5,428.5 Z"/></g>
<g><path style="opacity:1" fill="#ed3c31" d="M 19.5,19.5 C 26.1667,19.5 32.8333,19.5 39.5,19.5C 39.5,176.833 39.5,334.167 39.5,491.5C 32.8333,491.5 26.1667,491.5 19.5,491.5C 19.5,334.167 19.5,176.833 19.5,19.5 Z"/></g>
<g><path style="opacity:1" fill="#c7e7f8" d="M 229.5,19.5 C 246.167,19.5 262.833,19.5 279.5,19.5C 279.5,56.8333 279.5,94.1667 279.5,131.5C 262.833,131.5 246.167,131.5 229.5,131.5C 229.5,94.1667 229.5,56.8333 229.5,19.5 Z"/></g>
<g><path style="opacity:1" fill="#8196a9" d="M 339.5,19.5 C 346.167,19.5 352.833,19.5 359.5,19.5C 359.5,56.8333 359.5,94.1667 359.5,131.5C 352.833,131.5 346.167,131.5 339.5,131.5C 339.5,94.1667 339.5,56.8333 339.5,19.5 Z"/></g>
<g><path style="opacity:1" fill="#ed3c31" d="M 471.5,19.5 C 478.167,19.5 484.833,19.5 491.5,19.5C 491.5,176.833 491.5,334.167 491.5,491.5C 484.833,491.5 478.167,491.5 471.5,491.5C 471.5,334.167 471.5,176.833 471.5,19.5 Z"/></g>
<g><path style="opacity:1" fill="#32beb3" d="M 59.5,31.5 C 66.1667,31.5 72.8333,31.5 79.5,31.5C 79.5,64.8333 79.5,98.1667 79.5,131.5C 72.8333,131.5 66.1667,131.5 59.5,131.5C 59.5,98.1667 59.5,64.8333 59.5,31.5 Z"/></g>
<g><path style="opacity:1" fill="#f9d79a" d="M 139.5,31.5 C 149.5,31.5 159.5,31.5 169.5,31.5C 169.5,64.8333 169.5,98.1667 169.5,131.5C 159.5,131.5 149.5,131.5 139.5,131.5C 139.5,98.1667 139.5,64.8333 139.5,31.5 Z"/></g>
<g><path style="opacity:1" fill="#9a4c13" d="M 299.5,31.5 C 306.167,31.5 312.833,31.5 319.5,31.5C 319.5,64.8333 319.5,98.1667 319.5,131.5C 312.833,131.5 306.167,131.5 299.5,131.5C 299.5,98.1667 299.5,64.8333 299.5,31.5 Z"/></g>
<g><path style="opacity:1" fill="#e5e6e5" d="M 379.5,31.5 C 386.167,31.5 392.833,31.5 399.5,31.5C 399.5,64.8333 399.5,98.1667 399.5,131.5C 392.833,131.5 386.167,131.5 379.5,131.5C 379.5,98.1667 379.5,64.8333 379.5,31.5 Z"/></g>
<g><path style="opacity:1" fill="#4696e6" d="M 419.5,31.5 C 430.167,31.5 440.833,31.5 451.5,31.5C 451.5,64.8333 451.5,98.1667 451.5,131.5C 440.833,131.5 430.167,131.5 419.5,131.5C 419.5,98.1667 419.5,64.8333 419.5,31.5 Z"/></g>
<g><path style="opacity:1" fill="#f99600" d="M 99.5,41.5 C 106.167,41.5 112.833,41.5 119.5,41.5C 119.5,71.5 119.5,101.5 119.5,131.5C 112.833,131.5 106.167,131.5 99.5,131.5C 99.5,101.5 99.5,71.5 99.5,41.5 Z"/></g>
<g><path style="opacity:1" fill="#ed3c31" d="M 189.5,51.5 C 196.167,51.5 202.833,51.5 209.5,51.5C 209.5,78.1667 209.5,104.833 209.5,131.5C 202.833,131.5 196.167,131.5 189.5,131.5C 189.5,104.833 189.5,78.1667 189.5,51.5 Z"/></g>
<g><path style="opacity:1" fill="#8196a9" d="M 239.5,151.5 C 246.167,151.5 252.833,151.5 259.5,151.5C 259.5,198.167 259.5,244.833 259.5,291.5C 252.833,291.5 246.167,291.5 239.5,291.5C 239.5,244.833 239.5,198.167 239.5,151.5 Z"/></g>
<g><path style="opacity:1" fill="#f9d79a" d="M 279.5,151.5 C 286.167,151.5 292.833,151.5 299.5,151.5C 299.5,198.167 299.5,244.833 299.5,291.5C 292.833,291.5 286.167,291.5 279.5,291.5C 279.5,244.833 279.5,198.167 279.5,151.5 Z"/></g>
<g><path style="opacity:1" fill="#32beb3" d="M 59.5,191.5 C 66.1667,191.5 72.8333,191.5 79.5,191.5C 79.5,224.833 79.5,258.167 79.5,291.5C 72.8333,291.5 66.1667,291.5 59.5,291.5C 59.5,258.167 59.5,224.833 59.5,191.5 Z"/></g>
<g><path style="opacity:1" fill="#e5e6e5" d="M 139.5,191.5 C 146.167,191.5 152.833,191.5 159.5,191.5C 159.5,224.833 159.5,258.167 159.5,291.5C 152.833,291.5 146.167,291.5 139.5,291.5C 139.5,258.167 139.5,224.833 139.5,191.5 Z"/></g>
<g><path style="opacity:1" fill="#c7e7f8" d="M 319.5,191.5 C 326.167,191.5 332.833,191.5 339.5,191.5C 339.5,224.833 339.5,258.167 339.5,291.5C 332.833,291.5 326.167,291.5 319.5,291.5C 319.5,258.167 319.5,224.833 319.5,191.5 Z"/></g>
<g><path style="opacity:1" fill="#9a4c13" d="M 99.5,201.5 C 106.167,201.5 112.833,201.5 119.5,201.5C 119.5,231.5 119.5,261.5 119.5,291.5C 112.833,291.5 106.167,291.5 99.5,291.5C 99.5,261.5 99.5,231.5 99.5,201.5 Z"/></g>
<g><path style="opacity:1" fill="#f99600" d="M 179.5,201.5 C 192.833,201.5 206.167,201.5 219.5,201.5C 219.5,231.5 219.5,261.5 219.5,291.5C 206.167,291.5 192.833,291.5 179.5,291.5C 179.5,261.5 179.5,231.5 179.5,201.5 Z"/></g>
<g><path style="opacity:1" fill="#ed3c31" d="M 359.5,201.5 C 370.167,201.5 380.833,201.5 391.5,201.5C 391.5,231.5 391.5,261.5 391.5,291.5C 380.833,291.5 370.167,291.5 359.5,291.5C 359.5,261.5 359.5,231.5 359.5,201.5 Z"/></g>
<g><path style="opacity:1" fill="#f99600" d="M 59.5,351.5 C 66.1667,351.5 72.8333,351.5 79.5,351.5C 79.5,384.833 79.5,418.167 79.5,451.5C 72.8333,451.5 66.1667,451.5 59.5,451.5C 59.5,418.167 59.5,384.833 59.5,351.5 Z"/></g>
<g><path style="opacity:1" fill="#c7e7f8" d="M 347.5,361.5 C 355.5,361.5 363.5,361.5 371.5,361.5C 371.5,391.5 371.5,421.5 371.5,451.5C 363.5,451.5 355.5,451.5 347.5,451.5C 347.5,421.5 347.5,391.5 347.5,361.5 Z"/></g>
<g><path style="opacity:1" fill="#4696e6" d="M 99.5,368.5 C 106.167,368.5 112.833,368.5 119.5,368.5C 119.5,396.167 119.5,423.833 119.5,451.5C 112.833,451.5 106.167,451.5 99.5,451.5C 99.5,423.833 99.5,396.167 99.5,368.5 Z"/></g>
<g><path style="opacity:1" fill="#32beb3" d="M 179.5,368.5 C 186.167,368.5 192.833,368.5 199.5,368.5C 199.5,396.167 199.5,423.833 199.5,451.5C 192.833,451.5 186.167,451.5 179.5,451.5C 179.5,423.833 179.5,396.167 179.5,368.5 Z"/></g>
<g><path style="opacity:1" fill="#8196a9" d="M 431.5,368.5 C 438.167,368.5 444.833,368.5 451.5,368.5C 451.5,396.167 451.5,423.833 451.5,451.5C 444.833,451.5 438.167,451.5 431.5,451.5C 431.5,423.833 431.5,396.167 431.5,368.5 Z"/></g>
<g><path style="opacity:1" fill="#e83a30" d="M 239.5,390.5 C 253.965,404.465 268.299,418.631 282.5,433C 277.667,437.833 272.833,442.667 268,447.5C 253.833,433.333 239.667,419.167 225.5,405C 230.37,400.298 235.037,395.465 239.5,390.5 Z"/></g>
<g><path style="opacity:1" fill="#f9d79a" d="M 391.5,391.5 C 398.167,391.5 404.833,391.5 411.5,391.5C 411.5,411.5 411.5,431.5 411.5,451.5C 404.833,451.5 398.167,451.5 391.5,451.5C 391.5,431.5 391.5,411.5 391.5,391.5 Z"/></g>
<g><path style="opacity:0.889" fill="#000000" d="M 406.5,511.5 C 403.167,511.5 399.833,511.5 396.5,511.5C 391.754,507.658 390.254,502.658 392,496.5C 395.655,491.725 400.488,490.225 406.5,492C 411.275,495.655 412.775,500.488 411,506.5C 409.634,508.362 408.134,510.028 406.5,511.5 Z"/></g>
</svg>
