<?xml version="1.0" encoding="UTF-8"?>
<!DOCTYPE svg PUBLIC "-//W3C//DTD SVG 1.1//EN" "http://www.w3.org/Graphics/SVG/1.1/DTD/svg11.dtd">
<svg xmlns="http://www.w3.org/2000/svg" version="1.1" width="512px" height="512px" style="shape-rendering:geometricPrecision; text-rendering:geometricPrecision; image-rendering:optimizeQuality; fill-rule:evenodd; clip-rule:evenodd" xmlns:xlink="http://www.w3.org/1999/xlink">
<g><path style="opacity:0.997" fill="#000000" d="M 115.5,7.5 C 209.582,7.00492 303.582,7.50492 397.5,9C 398.126,9.75044 398.626,10.5838 399,11.5C 399.667,56.8333 399.667,102.167 399,147.5C 398.5,149.333 397.333,150.5 395.5,151C 380.837,151.5 366.17,151.667 351.5,151.5C 351.5,156.833 351.5,162.167 351.5,167.5C 379.502,167.333 407.502,167.5 435.5,168C 458.667,189.833 481.167,212.333 503,235.5C 503.667,253.5 503.667,271.5 503,289.5C 500.936,299.889 495.936,308.555 488,315.5C 487.667,376.833 487.333,438.167 487,499.5C 486.5,501.333 485.333,502.5 483.5,503C 331.5,503.667 179.5,503.667 27.5,503C 25.6667,502.5 24.5,501.333 24,499.5C 23.6667,438.167 23.3333,376.833 23,315.5C 15.0636,308.555 10.0636,299.889 8,289.5C 7.33333,271.5 7.33333,253.5 8,235.5C 29.8333,212.333 52.3333,189.833 75.5,168C 103.498,167.5 131.498,167.333 159.5,167.5C 159.5,162.167 159.5,156.833 159.5,151.5C 144.83,151.667 130.163,151.5 115.5,151C 113.667,150.5 112.5,149.333 112,147.5C 111.333,102.167 111.333,56.8333 112,11.5C 112.69,9.64977 113.856,8.31643 115.5,7.5 Z M 207.5,151.5 C 239.5,151.5 271.5,151.5 303.5,151.5C 303.5,156.833 303.5,162.167 303.5,167.5C 271.5,167.5 239.5,167.5 207.5,167.5C 207.5,162.167 207.5,156.833 207.5,151.5 Z"/></g>
<g><path style="opacity:1" fill="#977659" d="M 127.5,23.5 C 212.833,23.5 298.167,23.5 383.5,23.5C 383.5,60.8333 383.5,98.1667 383.5,135.5C 298.167,135.5 212.833,135.5 127.5,135.5C 127.5,98.1667 127.5,60.8333 127.5,23.5 Z"/></g>
<g><path style="opacity:1" fill="#010000" d="M 161.5,39.5 C 171.5,39.5 181.5,39.5 191.5,39.5C 191.5,44.8333 191.5,50.1667 191.5,55.5C 181.727,55.0525 172.061,55.5525 162.5,57C 161.299,57.9025 160.465,59.0692 160,60.5C 159.333,73.1667 159.333,85.8333 160,98.5C 160.465,99.9308 161.299,101.097 162.5,102C 172.061,103.448 181.727,103.948 191.5,103.5C 191.5,108.833 191.5,114.167 191.5,119.5C 181.494,119.666 171.494,119.5 161.5,119C 153.755,116.256 148.255,111.089 145,103.5C 143.381,88.2345 143.048,72.9012 144,57.5C 147.353,48.9815 153.186,42.9815 161.5,39.5 Z"/></g>
<g><path style="opacity:1" fill="#000000" d="M 225.5,39.5 C 239.853,38.2535 249.686,44.2535 255,57.5C 255.5,78.164 255.667,98.8306 255.5,119.5C 250.167,119.5 244.833,119.5 239.5,119.5C 239.5,114.167 239.5,108.833 239.5,103.5C 234.167,103.5 228.833,103.5 223.5,103.5C 223.5,108.833 223.5,114.167 223.5,119.5C 218.167,119.5 212.833,119.5 207.5,119.5C 207.333,98.8306 207.5,78.164 208,57.5C 211.353,48.9815 217.186,42.9815 225.5,39.5 Z"/></g>
<g><path style="opacity:1" fill="#000000" d="M 282.5,39.5 C 292.167,39.5 301.833,39.5 311.5,39.5C 311.5,44.8333 311.5,50.1667 311.5,55.5C 303.5,55.5 295.5,55.5 287.5,55.5C 287.5,60.8333 287.5,66.1667 287.5,71.5C 295.5,71.5 303.5,71.5 311.5,71.5C 311.5,76.8333 311.5,82.1667 311.5,87.5C 303.5,87.5 295.5,87.5 287.5,87.5C 287.5,98.1667 287.5,108.833 287.5,119.5C 282.167,119.5 276.833,119.5 271.5,119.5C 271.333,96.4976 271.5,73.4976 272,50.5C 274.357,45.6455 277.857,41.9788 282.5,39.5 Z"/></g>
<g><path style="opacity:1" fill="#000000" d="M 338.5,39.5 C 348.167,39.5 357.833,39.5 367.5,39.5C 367.5,44.8333 367.5,50.1667 367.5,55.5C 359.5,55.5 351.5,55.5 343.5,55.5C 343.5,60.8333 343.5,66.1667 343.5,71.5C 351.5,71.5 359.5,71.5 367.5,71.5C 367.5,76.8333 367.5,82.1667 367.5,87.5C 359.5,87.5 351.5,87.5 343.5,87.5C 343.5,92.8333 343.5,98.1667 343.5,103.5C 351.5,103.5 359.5,103.5 367.5,103.5C 367.5,108.833 367.5,114.167 367.5,119.5C 357.828,119.666 348.161,119.5 338.5,119C 334.388,117.221 331.222,114.388 329,110.5C 327.382,90.5516 327.049,70.5516 328,50.5C 330.357,45.6455 333.857,41.9788 338.5,39.5 Z"/></g>
<g><path style="opacity:1" fill="#967559" d="M 228.5,55.5 C 233.28,54.6409 236.78,56.3075 239,60.5C 239.5,69.4938 239.666,78.4938 239.5,87.5C 234.167,87.5 228.833,87.5 223.5,87.5C 223.334,78.4938 223.5,69.4938 224,60.5C 225.025,58.313 226.525,56.6464 228.5,55.5 Z"/></g>
<g><path style="opacity:1" fill="#977759" d="M 175.5,151.5 C 180.833,151.5 186.167,151.5 191.5,151.5C 191.5,156.833 191.5,162.167 191.5,167.5C 186.167,167.5 180.833,167.5 175.5,167.5C 175.5,162.167 175.5,156.833 175.5,151.5 Z"/></g>
<g><path style="opacity:1" fill="#977759" d="M 319.5,151.5 C 324.833,151.5 330.167,151.5 335.5,151.5C 335.5,156.833 335.5,162.167 335.5,167.5C 330.167,167.5 324.833,167.5 319.5,167.5C 319.5,162.167 319.5,156.833 319.5,151.5 Z"/></g>
<g><path style="opacity:1" fill="#73c764" d="M 416.5,183.5 C 432.167,199.5 447.833,215.5 463.5,231.5C 320.833,231.667 178.166,231.5 35.5,231C 51.1667,215.333 66.8333,199.667 82.5,184C 193.833,183.5 305.166,183.333 416.5,183.5 Z"/></g>
<g><path style="opacity:1" fill="#56954b" d="M 416.5,183.5 C 420.514,183.334 424.514,183.501 428.5,184C 444.167,199.667 459.833,215.333 475.5,231C 471.514,231.499 467.514,231.666 463.5,231.5C 447.833,215.5 432.167,199.5 416.5,183.5 Z"/></g>
<g><path style="opacity:1" fill="#73c764" d="M 71.5,247.5 C 71.9087,261.551 71.4087,275.551 70,289.5C 67.687,298.619 62.8537,305.952 55.5,311.5C 39.236,310.449 28.736,302.116 24,286.5C 23.5001,273.504 23.3334,260.504 23.5,247.5C 39.5,247.5 55.5,247.5 71.5,247.5 Z"/></g>
<g><path style="opacity:1" fill="#56954b" d="M 71.5,247.5 C 76.8333,247.5 82.1667,247.5 87.5,247.5C 87.6666,260.504 87.4999,273.504 87,286.5C 82.264,302.116 71.764,310.449 55.5,311.5C 62.8537,305.952 67.687,298.619 70,289.5C 71.4087,275.551 71.9087,261.551 71.5,247.5 Z"/></g>
<g><path style="opacity:1" fill="#73c764" d="M 151.5,247.5 C 151.909,261.551 151.409,275.551 150,289.5C 147.687,298.619 142.854,305.952 135.5,311.5C 119.236,310.449 108.736,302.116 104,286.5C 103.5,273.504 103.333,260.504 103.5,247.5C 119.5,247.5 135.5,247.5 151.5,247.5 Z"/></g>
<g><path style="opacity:1" fill="#56954b" d="M 151.5,247.5 C 156.833,247.5 162.167,247.5 167.5,247.5C 167.667,260.504 167.5,273.504 167,286.5C 162.264,302.116 151.764,310.449 135.5,311.5C 142.854,305.952 147.687,298.619 150,289.5C 151.409,275.551 151.909,261.551 151.5,247.5 Z"/></g>
<g><path style="opacity:1" fill="#73c764" d="M 231.5,247.5 C 231.909,261.551 231.409,275.551 230,289.5C 227.687,298.619 222.854,305.952 215.5,311.5C 199.236,310.449 188.736,302.116 184,286.5C 183.5,273.504 183.333,260.504 183.5,247.5C 199.5,247.5 215.5,247.5 231.5,247.5 Z"/></g>
<g><path style="opacity:1" fill="#56954b" d="M 231.5,247.5 C 236.833,247.5 242.167,247.5 247.5,247.5C 247.667,260.504 247.5,273.504 247,286.5C 242.264,302.116 231.764,310.449 215.5,311.5C 222.854,305.952 227.687,298.619 230,289.5C 231.409,275.551 231.909,261.551 231.5,247.5 Z"/></g>
<g><path style="opacity:1" fill="#73c764" d="M 311.5,247.5 C 311.909,261.551 311.409,275.551 310,289.5C 307.687,298.619 302.854,305.952 295.5,311.5C 279.236,310.449 268.736,302.116 264,286.5C 263.5,273.504 263.333,260.504 263.5,247.5C 279.5,247.5 295.5,247.5 311.5,247.5 Z"/></g>
<g><path style="opacity:1" fill="#56954b" d="M 311.5,247.5 C 316.833,247.5 322.167,247.5 327.5,247.5C 327.667,260.504 327.5,273.504 327,286.5C 322.264,302.116 311.764,310.449 295.5,311.5C 302.854,305.952 307.687,298.619 310,289.5C 311.409,275.551 311.909,261.551 311.5,247.5 Z"/></g>
<g><path style="opacity:1" fill="#73c764" d="M 391.5,247.5 C 391.909,261.551 391.409,275.551 390,289.5C 387.687,298.619 382.854,305.952 375.5,311.5C 359.236,310.449 348.736,302.116 344,286.5C 343.5,273.504 343.333,260.504 343.5,247.5C 359.5,247.5 375.5,247.5 391.5,247.5 Z"/></g>
<g><path style="opacity:1" fill="#56954b" d="M 391.5,247.5 C 396.833,247.5 402.167,247.5 407.5,247.5C 407.667,260.504 407.5,273.504 407,286.5C 402.264,302.116 391.764,310.449 375.5,311.5C 382.854,305.952 387.687,298.619 390,289.5C 391.409,275.551 391.909,261.551 391.5,247.5 Z"/></g>
<g><path style="opacity:1" fill="#73c764" d="M 471.5,247.5 C 471.909,261.551 471.409,275.551 470,289.5C 467.687,298.619 462.854,305.952 455.5,311.5C 439.236,310.449 428.736,302.116 424,286.5C 423.5,273.504 423.333,260.504 423.5,247.5C 439.5,247.5 455.5,247.5 471.5,247.5 Z"/></g>
<g><path style="opacity:1" fill="#56954b" d="M 471.5,247.5 C 476.833,247.5 482.167,247.5 487.5,247.5C 487.667,260.504 487.5,273.504 487,286.5C 482.264,302.116 471.764,310.449 455.5,311.5C 462.854,305.952 467.687,298.619 470,289.5C 471.409,275.551 471.909,261.551 471.5,247.5 Z"/></g>
<g><path style="opacity:1" fill="#cbcbcb" d="M 455.5,327.5 C 455.5,380.833 455.5,434.167 455.5,487.5C 450.167,487.5 444.833,487.5 439.5,487.5C 439.989,445.748 439.489,404.081 438,362.5C 436.829,361.107 435.329,360.273 433.5,360C 389.167,359.333 344.833,359.333 300.5,360C 299.069,360.465 297.903,361.299 297,362.5C 295.511,404.081 295.011,445.748 295.5,487.5C 268.833,487.5 242.167,487.5 215.5,487.5C 215.989,445.748 215.489,404.081 214,362.5C 212.829,361.107 211.329,360.273 209.5,360C 165.167,359.333 120.833,359.333 76.5,360C 75.0692,360.465 73.9025,361.299 73,362.5C 71.5112,404.081 71.0112,445.748 71.5,487.5C 60.8333,487.5 50.1667,487.5 39.5,487.5C 39.3333,433.166 39.5,378.832 40,324.5C 62.5421,330.98 81.0421,324.98 95.5,306.5C 113.853,328.604 135.853,333.104 161.5,320C 166.675,315.991 171.342,311.491 175.5,306.5C 193.853,328.604 215.853,333.104 241.5,320C 246.675,315.991 251.342,311.491 255.5,306.5C 273.853,328.604 295.853,333.104 321.5,320C 326.675,315.991 331.342,311.491 335.5,306.5C 353.853,328.604 375.853,333.104 401.5,320C 406.675,315.991 411.342,311.491 415.5,306.5C 425.49,319.829 438.824,326.829 455.5,327.5 Z"/></g>
<g><path style="opacity:1" fill="#b2b2b2" d="M 455.5,487.5 C 455.5,434.167 455.5,380.833 455.5,327.5C 460.829,327.196 465.996,326.196 471,324.5C 471.5,378.832 471.667,433.166 471.5,487.5C 466.167,487.5 460.833,487.5 455.5,487.5 Z"/></g>
<g><path style="opacity:1" fill="#ca9e77" d="M 119.5,375.5 C 119.5,412.833 119.5,450.167 119.5,487.5C 108.833,487.5 98.1667,487.5 87.5,487.5C 87.5,450.167 87.5,412.833 87.5,375.5C 98.1667,375.5 108.833,375.5 119.5,375.5 Z"/></g>
<g><path style="opacity:1" fill="#977759" d="M 119.5,375.5 C 124.833,375.5 130.167,375.5 135.5,375.5C 135.5,412.833 135.5,450.167 135.5,487.5C 130.167,487.5 124.833,487.5 119.5,487.5C 119.5,450.167 119.5,412.833 119.5,375.5 Z"/></g>
<g><path style="opacity:1" fill="#ca9e77" d="M 183.5,375.5 C 183.5,412.833 183.5,450.167 183.5,487.5C 172.833,487.5 162.167,487.5 151.5,487.5C 151.5,450.167 151.5,412.833 151.5,375.5C 162.167,375.5 172.833,375.5 183.5,375.5 Z"/></g>
<g><path style="opacity:1" fill="#977759" d="M 183.5,375.5 C 188.833,375.5 194.167,375.5 199.5,375.5C 199.5,412.833 199.5,450.167 199.5,487.5C 194.167,487.5 188.833,487.5 183.5,487.5C 183.5,450.167 183.5,412.833 183.5,375.5 Z"/></g>
<g><path style="opacity:1" fill="#ca9e77" d="M 343.5,375.5 C 343.5,412.833 343.5,450.167 343.5,487.5C 332.833,487.5 322.167,487.5 311.5,487.5C 311.5,450.167 311.5,412.833 311.5,375.5C 322.167,375.5 332.833,375.5 343.5,375.5 Z"/></g>
<g><path style="opacity:1" fill="#977759" d="M 343.5,375.5 C 348.833,375.5 354.167,375.5 359.5,375.5C 359.5,412.833 359.5,450.167 359.5,487.5C 354.167,487.5 348.833,487.5 343.5,487.5C 343.5,450.167 343.5,412.833 343.5,375.5 Z"/></g>
<g><path style="opacity:1" fill="#ca9e77" d="M 407.5,375.5 C 407.5,412.833 407.5,450.167 407.5,487.5C 396.833,487.5 386.167,487.5 375.5,487.5C 375.5,450.167 375.5,412.833 375.5,375.5C 386.167,375.5 396.833,375.5 407.5,375.5 Z"/></g>
<g><path style="opacity:1" fill="#977759" d="M 407.5,375.5 C 412.833,375.5 418.167,375.5 423.5,375.5C 423.5,412.833 423.5,450.167 423.5,487.5C 418.167,487.5 412.833,487.5 407.5,487.5C 407.5,450.167 407.5,412.833 407.5,375.5 Z"/></g>
</svg>
