<?xml version="1.0" encoding="UTF-8"?>
<!DOCTYPE svg PUBLIC "-//W3C//DTD SVG 1.1//EN" "http://www.w3.org/Graphics/SVG/1.1/DTD/svg11.dtd">
<svg xmlns="http://www.w3.org/2000/svg" version="1.1" width="512px" height="512px" style="shape-rendering:geometricPrecision; text-rendering:geometricPrecision; image-rendering:optimizeQuality; fill-rule:evenodd; clip-rule:evenodd" xmlns:xlink="http://www.w3.org/1999/xlink">
<g><path style="opacity:0.978" fill="#000000" d="M 511.5,242.5 C 511.5,261.167 511.5,279.833 511.5,298.5C 509.954,301.2 507.621,303.033 504.5,304C 495.506,304.5 486.506,304.666 477.5,304.5C 477.5,364.833 477.5,425.167 477.5,485.5C 487.172,485.334 496.839,485.5 506.5,486C 508.402,487.73 510.069,489.563 511.5,491.5C 511.5,494.167 511.5,496.833 511.5,499.5C 510.348,502.815 508.015,504.982 504.5,506C 338.5,506.667 172.5,506.667 6.5,506C 2.98529,504.982 0.651961,502.815 -0.5,499.5C -0.5,496.833 -0.5,494.167 -0.5,491.5C 0.93142,489.563 2.59809,487.73 4.5,486C 14.4944,485.5 24.4944,485.334 34.5,485.5C 34.5,425.167 34.5,364.833 34.5,304.5C 25.1607,304.666 15.8274,304.5 6.5,304C 3.37935,303.033 1.04602,301.2 -0.5,298.5C -0.5,279.833 -0.5,261.167 -0.5,242.5C 1.84425,239.658 4.84425,237.825 8.5,237C 42.4984,236.5 76.4984,236.333 110.5,236.5C 110.5,228.167 110.5,219.833 110.5,211.5C 85.8311,211.667 61.1644,211.5 36.5,211C 23.1087,207.609 15.2753,199.109 13,185.5C 12.3333,133.833 12.3333,82.1667 13,30.5C 16.1667,16.6667 24.6667,8.16667 38.5,5C 72.5,4.83333 106.5,4.66667 140.5,4.5C 176.204,4.3496 211.871,4.8496 247.5,6C 259.734,10.2338 266.901,18.7338 269,31.5C 269.667,82.5 269.667,133.5 269,184.5C 266.805,198.423 258.971,207.256 245.5,211C 220.836,211.5 196.169,211.667 171.5,211.5C 171.5,219.833 171.5,228.167 171.5,236.5C 205.5,236.5 239.5,236.5 273.5,236.5C 273.972,208.87 287.805,193.537 315,190.5C 341.719,194.059 355.219,209.392 355.5,236.5C 361.833,236.5 368.167,236.5 374.5,236.5C 374.017,195.773 374.517,155.106 376,114.5C 377.543,112.622 379.376,111.122 381.5,110C 410.833,109.333 440.167,109.333 469.5,110C 471.624,111.122 473.457,112.622 475,114.5C 476.477,155.119 476.977,195.786 476.5,236.5C 486.566,236.105 496.566,236.605 506.5,238C 508.362,239.366 510.028,240.866 511.5,242.5 Z M 78.5,417.5 C 78.5,410.5 78.5,403.5 78.5,396.5C 85.016,396.149 88.3494,392.649 88.5,386C 88.4513,379.45 85.118,375.95 78.5,375.5C 78.5,369.167 78.5,362.833 78.5,356.5C 82.7327,356.136 85.8994,354.136 88,350.5C 88.4999,335.17 88.6666,319.837 88.5,304.5C 164.833,304.5 241.167,304.5 317.5,304.5C 317.5,364.833 317.5,425.167 317.5,485.5C 241.167,485.5 164.833,485.5 88.5,485.5C 88.6666,464.497 88.5,443.497 88,422.5C 85.7146,419.108 82.548,417.441 78.5,417.5 Z"/></g>
<g><path style="opacity:1" fill="#65dff6" d="M 39.5,25.5 C 107.558,25.0101 175.558,25.5101 243.5,27C 245.378,28.5429 246.878,30.3762 248,32.5C 248.5,68.4985 248.667,104.498 248.5,140.5C 176.833,140.5 105.167,140.5 33.5,140.5C 33.3333,104.165 33.5,67.8318 34,31.5C 35.3597,28.9774 37.193,26.9774 39.5,25.5 Z"/></g>
<g><path style="opacity:1" fill="#fe7c95" d="M 395.5,130.5 C 415.5,130.5 435.5,130.5 455.5,130.5C 455.5,136.5 455.5,142.5 455.5,148.5C 435.5,148.5 415.5,148.5 395.5,148.5C 395.5,142.5 395.5,136.5 395.5,130.5 Z"/></g>
<g><path style="opacity:1" fill="#ece8e9" d="M 33.5,160.5 C 105.167,160.5 176.833,160.5 248.5,160.5C 248.666,168.174 248.5,175.841 248,183.5C 246.833,187.333 244.333,189.833 240.5,191C 174.167,191.667 107.833,191.667 41.5,191C 37.6404,189.807 35.1404,187.307 34,183.5C 33.5003,175.841 33.3336,168.174 33.5,160.5 Z"/></g>
<g><path style="opacity:1" fill="#f1edee" d="M 395.5,169.5 C 415.5,169.5 435.5,169.5 455.5,169.5C 455.5,192.167 455.5,214.833 455.5,237.5C 435.5,237.5 415.5,237.5 395.5,237.5C 395.5,214.833 395.5,192.167 395.5,169.5 Z"/></g>
<g><path style="opacity:1" fill="#d9cfd2" d="M 131.5,211.5 C 137.833,211.5 144.167,211.5 150.5,211.5C 150.5,220.167 150.5,228.833 150.5,237.5C 144.167,237.5 137.833,237.5 131.5,237.5C 131.5,228.833 131.5,220.167 131.5,211.5 Z"/></g>
<g><path style="opacity:1" fill="#64dcf3" d="M 309.5,211.5 C 327.373,211.039 335.706,219.706 334.5,237.5C 321.167,237.5 307.833,237.5 294.5,237.5C 292.884,224.828 297.884,216.161 309.5,211.5 Z"/></g>
<g><path style="opacity:1" fill="#8f6449" d="M 490.5,283.5 C 490.5,275.167 490.5,266.833 490.5,258.5C 333.833,258.5 177.167,258.5 20.5,258.5C 20.5,266.833 20.5,275.167 20.5,283.5C 19.507,275.016 19.1736,266.349 19.5,257.5C 176.833,257.5 334.167,257.5 491.5,257.5C 491.826,266.349 491.493,275.016 490.5,283.5 Z"/></g>
<g><path style="opacity:1" fill="#c58a64" d="M 490.5,283.5 C 333.833,283.5 177.167,283.5 20.5,283.5C 20.5,275.167 20.5,266.833 20.5,258.5C 177.167,258.5 333.833,258.5 490.5,258.5C 490.5,266.833 490.5,275.167 490.5,283.5 Z"/></g>
<g><path style="opacity:1" fill="#9c9a9a" d="M 68.5,346.5 C 67.5042,332.677 67.1709,318.677 67.5,304.5C 63.5,304.5 59.5,304.5 55.5,304.5C 55.5,363.167 55.5,421.833 55.5,480.5C 54.501,421.669 54.1676,362.669 54.5,303.5C 59.1667,303.5 63.8333,303.5 68.5,303.5C 68.5,317.833 68.5,332.167 68.5,346.5 Z"/></g>
<g><path style="opacity:0.997" fill="#f0eced" d="M 68.5,346.5 C 69.5334,352.2 72.8667,355.533 78.5,356.5C 78.5,362.833 78.5,369.167 78.5,375.5C 69.3256,377.848 66.4923,383.515 70,392.5C 72.3255,395.011 75.1589,396.344 78.5,396.5C 78.5,403.5 78.5,410.5 78.5,417.5C 74.2629,417.865 71.0962,419.865 69,423.5C 68.6667,442.5 68.3333,461.5 68,480.5C 66.0527,484.557 62.886,486.057 58.5,485C 56.8588,483.871 55.8588,482.371 55.5,480.5C 55.5,421.833 55.5,363.167 55.5,304.5C 59.5,304.5 63.5,304.5 67.5,304.5C 67.1709,318.677 67.5042,332.677 68.5,346.5 Z"/></g>
<g><path style="opacity:1" fill="#d9b5a0" d="M 338.5,303.5 C 377.833,303.5 417.167,303.5 456.5,303.5C 456.5,317.5 456.5,331.5 456.5,345.5C 417.167,345.5 377.833,345.5 338.5,345.5C 338.5,331.5 338.5,317.5 338.5,303.5 Z"/></g>
<g><path style="opacity:1" fill="#060504" d="M 394.5,314.5 C 404.462,314.124 408.629,318.791 407,328.5C 403.945,333.635 399.445,335.468 393.5,334C 385.287,327.096 385.621,320.596 394.5,314.5 Z"/></g>
<g><path style="opacity:1" fill="#c28763" d="M 338.5,365.5 C 377.833,365.5 417.167,365.5 456.5,365.5C 456.5,379.5 456.5,393.5 456.5,407.5C 417.167,407.5 377.833,407.5 338.5,407.5C 338.5,393.5 338.5,379.5 338.5,365.5 Z"/></g>
<g><path style="opacity:0.946" fill="#030303" d="M 78.5,375.5 C 85.118,375.95 88.4513,379.45 88.5,386C 88.3494,392.649 85.016,396.149 78.5,396.5C 75.1589,396.344 72.3255,395.011 70,392.5C 66.4923,383.515 69.3256,377.848 78.5,375.5 Z"/></g>
<g><path style="opacity:1" fill="#060302" d="M 393.5,376.5 C 406.312,376.141 410.146,381.808 405,393.5C 399.019,397.947 393.686,397.281 389,391.5C 386.064,385.058 387.564,380.058 393.5,376.5 Z"/></g>
<g><path style="opacity:1" fill="#dcb8a2" d="M 338.5,427.5 C 377.833,427.5 417.167,427.5 456.5,427.5C 456.5,446.833 456.5,466.167 456.5,485.5C 417.167,485.5 377.833,485.5 338.5,485.5C 338.5,466.167 338.5,446.833 338.5,427.5 Z"/></g>
<g><path style="opacity:1" fill="#070605" d="M 393.5,446.5 C 405.386,445.88 409.552,451.214 406,462.5C 399.789,468.175 394.122,467.841 389,461.5C 386.064,455.058 387.564,450.058 393.5,446.5 Z"/></g>
</svg>
