<?xml version="1.0" encoding="UTF-8"?>
<!DOCTYPE svg PUBLIC "-//W3C//DTD SVG 1.1//EN" "http://www.w3.org/Graphics/SVG/1.1/DTD/svg11.dtd">
<svg xmlns="http://www.w3.org/2000/svg" version="1.1" width="512px" height="512px" style="shape-rendering:geometricPrecision; text-rendering:geometricPrecision; image-rendering:optimizeQuality; fill-rule:evenodd; clip-rule:evenodd" xmlns:xlink="http://www.w3.org/1999/xlink">
<g><path style="opacity:0.999" fill="#000000" d="M -0.5,153.5 C -0.5,116.167 -0.5,78.8333 -0.5,41.5C 1.98203,35.5198 6.31536,31.3531 12.5,29C 49.8333,28.3333 87.1667,28.3333 124.5,29C 130.828,31.4821 134.994,35.9821 137,42.5C 137.667,78.8333 137.667,115.167 137,151.5C 135.325,157.841 131.492,162.341 125.5,165C 88.2266,166.648 50.8933,166.981 13.5,166C 6.89563,163.885 2.22896,159.719 -0.5,153.5 Z"/></g>
<g><path style="opacity:0.999" fill="#000000" d="M 486.5,299.5 C 483.207,298.59 480.707,296.59 479,293.5C 478.5,237.834 478.333,182.168 478.5,126.5C 449.5,126.5 420.5,126.5 391.5,126.5C 387.167,126.5 382.833,126.5 378.5,126.5C 378.811,147.879 378.478,169.212 377.5,190.5C 375.033,194.575 371.366,196.908 366.5,197.5C 341.833,197.5 317.167,197.5 292.5,197.5C 292.811,218.879 292.478,240.212 291.5,261.5C 289.033,265.575 285.366,267.908 280.5,268.5C 255.833,268.5 231.167,268.5 206.5,268.5C 206.5,288.167 206.5,307.833 206.5,327.5C 205.962,329.117 205.629,330.784 205.5,332.5C 203.408,335.917 200.408,338.25 196.5,339.5C 171.167,339.5 145.833,339.5 120.5,339.5C 120.5,359.167 120.5,378.833 120.5,398.5C 119.962,400.117 119.629,401.784 119.5,403.5C 117.408,406.917 114.408,409.25 110.5,410.5C 85.1667,410.5 59.8333,410.5 34.5,410.5C 34.5,429.5 34.5,448.5 34.5,467.5C 38.8333,467.5 43.1667,467.5 47.5,467.5C 119.167,467.333 190.834,467.5 262.5,468C 266.062,469.308 268.062,471.808 268.5,475.5C 268.451,478.099 267.451,480.266 265.5,482C 178.5,482.667 91.5,482.667 4.5,482C -0.833333,477.333 -0.833333,472.667 4.5,468C 9.48892,467.501 14.4889,467.334 19.5,467.5C 19.3334,446.497 19.5,425.497 20,404.5C 22.4523,400.05 26.119,397.05 31,395.5C 31.6667,377.5 31.6667,359.5 31,341.5C 17.3054,348.284 6.80539,344.951 -0.5,331.5C -0.5,326.833 -0.5,322.167 -0.5,317.5C 0.97576,315.231 2.47576,312.898 4,310.5C 118.167,217.667 232.333,124.833 346.5,32C 348.5,31 350.5,30 352.5,29C 397.5,28.3333 442.5,28.3333 487.5,29C 501.214,36.0034 504.714,46.5034 498,60.5C 493.594,66.286 487.761,69.286 480.5,69.5C 480.5,83.5 480.5,97.5 480.5,111.5C 486.717,111.538 490.884,114.538 493,120.5C 493.667,178.5 493.667,236.5 493,294.5C 491.513,297 489.346,298.666 486.5,299.5 Z M 365.5,69.5 C 366.833,69.5 368.167,69.5 369.5,69.5C 369.667,84.1705 369.5,98.8371 369,113.5C 366.319,115.527 364.653,118.193 364,121.5C 363.5,141.831 363.333,162.164 363.5,182.5C 342.167,182.5 320.833,182.5 299.5,182.5C 299.333,162.831 299.5,143.164 300,123.5C 322.023,105.636 343.856,87.6357 365.5,69.5 Z M 385.5,69.5 C 411.833,69.5 438.167,69.5 464.5,69.5C 464.5,83.1667 464.5,96.8333 464.5,110.5C 438.167,110.5 411.833,110.5 385.5,110.5C 385.5,96.8333 385.5,83.1667 385.5,69.5 Z M 282.5,137.5 C 283.661,152.995 283.828,168.661 283,184.5C 280.319,186.527 278.653,189.193 278,192.5C 277.5,212.831 277.333,233.164 277.5,253.5C 256.167,253.5 234.833,253.5 213.5,253.5C 213.333,233.497 213.5,213.497 214,193.5C 236.995,174.934 259.829,156.267 282.5,137.5 Z M 196.5,207.5 C 197.827,223.672 197.827,240.005 196.5,256.5C 194.282,257.924 192.782,259.924 192,262.5C 191.5,283.164 191.333,303.831 191.5,324.5C 170.167,324.5 148.833,324.5 127.5,324.5C 127.333,304.164 127.5,283.831 128,263.5C 150.732,244.591 173.565,225.924 196.5,207.5 Z M 110.5,277.5 C 111.827,294.005 111.827,310.671 110.5,327.5C 108.768,329.283 107.268,331.283 106,333.5C 105.5,354.164 105.333,374.831 105.5,395.5C 86.1667,395.5 66.8333,395.5 47.5,395.5C 47.3334,373.164 47.5,350.831 48,328.5C 69.0222,311.636 89.8555,294.636 110.5,277.5 Z"/></g>
<g><path style="opacity:1" fill="#fe7f31" d="M 27.5,43.5 C 26.1731,78.8333 26.1731,114.167 27.5,149.5C 24.2317,150.487 20.8984,150.82 17.5,150.5C 16.2502,150.423 15.4169,149.756 15,148.5C 14.3333,114.167 14.3333,79.8333 15,45.5C 15.5,45 16,44.5 16.5,44C 20.1516,43.5014 23.8183,43.3347 27.5,43.5 Z"/></g>
<g><path style="opacity:1" fill="#fca62f" d="M 27.5,43.5 C 58.1685,43.3334 88.8351,43.5 119.5,44C 120.308,44.3076 120.975,44.8076 121.5,45.5C 122.66,79.7916 122.826,114.125 122,148.5C 121.167,149.333 120.333,150.167 119.5,151C 85.3309,151.831 51.3309,151.664 17.5,150.5C 20.8984,150.82 24.2317,150.487 27.5,149.5C 26.1731,114.167 26.1731,78.8333 27.5,43.5 Z"/></g>
<g><path style="opacity:1" fill="#dce2ef" d="M 365.5,43.5 C 254.42,134.221 143.087,224.721 31.5,315C 29.7505,317.086 28.4172,319.419 27.5,322C 27.8361,323.03 28.5028,323.53 29.5,323.5C 27.3533,325.47 25.02,327.303 22.5,329C 17.8593,330.651 15.1926,329.151 14.5,324.5C 14.4062,322.088 15.4062,320.255 17.5,319C 130.123,228.045 242.457,136.712 354.5,45C 358.026,43.6632 361.692,43.1632 365.5,43.5 Z"/></g>
<g><path style="opacity:1" fill="#f4f4f5" d="M 365.5,43.5 C 404.835,43.3333 444.168,43.5 483.5,44C 487.598,47.6487 487.265,50.982 482.5,54C 441.083,54.011 399.749,54.6777 358.5,56C 248.803,145.175 139.136,234.342 29.5,323.5C 28.5028,323.53 27.8361,323.03 27.5,322C 28.4172,319.419 29.7505,317.086 31.5,315C 143.087,224.721 254.42,134.221 365.5,43.5 Z"/></g>
<g><path style="opacity:1" fill="#ff8030" d="M 74.5,65.5 C 76.9892,65.2978 79.3225,65.7978 81.5,67C 90.3333,75.8333 99.1667,84.6667 108,93.5C 110,96.1667 110,98.8333 108,101.5C 99.1667,110.333 90.3333,119.167 81.5,128C 76.7579,130.229 72.9246,129.062 70,124.5C 69.3333,122.833 69.3333,121.167 70,119.5C 74.1329,114.366 78.6329,109.532 83.5,105C 66.1667,104.667 48.8333,104.333 31.5,104C 26.1145,98.8895 26.4479,94.2228 32.5,90C 49.1667,89.6667 65.8333,89.3333 82.5,89C 77.9657,84.8006 73.799,80.3006 70,75.5C 69.0769,71.0165 70.5769,67.6832 74.5,65.5 Z"/></g>
<g><path style="opacity:1" fill="#8fd9bb" d="M 391.5,126.5 C 391.667,146.503 391.5,166.503 391,186.5C 390.167,188 389,189.167 387.5,190C 384.183,190.498 380.85,190.665 377.5,190.5C 378.478,169.212 378.811,147.879 378.5,126.5C 382.833,126.5 387.167,126.5 391.5,126.5 Z"/></g>
<g><path style="opacity:1" fill="#aafeda" d="M 391.5,126.5 C 420.5,126.5 449.5,126.5 478.5,126.5C 478.333,182.168 478.5,237.834 479,293.5C 480.707,296.59 483.207,298.59 486.5,299.5C 486.5,305.833 486.5,312.167 486.5,318.5C 482.976,318.667 480.476,320.333 479,323.5C 478.5,371.499 478.333,419.499 478.5,467.5C 417.166,467.333 355.832,467.5 294.5,468C 290.487,468.85 288.487,471.35 288.5,475.5C 281.833,475.5 275.167,475.5 268.5,475.5C 268.062,471.808 266.062,469.308 262.5,468C 190.834,467.5 119.167,467.333 47.5,467.5C 47.5,448.833 47.5,430.167 47.5,411.5C 68.6733,411.831 89.6733,411.497 110.5,410.5C 114.408,409.25 117.408,406.917 119.5,403.5C 123.182,403.665 126.848,403.499 130.5,403C 131.701,402.097 132.535,400.931 133,399.5C 133.5,379.836 133.667,360.169 133.5,340.5C 154.673,340.831 175.673,340.497 196.5,339.5C 200.408,338.25 203.408,335.917 205.5,332.5C 208.85,332.665 212.183,332.498 215.5,332C 217.333,331.5 218.5,330.333 219,328.5C 219.5,308.836 219.667,289.169 219.5,269.5C 240.007,269.83 260.34,269.497 280.5,268.5C 285.366,267.908 289.033,265.575 291.5,261.5C 294.85,261.665 298.183,261.498 301.5,261C 303.333,260.5 304.5,259.333 305,257.5C 305.5,237.836 305.667,218.169 305.5,198.5C 326.007,198.83 346.34,198.497 366.5,197.5C 371.366,196.908 375.033,194.575 377.5,190.5C 380.85,190.665 384.183,190.498 387.5,190C 389,189.167 390.167,188 391,186.5C 391.5,166.503 391.667,146.503 391.5,126.5 Z"/></g>
<g><path style="opacity:1" fill="#90dbbd" d="M 366.5,197.5 C 346.34,198.497 326.007,198.83 305.5,198.5C 305.667,218.169 305.5,237.836 305,257.5C 304.5,259.333 303.333,260.5 301.5,261C 298.183,261.498 294.85,261.665 291.5,261.5C 292.478,240.212 292.811,218.879 292.5,197.5C 317.167,197.5 341.833,197.5 366.5,197.5 Z"/></g>
<g><path style="opacity:1" fill="#7db29f" d="M 280.5,268.5 C 260.34,269.497 240.007,269.83 219.5,269.5C 215.5,269.5 211.5,269.5 207.5,269.5C 207.83,289.007 207.497,308.341 206.5,327.5C 206.5,307.833 206.5,288.167 206.5,268.5C 231.167,268.5 255.833,268.5 280.5,268.5 Z"/></g>
<g><path style="opacity:1" fill="#92e0c0" d="M 219.5,269.5 C 219.667,289.169 219.5,308.836 219,328.5C 218.5,330.333 217.333,331.5 215.5,332C 212.183,332.498 208.85,332.665 205.5,332.5C 205.629,330.784 205.962,329.117 206.5,327.5C 207.497,308.341 207.83,289.007 207.5,269.5C 211.5,269.5 215.5,269.5 219.5,269.5 Z"/></g>
<g><path style="opacity:1" fill="#000000" d="M 486.5,318.5 C 489.263,318.744 491.429,320.077 493,322.5C 493.5,370.832 493.667,419.166 493.5,467.5C 498.511,467.334 503.511,467.501 508.5,468C 509.373,469.045 510.373,469.878 511.5,470.5C 511.5,473.5 511.5,476.5 511.5,479.5C 510.373,480.122 509.373,480.955 508.5,482C 436.167,482.667 363.833,482.667 291.5,482C 289.081,480.491 288.081,478.325 288.5,475.5C 288.487,471.35 290.487,468.85 294.5,468C 355.832,467.5 417.166,467.333 478.5,467.5C 478.333,419.499 478.5,371.499 479,323.5C 480.476,320.333 482.976,318.667 486.5,318.5 Z"/></g>
<g><path style="opacity:1" fill="#79ac9a" d="M 196.5,339.5 C 175.673,340.497 154.673,340.831 133.5,340.5C 129.5,340.5 125.5,340.5 121.5,340.5C 121.83,360.007 121.497,379.341 120.5,398.5C 120.5,378.833 120.5,359.167 120.5,339.5C 145.833,339.5 171.167,339.5 196.5,339.5 Z"/></g>
<g><path style="opacity:1" fill="#92e0c0" d="M 133.5,340.5 C 133.667,360.169 133.5,379.836 133,399.5C 132.535,400.931 131.701,402.097 130.5,403C 126.848,403.499 123.182,403.665 119.5,403.5C 119.629,401.784 119.962,400.117 120.5,398.5C 121.497,379.341 121.83,360.007 121.5,340.5C 125.5,340.5 129.5,340.5 133.5,340.5 Z"/></g>
<g><path style="opacity:1" fill="#8dd5b8" d="M 110.5,410.5 C 89.6733,411.497 68.6733,411.831 47.5,411.5C 47.5,430.167 47.5,448.833 47.5,467.5C 43.1667,467.5 38.8333,467.5 34.5,467.5C 34.5,448.5 34.5,429.5 34.5,410.5C 59.8333,410.5 85.1667,410.5 110.5,410.5 Z"/></g>
</svg>
