<?xml version="1.0" encoding="UTF-8"?>
<!DOCTYPE svg PUBLIC "-//W3C//DTD SVG 1.1//EN" "http://www.w3.org/Graphics/SVG/1.1/DTD/svg11.dtd">
<svg xmlns="http://www.w3.org/2000/svg" version="1.1" width="512px" height="512px" style="shape-rendering:geometricPrecision; text-rendering:geometricPrecision; image-rendering:optimizeQuality; fill-rule:evenodd; clip-rule:evenodd" xmlns:xlink="http://www.w3.org/1999/xlink">
<g><path style="opacity:0.975" fill="#020202" d="M 208.5,186.5 C 211.651,189.136 212.818,192.469 212,196.5C 207.333,204.5 202.667,212.5 198,220.5C 196.574,225.757 197.741,230.257 201.5,234C 230.745,235.484 260.079,235.984 289.5,235.5C 295.176,235.666 300.843,235.499 306.5,235C 313.053,232.27 315.22,227.437 313,220.5C 298.414,195.663 284.081,170.663 270,145.5C 269.5,136.173 269.334,126.839 269.5,117.5C 262.5,117.5 255.5,117.5 248.5,117.5C 246.167,117.5 243.833,117.5 241.5,117.5C 241.666,126.839 241.5,136.173 241,145.5C 236.628,154.527 231.461,163.027 225.5,171C 222.739,171.722 220.073,171.555 217.5,170.5C 214.462,168.749 213.295,166.083 214,162.5C 217.667,155.833 221.333,149.167 225,142.5C 225.667,117.167 225.667,91.8333 225,66.5C 212.784,59.8603 208.784,49.8603 213,36.5C 216.528,28.9676 222.361,24.4676 230.5,23C 247.167,22.3333 263.833,22.3333 280.5,23C 297.578,28.3239 303.078,39.4906 297,56.5C 294.283,60.8844 290.616,64.2177 286,66.5C 285.333,91.8333 285.333,117.167 286,142.5C 299.667,166.167 313.333,189.833 327,213.5C 330.076,220.638 330.242,227.805 327.5,235C 334.826,235.5 342.159,235.666 349.5,235.5C 348.943,231.825 348.276,228.159 347.5,224.5C 348.143,221.116 348.977,217.783 350,214.5C 364.253,190.33 378.253,165.997 392,141.5C 392.667,116.5 392.667,91.5 392,66.5C 377.639,58.0643 374.306,46.3976 382,31.5C 384.708,27.8957 388.208,25.3957 392.5,24C 402.285,22.9018 412.119,22.4018 422,22.5C 431.881,22.4018 441.715,22.9018 451.5,24C 463.662,29.8251 468.162,39.3251 465,52.5C 462.391,58.7754 458.058,63.4421 452,66.5C 451.333,91.5 451.333,116.5 452,141.5C 466,166.167 480,190.833 494,215.5C 495.83,222.119 495.996,228.785 494.5,235.5C 502.538,235.544 508.205,239.211 511.5,246.5C 511.5,254.833 511.5,263.167 511.5,271.5C 508.42,277.737 503.42,281.57 496.5,283C 471.502,283.5 446.502,283.667 421.5,283.5C 421.5,288.167 421.5,292.833 421.5,297.5C 443.878,297.054 466.211,297.554 488.5,299C 499.99,302.658 507.657,310.158 511.5,321.5C 511.5,355.167 511.5,388.833 511.5,422.5C 507.428,434.238 499.428,441.905 487.5,445.5C 487.666,454.173 487.5,462.84 487,471.5C 483.96,480.542 477.793,486.042 468.5,488C 443.833,488.667 419.167,488.667 394.5,488C 384.232,486.4 377.732,480.567 375,470.5C 374.5,462.507 374.334,454.507 374.5,446.5C 295.167,446.5 215.833,446.5 136.5,446.5C 136.666,454.507 136.5,462.507 136,470.5C 133.268,480.567 126.768,486.4 116.5,488C 91.8333,488.667 67.1667,488.667 42.5,488C 33.2071,486.042 27.0404,480.542 24,471.5C 23.5002,462.84 23.3336,454.173 23.5,445.5C 11.5461,441.878 3.54607,434.211 -0.5,422.5C -0.5,410.167 -0.5,397.833 -0.5,385.5C 1.01439,382.905 3.34772,381.571 6.5,381.5C 10.0236,381.667 12.5236,383.333 14,386.5C 14.3333,397.5 14.6667,408.5 15,419.5C 17.5074,425.181 21.674,428.848 27.5,430.5C 178.999,431.666 330.666,431.833 482.5,431C 488.817,429.353 493.317,425.52 496,419.5C 496.667,388.167 496.667,356.833 496,325.5C 494.65,320.815 491.817,317.315 487.5,315C 481.258,313.63 474.925,313.13 468.5,313.5C 320.833,313.333 173.166,313.5 25.5,314C 21.3882,315.779 18.2215,318.612 16,322.5C 14.7304,334.096 14.0638,345.762 14,357.5C 12.4583,360.892 9.95832,362.892 6.5,363.5C 3.70516,362.937 1.37183,361.604 -0.5,359.5C -0.5,346.833 -0.5,334.167 -0.5,321.5C 3.34292,310.158 11.0096,302.658 22.5,299C 44.7886,297.554 67.1219,297.054 89.5,297.5C 89.5,292.833 89.5,288.167 89.5,283.5C 64.4978,283.667 39.4978,283.5 14.5,283C 7.57999,281.57 2.57999,277.737 -0.5,271.5C -0.5,263.167 -0.5,254.833 -0.5,246.5C 2.79501,239.211 8.46168,235.544 16.5,235.5C 14.8203,227.684 15.3203,220.017 18,212.5C 31.9193,188.997 45.586,165.33 59,141.5C 59.6667,116.5 59.6667,91.5 59,66.5C 44.0766,57.4729 41.0766,45.4729 50,30.5C 52.8922,27.9426 56.0589,25.776 59.5,24C 69.2854,22.9018 79.1188,22.4018 89,22.5C 98.8812,22.4018 108.715,22.9018 118.5,24C 131.957,30.7539 136.123,41.2539 131,55.5C 127.951,60.2158 123.951,63.8824 119,66.5C 118.333,91.5 118.333,116.5 119,141.5C 132.747,165.997 146.747,190.33 161,214.5C 162.83,221.453 162.997,228.453 161.5,235.5C 168.863,235.831 176.197,235.497 183.5,234.5C 180.683,226.655 181.183,218.989 185,211.5C 189.333,204.167 193.667,196.833 198,189.5C 200.89,186.146 204.39,185.146 208.5,186.5 Z"/></g>
<g><path style="opacity:1" fill="#dbe8f9" d="M 94.5,38.5 C 95.8032,42.6674 95.8032,46.834 94.5,51C 84.5056,51.4998 74.5056,51.6665 64.5,51.5C 60.2556,48.7329 59.4223,45.0663 62,40.5C 62.7504,39.8742 63.5838,39.3742 64.5,39C 74.4944,38.5002 84.4944,38.3335 94.5,38.5 Z"/></g>
<g><path style="opacity:1" fill="#b9d1f2" d="M 94.5,38.5 C 101.615,38.0753 108.615,38.5753 115.5,40C 118.866,45.1556 117.866,49.1556 112.5,52C 96.328,52.8281 80.328,52.6614 64.5,51.5C 74.5056,51.6665 84.5056,51.4998 94.5,51C 95.8032,46.834 95.8032,42.6674 94.5,38.5 Z"/></g>
<g><path style="opacity:1" fill="#dbe8f9" d="M 260.5,38.5 C 262.643,42.3208 262.977,46.3208 261.5,50.5C 251.522,51.4985 241.522,51.8319 231.5,51.5C 225.271,48.017 224.938,43.8503 230.5,39C 240.494,38.5002 250.494,38.3335 260.5,38.5 Z"/></g>
<g><path style="opacity:1" fill="#b7cff0" d="M 260.5,38.5 C 267.175,38.3337 273.842,38.5004 280.5,39C 286.036,43.8376 285.703,48.1709 279.5,52C 263.328,52.8281 247.328,52.6614 231.5,51.5C 241.522,51.8319 251.522,51.4985 261.5,50.5C 262.977,46.3208 262.643,42.3208 260.5,38.5 Z"/></g>
<g><path style="opacity:1" fill="#dce9fa" d="M 427.5,38.5 C 428.827,42.4697 428.827,46.4697 427.5,50.5C 417.522,51.4985 407.522,51.8319 397.5,51.5C 393.256,48.7329 392.422,45.0663 395,40.5C 395.75,39.8742 396.584,39.3742 397.5,39C 407.494,38.5002 417.494,38.3335 427.5,38.5 Z"/></g>
<g><path style="opacity:1" fill="#b8d1f2" d="M 427.5,38.5 C 434.615,38.0753 441.615,38.5753 448.5,40C 451.69,45.0509 450.69,49.0509 445.5,52C 429.328,52.8281 413.328,52.6614 397.5,51.5C 407.522,51.8319 417.522,51.4985 427.5,50.5C 428.827,46.4697 428.827,42.4697 427.5,38.5 Z"/></g>
<g><path style="opacity:1" fill="#e8f0fb" d="M 129.5,191.5 C 102.5,192.833 75.5,192.833 48.5,191.5C 56.9881,176.527 65.4881,161.527 74,146.5C 74.5,120.169 74.6666,93.8354 74.5,67.5C 84.1667,67.5 93.8333,67.5 103.5,67.5C 103.333,93.8354 103.5,120.169 104,146.5C 112.512,161.527 121.012,176.527 129.5,191.5 Z"/></g>
<g><path style="opacity:1" fill="#e8f0fb" d="M 241.5,67.5 C 250.833,67.5 260.167,67.5 269.5,67.5C 269.5,79.1667 269.5,90.8333 269.5,102.5C 260.167,102.5 250.833,102.5 241.5,102.5C 241.5,90.8333 241.5,79.1667 241.5,67.5 Z"/></g>
<g><path style="opacity:1" fill="#e6eef9" d="M 441.5,155.5 C 428.323,155.829 415.323,155.495 402.5,154.5C 404.172,151.978 405.672,149.312 407,146.5C 407.5,120.169 407.667,93.8354 407.5,67.5C 417.167,67.5 426.833,67.5 436.5,67.5C 436.333,93.8354 436.5,120.169 437,146.5C 438.527,149.553 440.027,152.553 441.5,155.5 Z"/></g>
<g><path style="opacity:1" fill="#b2e49e" d="M 248.5,117.5 C 248.334,126.506 248.5,135.506 249,144.5C 262.747,168.997 276.747,193.33 291,217.5C 293.14,223.717 292.64,229.717 289.5,235.5C 260.079,235.984 230.745,235.484 201.5,234C 197.741,230.257 196.574,225.757 198,220.5C 202.667,212.5 207.333,204.5 212,196.5C 212.818,192.469 211.651,189.136 208.5,186.5C 211.5,181.167 214.5,175.833 217.5,170.5C 220.073,171.555 222.739,171.722 225.5,171C 231.461,163.027 236.628,154.527 241,145.5C 241.5,136.173 241.666,126.839 241.5,117.5C 243.833,117.5 246.167,117.5 248.5,117.5 Z"/></g>
<g><path style="opacity:1" fill="#94d4a3" d="M 248.5,117.5 C 255.5,117.5 262.5,117.5 269.5,117.5C 269.334,126.839 269.5,136.173 270,145.5C 284.081,170.663 298.414,195.663 313,220.5C 315.22,227.437 313.053,232.27 306.5,235C 300.843,235.499 295.176,235.666 289.5,235.5C 292.64,229.717 293.14,223.717 291,217.5C 276.747,193.33 262.747,168.997 249,144.5C 248.5,135.506 248.334,126.506 248.5,117.5 Z"/></g>
<g><path style="opacity:1" fill="#6b6f74" d="M 402.5,154.5 C 415.323,155.495 428.323,155.829 441.5,155.5C 428.327,156.825 414.994,156.825 401.5,155.5C 401.624,154.893 401.957,154.56 402.5,154.5 Z"/></g>
<g><path style="opacity:1" fill="#dfbfee" d="M 392.5,171.5 C 405.171,171.333 417.838,171.5 430.5,172C 440.046,187.588 449.212,203.421 458,219.5C 459.068,225.175 458.235,230.508 455.5,235.5C 427.165,235.667 398.831,235.5 370.5,235C 364.703,232.24 362.537,227.74 364,221.5C 373.765,204.969 383.265,188.302 392.5,171.5 Z"/></g>
<g><path style="opacity:1" fill="#c7ade9" d="M 392.5,171.5 C 411.662,170.338 430.996,170.171 450.5,171C 459.793,186.418 468.959,201.918 478,217.5C 481.915,223.761 481.082,229.261 475.5,234C 468.924,235.377 462.257,235.877 455.5,235.5C 458.235,230.508 459.068,225.175 458,219.5C 449.212,203.421 440.046,187.588 430.5,172C 417.838,171.5 405.171,171.333 392.5,171.5 Z"/></g>
<g><path style="opacity:1" fill="#bbc1ca" d="M 48.5,191.5 C 75.5,192.833 102.5,192.833 129.5,191.5C 130.043,191.56 130.376,191.893 130.5,192.5C 102.833,193.833 75.1667,193.833 47.5,192.5C 47.6236,191.893 47.9569,191.56 48.5,191.5 Z"/></g>
<g><path style="opacity:1" fill="#fe7f85" d="M 119.5,208.5 C 121.307,212.114 123.14,215.78 125,219.5C 126.166,225.247 125.332,230.581 122.5,235.5C 94.1647,235.667 65.8314,235.5 37.5,235C 32.9643,232.965 30.6309,229.465 30.5,224.5C 32.4701,219.014 35.1368,213.848 38.5,209C 65.4979,208.5 92.4979,208.333 119.5,208.5 Z"/></g>
<g><path style="opacity:1" fill="#e3636d" d="M 119.5,208.5 C 126.175,208.334 132.842,208.5 139.5,209C 143.096,213.912 145.762,219.245 147.5,225C 147.405,228.855 145.738,231.855 142.5,234C 135.924,235.377 129.257,235.877 122.5,235.5C 125.332,230.581 126.166,225.247 125,219.5C 123.14,215.78 121.307,212.114 119.5,208.5 Z"/></g>
<g><path style="opacity:1" fill="#ebe9eb" d="M 474.5,250.5 C 474.5,256.167 474.5,261.833 474.5,267.5C 321.5,267.667 168.5,267.5 15.5,267C 14.1667,261.667 14.1667,256.333 15.5,251C 168.5,250.5 321.5,250.333 474.5,250.5 Z"/></g>
<g><path style="opacity:1" fill="#d9d7da" d="M 474.5,250.5 C 481.508,250.334 488.508,250.5 495.5,251C 496.833,256.333 496.833,261.667 495.5,267C 488.508,267.5 481.508,267.666 474.5,267.5C 474.5,261.833 474.5,256.167 474.5,250.5 Z"/></g>
<g><path style="opacity:1" fill="#554d57" d="M 104.5,282.5 C 205.167,282.5 305.833,282.5 406.5,282.5C 406.5,287.833 406.5,293.167 406.5,298.5C 305.833,298.5 205.167,298.5 104.5,298.5C 104.5,293.167 104.5,287.833 104.5,282.5 Z"/></g>
<g><path style="opacity:1" fill="#6e6570" d="M 105.5,283.5 C 198.5,283.5 291.5,283.5 384.5,283.5C 384.5,288.167 384.5,292.833 384.5,297.5C 291.5,297.5 198.5,297.5 105.5,297.5C 105.5,292.833 105.5,288.167 105.5,283.5 Z"/></g>
<g><path style="opacity:1" fill="#eae8ea" d="M 468.5,313.5 C 471.097,316.356 472.93,319.689 474,323.5C 474.667,356.167 474.667,388.833 474,421.5C 472.753,424.329 471.253,426.995 469.5,429.5C 322.168,430.5 174.835,430.833 27.5,430.5C 21.674,428.848 17.5074,425.181 15,419.5C 14.6667,408.5 14.3333,397.5 14,386.5C 12.5236,383.333 10.0236,381.667 6.5,381.5C 6.5,375.5 6.5,369.5 6.5,363.5C 9.95832,362.892 12.4583,360.892 14,357.5C 14.0638,345.762 14.7304,334.096 16,322.5C 18.2215,318.612 21.3882,315.779 25.5,314C 173.166,313.5 320.833,313.333 468.5,313.5 Z"/></g>
<g><path style="opacity:1" fill="#d3d1d4" d="M 468.5,313.5 C 474.925,313.13 481.258,313.63 487.5,315C 491.817,317.315 494.65,320.815 496,325.5C 496.667,356.833 496.667,388.167 496,419.5C 493.317,425.52 488.817,429.353 482.5,431C 330.666,431.833 178.999,431.666 27.5,430.5C 174.835,430.833 322.168,430.5 469.5,429.5C 471.253,426.995 472.753,424.329 474,421.5C 474.667,388.833 474.667,356.167 474,323.5C 472.93,319.689 471.097,316.356 468.5,313.5 Z"/></g>
<g><path style="opacity:1" fill="#050405" d="M 88.5,339.5 C 114.217,338.722 127.383,351.056 128,376.5C 121.617,399.282 106.784,408.115 83.5,403C 67.945,395.398 61.1117,382.898 63,365.5C 67.0168,352.318 75.5168,343.651 88.5,339.5 Z"/></g>
<g><path style="opacity:1" fill="#010101" d="M 265.5,399.5 C 264.415,394.83 266.082,391.83 270.5,390.5C 297.167,390.5 323.833,390.5 350.5,390.5C 350.828,378.322 350.495,366.322 349.5,354.5C 342.5,354.5 335.5,354.5 328.5,354.5C 272.833,354.5 217.167,354.5 161.5,354.5C 161.5,366.5 161.5,378.5 161.5,390.5C 188.502,390.333 215.502,390.5 242.5,391C 245.125,393.196 246.125,396.03 245.5,399.5C 245.141,401.371 244.141,402.871 242.5,404C 213.5,404.667 184.5,404.667 155.5,404C 151.183,401.685 148.35,398.185 147,393.5C 146.333,378.833 146.333,364.167 147,349.5C 148.833,345 152,341.833 156.5,340C 221.833,339.333 287.167,339.333 352.5,340C 358.159,340.996 361.993,344.162 364,349.5C 364.667,364.167 364.667,378.833 364,393.5C 362.594,398.573 359.428,402.073 354.5,404C 325.833,404.667 297.167,404.667 268.5,404C 266.859,402.871 265.859,401.371 265.5,399.5 Z"/></g>
<g><path style="opacity:1" fill="#050505" d="M 408.5,339.5 C 428.483,338.006 441.65,346.673 448,365.5C 448.951,392.883 435.784,405.716 408.5,404C 390.19,398.223 381.69,385.723 383,366.5C 386.604,352.733 395.104,343.733 408.5,339.5 Z"/></g>
<g><path style="opacity:1" fill="#a59ea4" d="M 90.5,354.5 C 106.138,353.639 113.638,360.972 113,376.5C 107.434,389.365 98.267,392.865 85.5,387C 76.8083,379.779 75.3083,371.279 81,361.5C 83.7901,358.535 86.9567,356.202 90.5,354.5 Z"/></g>
<g><path style="opacity:1" fill="#c1dbfd" d="M 328.5,354.5 C 328.5,366.167 328.5,377.833 328.5,389.5C 308.993,389.17 289.659,389.503 270.5,390.5C 266.082,391.83 264.415,394.83 265.5,399.5C 262.431,398.257 259.098,397.591 255.5,397.5C 251.902,397.591 248.569,398.257 245.5,399.5C 246.125,396.03 245.125,393.196 242.5,391C 215.502,390.5 188.502,390.333 161.5,390.5C 161.5,378.5 161.5,366.5 161.5,354.5C 217.167,354.5 272.833,354.5 328.5,354.5 Z"/></g>
<g><path style="opacity:1" fill="#a4ccff" d="M 328.5,354.5 C 335.5,354.5 342.5,354.5 349.5,354.5C 349.5,366.167 349.5,377.833 349.5,389.5C 342.5,389.5 335.5,389.5 328.5,389.5C 328.5,377.833 328.5,366.167 328.5,354.5 Z"/></g>
<g><path style="opacity:1" fill="#a49ea4" d="M 410.5,354.5 C 429.377,354.529 436.21,363.529 431,381.5C 423.966,389.91 415.466,391.744 405.5,387C 395.207,377.664 394.874,367.998 404.5,358C 406.727,357.059 408.727,355.892 410.5,354.5 Z"/></g>
<g><path style="opacity:1" fill="#58677a" d="M 349.5,354.5 C 350.495,366.322 350.828,378.322 350.5,390.5C 323.833,390.5 297.167,390.5 270.5,390.5C 289.659,389.503 308.993,389.17 328.5,389.5C 335.5,389.5 342.5,389.5 349.5,389.5C 349.5,377.833 349.5,366.167 349.5,354.5 Z"/></g>
<g><path style="opacity:1" fill="#6e6470" d="M 99.5,446.5 C 99.6663,453.841 99.4997,461.174 99,468.5C 98.5899,469.901 98.0899,471.234 97.5,472.5C 79.1636,472.667 60.8303,472.5 42.5,472C 40.9512,470.786 39.7845,469.286 39,467.5C 38.5004,460.508 38.3337,453.508 38.5,446.5C 58.8333,446.5 79.1667,446.5 99.5,446.5 Z"/></g>
<g><path style="opacity:1" fill="#5c525f" d="M 99.5,446.5 C 106.5,446.5 113.5,446.5 120.5,446.5C 120.935,454.611 120.435,462.611 119,470.5C 118.25,471.126 117.416,471.626 116.5,472C 110.175,472.5 103.842,472.666 97.5,472.5C 98.0899,471.234 98.5899,469.901 99,468.5C 99.4997,461.174 99.6663,453.841 99.5,446.5 Z"/></g>
<g><path style="opacity:1" fill="#6e6470" d="M 450.5,446.5 C 450.711,455.2 450.377,463.867 449.5,472.5C 431.164,472.667 412.83,472.5 394.5,472C 392.667,471.5 391.5,470.333 391,468.5C 390.5,461.174 390.334,453.841 390.5,446.5C 410.5,446.5 430.5,446.5 450.5,446.5 Z"/></g>
<g><path style="opacity:1" fill="#5c525e" d="M 450.5,446.5 C 457.833,446.5 465.167,446.5 472.5,446.5C 472.932,454.279 472.432,461.946 471,469.5C 470.167,470.333 469.333,471.167 468.5,472C 462.175,472.5 455.842,472.666 449.5,472.5C 450.377,463.867 450.711,455.2 450.5,446.5 Z"/></g>
</svg>
