<?xml version="1.0" encoding="UTF-8"?>
<!DOCTYPE svg PUBLIC "-//W3C//DTD SVG 1.1//EN" "http://www.w3.org/Graphics/SVG/1.1/DTD/svg11.dtd">
<svg xmlns="http://www.w3.org/2000/svg" version="1.1" width="512px" height="512px" style="shape-rendering:geometricPrecision; text-rendering:geometricPrecision; image-rendering:optimizeQuality; fill-rule:evenodd; clip-rule:evenodd" xmlns:xlink="http://www.w3.org/1999/xlink">
<g><path style="opacity:0.992" fill="#000000" d="M 237.5,15.5 C 267.16,12.5645 286.326,25.2311 295,53.5C 295.667,65.5 295.667,77.5 295,89.5C 292.597,98.9721 288.097,107.305 281.5,114.5C 292.763,120.693 299.929,130.027 303,142.5C 303.5,164.164 303.667,185.831 303.5,207.5C 314.167,207.5 324.833,207.5 335.5,207.5C 335.055,189.777 335.555,172.111 337,154.5C 340.768,143.897 347.602,135.897 357.5,130.5C 350.394,123.625 345.894,115.292 344,105.5C 343.333,93.5 343.333,81.5 344,69.5C 352.654,41.0794 371.82,28.5794 401.5,32C 403.218,32.346 404.885,32.846 406.5,33.5C 414.651,15.9467 427.651,11.1134 445.5,19C 459.701,32.7884 459.701,46.4551 445.5,60C 442.583,61.2328 439.916,62.7328 437.5,64.5C 438.154,66.1151 438.654,67.7818 439,69.5C 439.667,81.5 439.667,93.5 439,105.5C 436.597,114.972 432.097,123.305 425.5,130.5C 435.398,135.897 442.232,143.897 446,154.5C 447.445,172.111 447.945,189.777 447.5,207.5C 462.17,207.333 476.837,207.5 491.5,208C 492.416,208.374 493.25,208.874 494,209.5C 495.631,223.406 495.964,237.406 495,251.5C 494.5,253.333 493.333,254.5 491.5,255C 487.514,255.499 483.514,255.666 479.5,255.5C 479.994,334.916 479.494,414.249 478,493.5C 477.25,494.126 476.416,494.626 475.5,495C 328.833,495.667 182.167,495.667 35.5,495C 34.5838,494.626 33.7504,494.126 33,493.5C 31.5058,414.249 31.0058,334.916 31.5,255.5C 27.4862,255.666 23.4862,255.499 19.5,255C 17.6667,254.5 16.5,253.333 16,251.5C 15.3333,238.167 15.3333,224.833 16,211.5C 16.5,209.667 17.6667,208.5 19.5,208C 31.4954,207.5 43.4954,207.333 55.5,207.5C 55.3335,198.161 55.5002,188.827 56,179.5C 56.5,177.667 57.6667,176.5 59.5,176C 63.4862,175.501 67.4862,175.334 71.5,175.5C 71.5,170.167 71.5,164.833 71.5,159.5C 54.1635,159.667 36.8301,159.5 19.5,159C 18.5838,158.626 17.7504,158.126 17,157.5C 15.347,122.252 15.0136,86.9182 16,51.5C 16.5,49.6667 17.6667,48.5 19.5,48C 70.1667,47.3333 120.833,47.3333 171.5,48C 173.333,48.5 174.5,49.6667 175,51.5C 175.986,86.9182 175.653,122.252 174,157.5C 173.25,158.126 172.416,158.626 171.5,159C 154.17,159.5 136.837,159.667 119.5,159.5C 119.5,164.833 119.5,170.167 119.5,175.5C 123.514,175.334 127.514,175.501 131.5,176C 132.416,176.374 133.25,176.874 134,177.5C 135.449,187.395 135.949,197.395 135.5,207.5C 154.167,207.5 172.833,207.5 191.5,207.5C 191.333,185.831 191.5,164.164 192,142.5C 195.071,130.027 202.237,120.693 213.5,114.5C 206.394,107.625 201.894,99.2919 200,89.5C 199.333,77.5 199.333,65.5 200,53.5C 205.349,33.6518 217.849,20.9852 237.5,15.5 Z"/></g>
<g><path style="opacity:1" fill="#baa58c" d="M 240.5,31.5 C 257.833,29.9926 270.166,36.9926 277.5,52.5C 276,52.8333 274.5,53.1667 273,53.5C 259.291,51.7797 245.624,49.7797 232,47.5C 227.079,48.7041 222.246,49.8708 217.5,51C 222.473,41.1994 230.14,34.6994 240.5,31.5 Z"/></g>
<g><path style="opacity:1" fill="#b8a38b" d="M 428.5,31.5 C 436.658,30.8229 440.158,34.4895 439,42.5C 436.774,46.8608 433.274,48.3608 428.5,47C 424.139,44.7742 422.639,41.2742 424,36.5C 425.025,34.313 426.525,32.6464 428.5,31.5 Z"/></g>
<g><path style="opacity:1" fill="#baa58c" d="M 384.5,47.5 C 401.833,45.9926 414.166,52.9926 421.5,68.5C 420,68.8333 418.5,69.1667 417,69.5C 403.291,67.7797 389.624,65.7797 376,63.5C 371.079,64.7041 366.246,65.8708 361.5,67C 366.473,57.1994 374.14,50.6994 384.5,47.5 Z"/></g>
<g><path style="opacity:1" fill="#c5c4c9" d="M 31.5,63.5 C 74.1667,63.5 116.833,63.5 159.5,63.5C 159.5,90.1667 159.5,116.833 159.5,143.5C 146.167,143.5 132.833,143.5 119.5,143.5C 119.967,128.403 119.467,113.403 118,98.5C 116.829,97.1068 115.329,96.2735 113.5,96C 101.167,95.3333 88.8333,95.3333 76.5,96C 74.3333,96.8333 72.8333,98.3333 72,100.5C 71.5001,114.829 71.3334,129.163 71.5,143.5C 58.1667,143.5 44.8333,143.5 31.5,143.5C 31.5,116.833 31.5,90.1667 31.5,63.5 Z"/></g>
<g><path style="opacity:1" fill="#fcc175" d="M 230.5,63.5 C 246.755,66.1079 263.089,68.4412 279.5,70.5C 281.681,90.6606 273.348,104.161 254.5,111C 235.099,113.054 222.266,104.887 216,86.5C 215.501,80.5092 215.334,74.5092 215.5,68.5C 220.784,67.4054 225.784,65.7387 230.5,63.5 Z"/></g>
<g><path style="opacity:1" fill="#fbc175" d="M 374.5,79.5 C 390.789,82.0511 407.122,84.3844 423.5,86.5C 425.681,106.661 417.348,120.161 398.5,127C 379.099,129.054 366.266,120.887 360,102.5C 359.501,96.5092 359.334,90.5092 359.5,84.5C 364.784,83.4054 369.784,81.7387 374.5,79.5 Z"/></g>
<g><path style="opacity:1" fill="#fe7955" d="M 87.5,111.5 C 92.8333,111.5 98.1667,111.5 103.5,111.5C 103.5,132.833 103.5,154.167 103.5,175.5C 98.1667,175.5 92.8333,175.5 87.5,175.5C 87.5,154.167 87.5,132.833 87.5,111.5 Z"/></g>
<g><path style="opacity:1" fill="#bcfcfe" d="M 225.5,127.5 C 230.167,127.5 234.833,127.5 239.5,127.5C 239.5,146.167 239.5,164.833 239.5,183.5C 244.833,183.5 250.167,183.5 255.5,183.5C 255.5,164.833 255.5,146.167 255.5,127.5C 269.302,125.365 279.469,130.365 286,142.5C 287.467,164.1 287.967,185.767 287.5,207.5C 260.833,207.5 234.167,207.5 207.5,207.5C 207.333,186.831 207.5,166.164 208,145.5C 211.353,136.982 217.186,130.982 225.5,127.5 Z"/></g>
<g><path style="opacity:1" fill="#45f7fe" d="M 369.5,143.5 C 374.167,143.5 378.833,143.5 383.5,143.5C 383.5,148.833 383.5,154.167 383.5,159.5C 380.833,159.5 378.167,159.5 375.5,159.5C 375.5,164.833 375.5,170.167 375.5,175.5C 386.167,175.5 396.833,175.5 407.5,175.5C 407.5,170.167 407.5,164.833 407.5,159.5C 404.833,159.5 402.167,159.5 399.5,159.5C 399.5,154.167 399.5,148.833 399.5,143.5C 414.928,141.125 425.428,147.125 431,161.5C 431.5,176.83 431.667,192.163 431.5,207.5C 404.833,207.5 378.167,207.5 351.5,207.5C 351.333,192.163 351.5,176.83 352,161.5C 355.353,152.982 361.186,146.982 369.5,143.5 Z"/></g>
<g><path style="opacity:1" fill="#9bdd04" d="M 71.5,191.5 C 87.5,191.5 103.5,191.5 119.5,191.5C 119.5,196.833 119.5,202.167 119.5,207.5C 103.5,207.5 87.5,207.5 71.5,207.5C 71.5,202.167 71.5,196.833 71.5,191.5 Z"/></g>
<g><path style="opacity:1" fill="#a68965" d="M 31.5,223.5 C 180.833,223.5 330.167,223.5 479.5,223.5C 479.5,228.833 479.5,234.167 479.5,239.5C 330.167,239.5 180.833,239.5 31.5,239.5C 31.5,234.167 31.5,228.833 31.5,223.5 Z"/></g>
<g><path style="opacity:1" fill="#fde8aa" d="M 47.5,255.5 C 186.167,255.5 324.833,255.5 463.5,255.5C 463.5,330.167 463.5,404.833 463.5,479.5C 324.833,479.5 186.167,479.5 47.5,479.5C 47.5,404.833 47.5,330.167 47.5,255.5 Z"/></g>
<g><path style="opacity:1" fill="#000000" d="M 108.5,287.5 C 206.167,287.333 303.834,287.5 401.5,288C 404.232,288.398 406.065,289.898 407,292.5C 407.667,310.167 407.667,327.833 407,345.5C 406.5,348.667 404.667,350.5 401.5,351C 303.833,351.667 206.167,351.667 108.5,351C 105.898,350.065 104.398,348.232 104,345.5C 103.333,327.833 103.333,310.167 104,292.5C 105.025,290.313 106.525,288.646 108.5,287.5 Z"/></g>
<g><path style="opacity:1" fill="#fe7955" d="M 119.5,303.5 C 210.167,303.5 300.833,303.5 391.5,303.5C 391.5,314.167 391.5,324.833 391.5,335.5C 300.833,335.5 210.167,335.5 119.5,335.5C 119.5,324.833 119.5,314.167 119.5,303.5 Z"/></g>
<g><path style="opacity:1" fill="#000000" d="M 103.5,383.5 C 204.833,383.5 306.167,383.5 407.5,383.5C 407.5,388.833 407.5,394.167 407.5,399.5C 306.167,399.5 204.833,399.5 103.5,399.5C 103.5,394.167 103.5,388.833 103.5,383.5 Z"/></g>
<g><path style="opacity:1" fill="#000000" d="M 103.5,431.5 C 204.833,431.5 306.167,431.5 407.5,431.5C 407.5,436.833 407.5,442.167 407.5,447.5C 306.167,447.5 204.833,447.5 103.5,447.5C 103.5,442.167 103.5,436.833 103.5,431.5 Z"/></g>
</svg>
